<svg width="30" height="29" viewBox="0 0 30 29" fill="none" xmlns="http://www.w3.org/2000/svg">
<path d="M14.9453 14.2942C9.13065 14.2942 7.08765 17.2469 7.08765 19.2154V22.168H22.803V19.2154C22.803 17.2469 20.76 14.2942 14.9453 14.2942Z" fill="#F8F8F8"/>
<path d="M14.9453 13.31C17.3864 13.31 19.3653 11.327 19.3653 8.88095C19.3653 6.43486 17.3864 4.4519 14.9453 4.4519C12.5043 4.4519 10.5254 6.43486 10.5254 8.88095C10.5254 11.327 12.5043 13.31 14.9453 13.31Z" fill="#F8F8F8"/>
<path d="M28.6328 14.4912C28.6328 22.0421 22.5052 28.1641 14.9453 28.1641C7.38543 28.1641 1.25781 22.0421 1.25781 14.4912C1.25781 6.94031 7.38543 0.818237 14.9453 0.818237C22.5052 0.818237 28.6328 6.94031 28.6328 14.4912Z" stroke="#F8F8F8"/>
</svg>
