<svg width="30" height="15" viewBox="0 0 30 15" fill="none" xmlns="http://www.w3.org/2000/svg">
<path d="M19.9446 0.455078C20.2973 0.455078 20.6355 0.549041 20.8848 0.716295C21.1342 0.88355 21.2743 1.1104 21.2743 1.34693V5.0927L28.2057 1.83745C28.3054 1.79059 28.4223 1.76298 28.5438 1.75763C28.6652 1.75228 28.7865 1.7694 28.8945 1.80712C29.0024 1.84484 29.0929 1.90171 29.1559 1.97154C29.219 2.04137 29.2523 2.12147 29.2521 2.20311V12.9767C29.2523 13.0583 29.219 13.1384 29.1559 13.2082C29.0929 13.2781 29.0024 13.3349 28.8945 13.3726C28.7865 13.4104 28.6652 13.4275 28.5438 13.4221C28.4223 13.4168 28.3054 13.3892 28.2057 13.3423L21.2743 10.0871V13.8328C21.2743 14.0694 21.1342 14.2962 20.8848 14.4635C20.6355 14.6307 20.2973 14.7247 19.9446 14.7247H1.32964C0.976999 14.7247 0.6388 14.6307 0.389443 14.4635C0.140087 14.2962 0 14.0694 0 13.8328V1.34693C0 1.1104 0.140087 0.88355 0.389443 0.716295C0.6388 0.549041 0.976999 0.455078 1.32964 0.455078H19.9446ZM8.50971 4.76183C8.3871 4.76181 8.26825 4.79021 8.17327 4.84221C8.07829 4.89422 8.01301 4.96664 7.98849 5.04722L7.97786 5.11767V10.0603C7.97784 10.1181 7.99875 10.175 8.03878 10.2261C8.07881 10.2773 8.13675 10.3212 8.20765 10.354C8.27854 10.3868 8.36025 10.4076 8.44575 10.4145C8.53126 10.4215 8.618 10.4144 8.69852 10.3939L8.79559 10.3618L14.5862 7.88955C14.6537 7.86055 14.7107 7.82168 14.7527 7.77585C14.7947 7.73002 14.8207 7.6784 14.8287 7.62488C14.8368 7.57135 14.8267 7.51729 14.7992 7.46675C14.7717 7.41621 14.7275 7.3705 14.6699 7.33303L14.5862 7.28844L8.79559 4.81623C8.70979 4.78056 8.61064 4.76111 8.50971 4.76183Z" fill="white" fill-opacity="0.99"/>
</svg>
