<svg width="134" height="16" viewBox="0 0 134 16" fill="none" xmlns="http://www.w3.org/2000/svg">
<path d="M42.5463 5.63735C42.5332 5.52284 42.4979 5.41221 42.4424 5.31207C42.387 5.21193 42.3126 5.12432 42.2236 5.05447C40.5142 3.71383 38.4237 2.99174 36.276 3.00007C34.1282 2.99174 32.0378 3.71383 30.3284 5.05447C30.2394 5.12432 30.165 5.21193 30.1096 5.31207C30.0541 5.41221 30.0188 5.52284 30.0057 5.63735C29.9926 5.75159 30.0022 5.86739 30.034 5.97764C30.0659 6.08789 30.1192 6.19026 30.1909 6.27848L35.6301 13.0418C35.7087 13.1397 35.8074 13.2184 35.9191 13.2722C36.0308 13.326 36.1527 13.3536 36.276 13.3529C36.3989 13.3533 36.5204 13.3255 36.6317 13.2717C36.743 13.2179 36.8414 13.1394 36.9198 13.0418L42.359 6.27848C42.431 6.19044 42.4848 6.08814 42.517 5.97788C42.5492 5.86762 42.5591 5.75174 42.5463 5.63735ZM40.1002 7.73704C38.9899 6.90127 37.6507 6.45087 36.276 6.45087C34.9013 6.45087 33.5621 6.90127 32.4518 7.73704L30.8415 5.73603C32.4042 4.51315 34.3141 3.85484 36.276 3.86281C38.2379 3.85484 40.1478 4.51315 41.7105 5.73603L40.1002 7.73704Z" fill="#EFF1F5"/>
<path d="M68.8704 4.92573L65.9577 2.18912C65.53 1.78724 64.7967 2.06792 64.7967 2.63566V6.5779L62.1556 4.09645C62.0927 4.0374 62.0181 3.99055 61.936 3.95859C61.8538 3.92662 61.7658 3.91017 61.6769 3.91017C61.588 3.91017 61.5 3.92662 61.4179 3.95859C61.3357 3.99055 61.2611 4.0374 61.1983 4.09645C61.1354 4.15551 61.0855 4.22562 61.0515 4.30279C61.0175 4.37995 61 4.46265 61 4.54618C61 4.6297 61.0175 4.7124 61.0515 4.78956C61.0855 4.86673 61.1354 4.93684 61.1983 4.9959L64.5183 8.11524L61.1983 11.2346C61.1354 11.2936 61.0855 11.3638 61.0515 11.4409C61.0175 11.5181 61 11.6008 61 11.6843C61 11.7678 61.0175 11.8505 61.0515 11.9277C61.0855 12.0049 61.1354 12.075 61.1983 12.134C61.2611 12.1931 61.3357 12.2399 61.4179 12.2719C61.5 12.3039 61.588 12.3203 61.6769 12.3203C61.7658 12.3203 61.8538 12.3039 61.936 12.2719C62.0181 12.2399 62.0927 12.1931 62.1556 12.134L64.7967 9.65259V13.5948C64.7967 14.1626 65.53 14.4496 65.9577 14.0477L68.8704 11.3048C68.9333 11.2457 68.9832 11.1756 69.0173 11.0985C69.0514 11.0213 69.0689 10.9386 69.0689 10.855C69.0689 10.7715 69.0514 10.6888 69.0173 10.6116C68.9832 10.5344 68.9333 10.4643 68.8704 10.4053L66.433 8.11524L68.8704 5.83155C69.1352 5.58277 69.1352 5.17451 68.8704 4.92573ZM66.1546 4.17938L67.431 5.37864L66.1546 6.5779V4.17938ZM67.431 10.8518L66.1546 12.0511V9.65259L67.431 10.8518Z" fill="#EFF1F5"/>
<path d="M126.172 10.5C127.163 10.5 127.965 9.60457 127.965 8.5C127.965 7.39543 127.163 6.5 126.172 6.5C125.182 6.5 124.379 7.39543 124.379 8.5C124.379 9.60457 125.182 10.5 126.172 10.5Z" fill="#EFF1F5"/>
<path d="M131.776 4.5H129.45C129.366 4.5 129.262 4.43938 129.181 4.34375L128.417 3.00625C128.106 2.5 127.966 2.5 127.461 2.5H124.884C124.379 2.5 124.211 2.5 123.929 3.00656L123.164 4.34375C123.102 4.41937 123.014 4.5 122.922 4.5V4C122.922 3.9337 122.899 3.87011 122.857 3.82322C122.815 3.77634 122.758 3.75 122.698 3.75H121.578C121.518 3.75 121.461 3.77634 121.419 3.82322C121.377 3.87011 121.354 3.9337 121.354 4V4.5H120.569C120.391 4.5 120.22 4.57902 120.094 4.71967C119.967 4.86032 119.897 5.05109 119.897 5.25V12.75C119.897 12.9489 119.967 13.1397 120.094 13.2803C120.22 13.421 120.391 13.5 120.569 13.5H131.776C131.954 13.5 132.125 13.421 132.251 13.2803C132.377 13.1397 132.448 12.9489 132.448 12.75V5.25C132.448 5.05109 132.377 4.86032 132.251 4.71967C132.125 4.57902 131.954 4.5 131.776 4.5ZM126.299 11.4969C125.757 11.5253 125.22 11.3701 124.758 11.0517C124.296 10.7333 123.932 10.2666 123.713 9.71295C123.493 9.15928 123.429 8.54453 123.529 7.94947C123.628 7.35442 123.887 6.8069 124.271 6.37886C124.655 5.95082 125.145 5.66228 125.679 5.55116C126.212 5.44004 126.764 5.51153 127.26 5.75624C127.756 6.00096 128.175 6.40744 128.46 6.92229C128.746 7.43714 128.885 8.03626 128.859 8.64094C128.827 9.38682 128.547 10.0926 128.074 10.6206C127.6 11.1487 126.968 11.4611 126.299 11.4969Z" fill="#EFF1F5"/>
<g clip-path="url(#clip0_962_20)">
<path d="M96.0547 11.5211C95.9515 11.5223 95.8507 11.4936 95.7676 11.4394C95.6846 11.3853 95.624 11.3086 95.5951 11.2212C95.5662 11.1337 95.5705 11.0403 95.6075 10.9553C95.6444 10.8702 95.712 10.7982 95.7997 10.7502C96.2294 10.5136 96.5823 10.1828 96.824 9.78999C97.0658 9.39723 97.1881 8.95592 97.179 8.50906C97.17 8.06219 97.0299 7.62501 96.7725 7.24011C96.515 6.8552 96.149 6.5357 95.71 6.31272C95.6536 6.28668 95.6037 6.25082 95.5634 6.20733C95.523 6.16383 95.4931 6.11358 95.4754 6.05961C95.4576 6.00564 95.4524 5.94906 95.4601 5.89328C95.4678 5.83749 95.4882 5.78366 95.5201 5.735C95.5519 5.68635 95.5946 5.64389 95.6456 5.61018C95.6965 5.57646 95.7547 5.55219 95.8165 5.53882C95.8784 5.52545 95.9427 5.52326 96.0055 5.53238C96.0684 5.5415 96.1285 5.56174 96.1822 5.59189C96.7602 5.8876 97.2417 6.31007 97.5802 6.81833C97.9186 7.3266 98.1024 7.90341 98.1138 8.49282C98.1252 9.08223 97.9638 9.66424 97.6452 10.1824C97.3267 10.7006 96.8617 11.1373 96.2956 11.4502C96.2241 11.4928 96.1408 11.5173 96.0547 11.5211Z" fill="#EFF1F5" fill-opacity="0.39"/>
<path d="M97.0983 13.9918C96.9925 13.9912 96.8901 13.9594 96.8073 13.9013C96.7245 13.8433 96.6662 13.7624 96.6417 13.6716C96.6172 13.5808 96.6279 13.4855 96.6722 13.4007C96.7165 13.316 96.7917 13.2468 96.8858 13.2043C97.8764 12.7736 98.7094 12.1052 99.2891 11.2759C99.8689 10.4465 100.172 9.48978 100.164 8.51538C100.155 7.54098 99.8357 6.5884 99.2418 5.76691C98.6478 4.94543 97.8034 4.28831 96.8055 3.87093C96.7479 3.8481 96.6961 3.81532 96.6532 3.77452C96.6102 3.73372 96.5769 3.68574 96.5553 3.6334C96.5337 3.58107 96.5243 3.52545 96.5275 3.46983C96.5306 3.4142 96.5464 3.35971 96.5739 3.30957C96.6014 3.25942 96.64 3.21465 96.6874 3.17788C96.7348 3.14112 96.7901 3.11312 96.85 3.09553C96.9099 3.07795 96.9731 3.07114 97.0361 3.0755C97.099 3.07986 97.1603 3.09531 97.2163 3.12093C98.3755 3.60377 99.3569 4.36511 100.048 5.31763C100.739 6.27015 101.112 7.37527 101.124 8.50623C101.136 9.6372 100.786 10.7482 100.115 11.7118C99.4438 12.6754 98.4785 13.4526 97.3297 13.9543C97.2574 13.9838 97.1778 13.9967 97.0983 13.9918Z" fill="#EFF1F5" fill-opacity="0.39"/>
<path d="M93.6559 2.66652L89.2831 5.99986H86.4498C86.3245 5.99986 86.2044 6.04376 86.1158 6.1219C86.0273 6.20004 85.9775 6.30602 85.9775 6.41652V10.5499C85.9775 10.6604 86.0273 10.7663 86.1158 10.8445C86.2044 10.9226 86.3245 10.9665 86.4498 10.9665H89.1934L93.6606 14.3999C93.7282 14.4523 93.8113 14.4866 93.9002 14.4987C93.9891 14.5108 94.0801 14.5003 94.1625 14.4683C94.2448 14.4364 94.3151 14.3843 94.3651 14.3183C94.415 14.2523 94.4426 14.1751 94.4445 14.0957V2.96652C94.4425 2.88672 94.4145 2.80911 94.364 2.74291C94.3134 2.67672 94.2424 2.62473 94.1593 2.59313C94.0763 2.56153 93.9847 2.55164 93.8954 2.56466C93.8061 2.57767 93.723 2.61302 93.6559 2.66652Z" fill="#EFF1F5"/>
</g>
<path d="M3.32402 3.14286V2H6.67598V3.14286H3.32402ZM3.88268 9.85714L3.26816 8.6C3.2216 8.49524 3.15177 8.41657 3.05866 8.364C2.96555 8.31143 2.86778 8.28533 2.76536 8.28571H0C0.139665 7 0.684357 5.91657 1.63408 5.03543C2.5838 4.15429 3.70577 3.7139 5 3.71429C5.57728 3.71429 6.13128 3.80952 6.66201 4C7.19274 4.19048 7.69087 4.46667 8.15642 4.82857L8.93855 4.02857L9.72067 4.82857L8.93855 5.62857C9.2365 6.02857 9.47393 6.4501 9.65084 6.89314C9.82775 7.33619 9.94413 7.80038 10 8.28571H7.5838L6.62011 6.31429C6.51769 6.09524 6.35009 5.98571 6.11732 5.98571C5.88454 5.98571 5.71695 6.09524 5.61452 6.31429L3.88268 9.85714ZM5 14C3.70577 14 2.5838 13.5594 1.63408 12.6783C0.684357 11.7971 0.139665 10.7139 0 9.42857H2.4162L3.37989 11.4C3.48231 11.619 3.64991 11.7286 3.88268 11.7286C4.11546 11.7286 4.28305 11.619 4.38547 11.4L6.11732 7.85714L6.73184 9.11429C6.7784 9.21905 6.84823 9.29771 6.94134 9.35029C7.03445 9.40286 7.13222 9.42895 7.23464 9.42857H10C9.86034 10.7143 9.31564 11.7975 8.36592 12.6783C7.4162 13.559 6.29423 13.9996 5 14Z" fill="#EFF1F5"/>
<defs>
<clipPath id="clip0_962_20">
<rect width="17" height="15" fill="white" transform="translate(85 1)"/>
</clipPath>
</defs>
</svg>
