<svg width="21" height="23" viewBox="0 0 21 23" fill="none" xmlns="http://www.w3.org/2000/svg">
<path d="M20.7643 0.969971V17.35C20.7641 18.3802 20.4476 19.3815 19.8639 20.1987C19.2802 21.0158 18.4619 21.6032 17.5359 21.8697C16.6099 22.1361 15.628 22.0668 14.7425 21.6724C13.8569 21.2781 13.1171 20.5807 12.6379 19.6885C12.1587 18.7962 11.9669 17.759 12.0921 16.7377C12.2173 15.7163 12.6525 14.7679 13.3304 14.0395C14.0083 13.3111 14.8908 12.8434 15.8412 12.7089C16.7916 12.5745 17.7567 12.7808 18.5869 13.2959V4.47997H8.78867V17.35C8.78846 18.3802 8.47196 19.3815 7.88825 20.1987C7.30455 21.0158 6.48626 21.6032 5.56029 21.8697C4.63432 22.1361 3.65241 22.0668 2.76683 21.6724C1.88126 21.2781 1.14151 20.5807 0.662308 19.6885C0.183104 18.7962 -0.00877496 17.759 0.116427 16.7377C0.241628 15.7163 0.676914 14.7679 1.35478 14.0395C2.03265 13.3111 2.91521 12.8434 3.86561 12.7089C4.816 12.5745 5.78112 12.7808 6.61128 13.2959V0.969971H20.7643Z" fill="#F8F8F8"/>
</svg>
