<svg width="31" height="15" viewBox="0 0 31 15" fill="none" xmlns="http://www.w3.org/2000/svg">
<path d="M29.4121 5.48415V9.10494M9.09146 13.3292H5.02733C4.16503 13.3292 3.33805 13.0749 2.72832 12.6222C2.11858 12.1695 1.77603 11.5555 1.77603 10.9153V3.67375C1.77603 3.03355 2.11858 2.41958 2.72832 1.96689C3.33805 1.5142 4.16503 1.25989 5.02733 1.25989H5.84016M20.471 13.3292H21.2838C22.1461 13.3292 22.9731 13.0749 23.5829 12.6222C24.1926 12.1695 24.5351 11.5555 24.5351 10.9153V3.67375C24.5351 3.03355 24.1926 2.41958 23.5829 1.96689C22.9731 1.5142 22.1461 1.25989 21.2838 1.25989H17.2197M11.5299 1.25989L9.90429 7.89801L16.4069 6.69108L14.7812 13.3292" stroke="#F8F8F8" stroke-width="2" stroke-linecap="round" stroke-linejoin="round"/>
</svg>
