<svg width="557" height="367" viewBox="0 0 557 367" fill="none" xmlns="http://www.w3.org/2000/svg">
<rect x="138" width="266" height="50" rx="10" fill="#282B30"/>
<rect x="138.5" y="0.5" width="265" height="49" rx="9.5" stroke="#D9D9D9" stroke-opacity="0.08"/>
<rect x="55" y="76" width="259" height="52" rx="10" fill="#282B30"/>
<rect x="55.5" y="76.5" width="258" height="51" rx="9.5" stroke="#D9D9D9" stroke-opacity="0.08"/>
<rect x="243" y="147" width="259" height="52" rx="10" fill="#282B30"/>
<rect x="243.5" y="147.5" width="258" height="51" rx="9.5" stroke="#D9D9D9" stroke-opacity="0.08"/>
<rect x="149" y="8" width="115" height="15" rx="5" fill="#36393E" fill-opacity="0.75"/>
<rect x="232" y="30" width="115" height="14" rx="5" fill="#36393E" fill-opacity="0.84"/>
<rect x="180" y="30" width="41" height="14" rx="5" fill="#295BF3"/>
<rect x="269" y="8" width="93" height="15" rx="5" fill="#295BF3"/>
<rect x="370" y="8" width="19" height="15" rx="5" fill="#34373C"/>
<rect x="352" y="30" width="24" height="14" rx="5" fill="#36393E" fill-opacity="0.84"/>
<rect x="65" y="84" width="50" height="14" rx="5" fill="#4169E1"/>
<rect x="120" y="84" width="158" height="14" rx="5" fill="#36393E" fill-opacity="0.84"/>
<rect x="71" y="105" width="106" height="14" rx="5" fill="#36393E" fill-opacity="0.84"/>
<rect x="184" y="105" width="106" height="14" rx="5" fill="#4169E1"/>
<rect x="283" y="84" width="16" height="14" rx="5" fill="#295BF3"/>
<rect x="253" y="154" width="37" height="14" rx="5" fill="#36393E" fill-opacity="0.84"/>
<rect x="297" y="154" width="86" height="14" rx="5" fill="#4169E1"/>
<rect x="390" y="154" width="87" height="14" rx="5" fill="#36393E" fill-opacity="0.84"/>
<rect x="270" y="175" width="100" height="14" rx="5" fill="#36393E" fill-opacity="0.84"/>
<rect x="377" y="175" width="114" height="14" rx="5" fill="#4169E1"/>
<path d="M180.196 252.22C179.023 252.22 177.93 252.029 176.918 251.648C175.921 251.252 175.048 250.702 174.3 249.998C173.567 249.279 172.995 248.436 172.584 247.468C172.173 246.5 171.968 245.444 171.968 244.3C171.968 243.156 172.173 242.1 172.584 241.132C172.995 240.164 173.574 239.328 174.322 238.624C175.07 237.905 175.943 237.355 176.94 236.974C177.937 236.578 179.03 236.38 180.218 236.38C181.479 236.38 182.631 236.6 183.672 237.04C184.713 237.465 185.593 238.103 186.312 238.954L184.464 240.692C183.907 240.091 183.283 239.643 182.594 239.35C181.905 239.042 181.157 238.888 180.35 238.888C179.543 238.888 178.803 239.02 178.128 239.284C177.468 239.548 176.889 239.922 176.39 240.406C175.906 240.89 175.525 241.462 175.246 242.122C174.982 242.782 174.85 243.508 174.85 244.3C174.85 245.092 174.982 245.818 175.246 246.478C175.525 247.138 175.906 247.71 176.39 248.194C176.889 248.678 177.468 249.052 178.128 249.316C178.803 249.58 179.543 249.712 180.35 249.712C181.157 249.712 181.905 249.565 182.594 249.272C183.283 248.964 183.907 248.502 184.464 247.886L186.312 249.646C185.593 250.482 184.713 251.12 183.672 251.56C182.631 252 181.472 252.22 180.196 252.22ZM195.454 240.12C196.393 240.12 197.229 240.303 197.962 240.67C198.71 241.037 199.297 241.601 199.722 242.364C200.148 243.112 200.36 244.08 200.36 245.268V252H197.61V245.62C197.61 244.579 197.361 243.801 196.862 243.288C196.378 242.775 195.696 242.518 194.816 242.518C194.171 242.518 193.599 242.65 193.1 242.914C192.602 243.178 192.213 243.574 191.934 244.102C191.67 244.615 191.538 245.268 191.538 246.06V252H188.788V235.676H191.538V243.42L190.944 242.452C191.355 241.704 191.949 241.132 192.726 240.736C193.518 240.325 194.428 240.12 195.454 240.12ZM209.392 252.154C208.087 252.154 206.943 251.897 205.96 251.384C204.992 250.856 204.237 250.137 203.694 249.228C203.166 248.319 202.902 247.285 202.902 246.126C202.902 244.953 203.159 243.919 203.672 243.024C204.2 242.115 204.919 241.403 205.828 240.89C206.752 240.377 207.801 240.12 208.974 240.12C210.118 240.12 211.138 240.369 212.032 240.868C212.927 241.367 213.631 242.071 214.144 242.98C214.658 243.889 214.914 244.96 214.914 246.192C214.914 246.309 214.907 246.441 214.892 246.588C214.892 246.735 214.885 246.874 214.87 247.006H205.08V245.18H213.418L212.34 245.752C212.355 245.077 212.216 244.483 211.922 243.97C211.629 243.457 211.226 243.053 210.712 242.76C210.214 242.467 209.634 242.32 208.974 242.32C208.3 242.32 207.706 242.467 207.192 242.76C206.694 243.053 206.298 243.464 206.004 243.992C205.726 244.505 205.586 245.114 205.586 245.818V246.258C205.586 246.962 205.748 247.585 206.07 248.128C206.393 248.671 206.848 249.089 207.434 249.382C208.021 249.675 208.696 249.822 209.458 249.822C210.118 249.822 210.712 249.719 211.24 249.514C211.768 249.309 212.238 248.986 212.648 248.546L214.122 250.24C213.594 250.856 212.927 251.333 212.12 251.67C211.328 251.993 210.419 252.154 209.392 252.154ZM204.706 238.646L207.676 236.292H210.14L213.11 238.646H210.822L207.874 236.776H209.942L206.994 238.646H204.706ZM211.306 236.622L213.814 234.048H216.762L213.418 236.622H211.306ZM228.608 252.154C227.479 252.154 226.459 251.905 225.55 251.406C224.655 250.893 223.951 250.189 223.438 249.294C222.925 248.399 222.668 247.343 222.668 246.126C222.668 244.909 222.925 243.853 223.438 242.958C223.951 242.063 224.655 241.367 225.55 240.868C226.459 240.369 227.479 240.12 228.608 240.12C229.591 240.12 230.471 240.34 231.248 240.78C232.025 241.205 232.641 241.858 233.096 242.738C233.551 243.618 233.778 244.747 233.778 246.126C233.778 247.49 233.558 248.619 233.118 249.514C232.678 250.394 232.069 251.054 231.292 251.494C230.515 251.934 229.62 252.154 228.608 252.154ZM228.938 249.8C229.598 249.8 230.185 249.653 230.698 249.36C231.226 249.067 231.644 248.641 231.952 248.084C232.275 247.527 232.436 246.874 232.436 246.126C232.436 245.363 232.275 244.711 231.952 244.168C231.644 243.611 231.226 243.185 230.698 242.892C230.185 242.599 229.598 242.452 228.938 242.452C228.278 242.452 227.684 242.599 227.156 242.892C226.643 243.185 226.225 243.611 225.902 244.168C225.594 244.711 225.44 245.363 225.44 246.126C225.44 246.874 225.594 247.527 225.902 248.084C226.225 248.641 226.643 249.067 227.156 249.36C227.684 249.653 228.278 249.8 228.938 249.8ZM232.502 252V249.228L232.612 246.104L232.392 242.98V235.676H235.12V252H232.502ZM228.058 238.91V237.106H236.946V238.91H228.058ZM244.02 252.154C242.817 252.154 241.746 251.897 240.808 251.384C239.869 250.856 239.128 250.137 238.586 249.228C238.043 248.319 237.772 247.285 237.772 246.126C237.772 244.953 238.043 243.919 238.586 243.024C239.128 242.115 239.869 241.403 240.808 240.89C241.746 240.377 242.817 240.12 244.02 240.12C245.237 240.12 246.315 240.377 247.254 240.89C248.207 241.403 248.948 242.107 249.476 243.002C250.018 243.897 250.29 244.938 250.29 246.126C250.29 247.285 250.018 248.319 249.476 249.228C248.948 250.137 248.207 250.856 247.254 251.384C246.315 251.897 245.237 252.154 244.02 252.154ZM244.02 249.8C244.694 249.8 245.296 249.653 245.824 249.36C246.352 249.067 246.762 248.641 247.056 248.084C247.364 247.527 247.518 246.874 247.518 246.126C247.518 245.363 247.364 244.711 247.056 244.168C246.762 243.611 246.352 243.185 245.824 242.892C245.296 242.599 244.702 242.452 244.042 242.452C243.367 242.452 242.766 242.599 242.238 242.892C241.724 243.185 241.314 243.611 241.006 244.168C240.698 244.711 240.544 245.363 240.544 246.126C240.544 246.874 240.698 247.527 241.006 248.084C241.314 248.641 241.724 249.067 242.238 249.36C242.766 249.653 243.36 249.8 244.02 249.8ZM243.998 256.466C243.631 256.466 243.316 256.349 243.052 256.114C242.802 255.879 242.678 255.564 242.678 255.168C242.678 254.772 242.802 254.449 243.052 254.2C243.316 253.951 243.631 253.826 243.998 253.826C244.364 253.826 244.672 253.951 244.922 254.2C245.186 254.449 245.318 254.772 245.318 255.168C245.318 255.564 245.186 255.879 244.922 256.114C244.672 256.349 244.364 256.466 243.998 256.466ZM239.796 238.646L242.744 235.632H245.252L248.2 238.646H245.934L242.942 236.116H245.054L242.062 238.646H239.796ZM263.421 252.154C262.131 252.154 261.133 251.824 260.429 251.164C259.725 250.489 259.373 249.499 259.373 248.194V237.656H262.123V248.128C262.123 248.685 262.263 249.118 262.541 249.426C262.835 249.734 263.238 249.888 263.751 249.888C264.367 249.888 264.881 249.727 265.291 249.404L266.061 251.362C265.739 251.626 265.343 251.824 264.873 251.956C264.404 252.088 263.92 252.154 263.421 252.154ZM257.437 242.54V240.34H265.269V242.54H257.437ZM274.99 240.12C275.928 240.12 276.764 240.303 277.498 240.67C278.246 241.037 278.832 241.601 279.258 242.364C279.683 243.112 279.896 244.08 279.896 245.268V252H277.146V245.62C277.146 244.579 276.896 243.801 276.398 243.288C275.914 242.775 275.232 242.518 274.352 242.518C273.706 242.518 273.134 242.65 272.636 242.914C272.137 243.178 271.748 243.574 271.47 244.102C271.206 244.615 271.074 245.268 271.074 246.06V252H268.324V235.676H271.074V243.42L270.48 242.452C270.89 241.704 271.484 241.132 272.262 240.736C273.054 240.325 273.963 240.12 274.99 240.12ZM283.384 252V240.252H286.134V252H283.384ZM284.77 238.316C284.257 238.316 283.831 238.155 283.494 237.832C283.171 237.509 283.01 237.121 283.01 236.666C283.01 236.197 283.171 235.808 283.494 235.5C283.831 235.177 284.257 235.016 284.77 235.016C285.283 235.016 285.701 235.17 286.024 235.478C286.361 235.771 286.53 236.145 286.53 236.6C286.53 237.084 286.369 237.495 286.046 237.832C285.723 238.155 285.298 238.316 284.77 238.316ZM295.824 252V235.676H298.574V252H295.824ZM309.421 252V249.624L309.267 249.118V244.96C309.267 244.153 309.025 243.53 308.541 243.09C308.057 242.635 307.324 242.408 306.341 242.408C305.681 242.408 305.028 242.511 304.383 242.716C303.752 242.921 303.217 243.207 302.777 243.574L301.699 241.572C302.33 241.088 303.078 240.729 303.943 240.494C304.823 240.245 305.732 240.12 306.671 240.12C308.372 240.12 309.685 240.531 310.609 241.352C311.548 242.159 312.017 243.413 312.017 245.114V252H309.421ZM305.725 252.154C304.845 252.154 304.075 252.007 303.415 251.714C302.755 251.406 302.242 250.988 301.875 250.46C301.523 249.917 301.347 249.309 301.347 248.634C301.347 247.974 301.501 247.38 301.809 246.852C302.132 246.324 302.652 245.906 303.371 245.598C304.09 245.29 305.043 245.136 306.231 245.136H309.641V246.962H306.429C305.49 246.962 304.86 247.116 304.537 247.424C304.214 247.717 304.053 248.084 304.053 248.524C304.053 249.023 304.251 249.419 304.647 249.712C305.043 250.005 305.593 250.152 306.297 250.152C306.972 250.152 307.573 249.998 308.101 249.69C308.644 249.382 309.032 248.927 309.267 248.326L309.729 249.976C309.465 250.665 308.988 251.201 308.299 251.582C307.624 251.963 306.766 252.154 305.725 252.154ZM306.385 238.646L302.557 235.632H305.791L308.761 238.646H306.385ZM326.95 256.422C325.865 256.422 324.802 256.275 323.76 255.982C322.734 255.703 321.89 255.293 321.23 254.75L322.462 252.682C322.976 253.107 323.621 253.445 324.398 253.694C325.19 253.958 325.99 254.09 326.796 254.09C328.087 254.09 329.033 253.789 329.634 253.188C330.236 252.601 330.536 251.714 330.536 250.526V248.436L330.756 245.774L330.668 243.112V240.252H333.286V250.218C333.286 252.345 332.744 253.907 331.658 254.904C330.573 255.916 329.004 256.422 326.95 256.422ZM326.598 251.472C325.484 251.472 324.472 251.237 323.562 250.768C322.668 250.284 321.956 249.617 321.428 248.766C320.915 247.915 320.658 246.918 320.658 245.774C320.658 244.645 320.915 243.655 321.428 242.804C321.956 241.953 322.668 241.293 323.562 240.824C324.472 240.355 325.484 240.12 326.598 240.12C327.596 240.12 328.49 240.318 329.282 240.714C330.074 241.11 330.705 241.726 331.174 242.562C331.658 243.398 331.9 244.469 331.9 245.774C331.9 247.079 331.658 248.157 331.174 249.008C330.705 249.844 330.074 250.467 329.282 250.878C328.49 251.274 327.596 251.472 326.598 251.472ZM327.016 249.14C327.706 249.14 328.322 249.001 328.864 248.722C329.407 248.429 329.825 248.033 330.118 247.534C330.426 247.021 330.58 246.434 330.58 245.774C330.58 245.114 330.426 244.535 330.118 244.036C329.825 243.523 329.407 243.134 328.864 242.87C328.322 242.591 327.706 242.452 327.016 242.452C326.327 242.452 325.704 242.591 325.146 242.87C324.604 243.134 324.178 243.523 323.87 244.036C323.577 244.535 323.43 245.114 323.43 245.774C323.43 246.434 323.577 247.021 323.87 247.534C324.178 248.033 324.604 248.429 325.146 248.722C325.704 249.001 326.327 249.14 327.016 249.14ZM336.902 252V240.252H339.652V252H336.902ZM337.76 238.646L333.932 235.632H337.166L340.136 238.646H337.76ZM346.771 246.896C346.771 246.353 346.859 245.877 347.035 245.466C347.211 245.055 347.438 244.689 347.717 244.366C347.995 244.043 348.289 243.743 348.597 243.464C348.919 243.185 349.22 242.914 349.499 242.65C349.777 242.386 350.005 242.107 350.181 241.814C350.357 241.521 350.445 241.191 350.445 240.824C350.445 240.208 350.195 239.709 349.697 239.328C349.198 238.947 348.531 238.756 347.695 238.756C346.888 238.756 346.184 238.903 345.583 239.196C344.996 239.489 344.505 239.907 344.109 240.45L341.975 239.064C342.591 238.228 343.397 237.575 344.395 237.106C345.392 236.622 346.573 236.38 347.937 236.38C349.007 236.38 349.946 236.541 350.753 236.864C351.559 237.172 352.19 237.627 352.645 238.228C353.099 238.815 353.327 239.533 353.327 240.384C353.327 240.971 353.231 241.484 353.041 241.924C352.865 242.364 352.63 242.753 352.337 243.09C352.058 243.413 351.757 243.721 351.435 244.014C351.112 244.293 350.804 244.571 350.511 244.85C350.232 245.129 350.005 245.429 349.829 245.752C349.653 246.075 349.565 246.456 349.565 246.896H346.771ZM348.179 252.154C347.665 252.154 347.24 251.985 346.903 251.648C346.58 251.311 346.419 250.907 346.419 250.438C346.419 249.969 346.58 249.573 346.903 249.25C347.24 248.913 347.665 248.744 348.179 248.744C348.692 248.744 349.11 248.913 349.433 249.25C349.755 249.573 349.917 249.969 349.917 250.438C349.917 250.907 349.755 251.311 349.433 251.648C349.11 251.985 348.692 252.154 348.179 252.154ZM356.543 246.896L356.014 236.6H359.271L358.721 246.896H356.543ZM357.643 252.154C357.129 252.154 356.704 251.985 356.367 251.648C356.029 251.311 355.861 250.907 355.861 250.438C355.861 249.969 356.029 249.573 356.367 249.25C356.704 248.913 357.129 248.744 357.643 248.744C358.156 248.744 358.574 248.913 358.897 249.25C359.219 249.573 359.381 249.969 359.381 250.438C359.381 250.907 359.219 251.311 358.897 251.648C358.574 251.985 358.156 252.154 357.643 252.154Z" fill="white" fill-opacity="0.8"/>
<path d="M9.96098 284V273.5H14.491C15.661 273.5 16.566 273.735 17.206 274.205C17.856 274.675 18.181 275.34 18.181 276.2C18.181 276.77 18.046 277.25 17.776 277.64C17.516 278.03 17.156 278.325 16.696 278.525C16.246 278.725 15.751 278.825 15.211 278.825L15.466 278.465C16.136 278.465 16.711 278.57 17.191 278.78C17.681 278.98 18.061 279.285 18.331 279.695C18.601 280.095 18.736 280.595 18.736 281.195C18.736 282.085 18.406 282.775 17.746 283.265C17.096 283.755 16.111 284 14.791 284H9.96098ZM11.071 283.085H14.776C15.696 283.085 16.401 282.93 16.891 282.62C17.381 282.3 17.626 281.795 17.626 281.105C17.626 280.425 17.381 279.93 16.891 279.62C16.401 279.3 15.696 279.14 14.776 279.14H10.951V278.225H14.416C15.256 278.225 15.906 278.065 16.366 277.745C16.836 277.425 17.071 276.95 17.071 276.32C17.071 275.68 16.836 275.205 16.366 274.895C15.906 274.575 15.256 274.415 14.416 274.415H11.071V283.085ZM25.9796 284V282.26L25.9346 281.975V279.065C25.9346 278.395 25.7446 277.88 25.3646 277.52C24.9946 277.16 24.4396 276.98 23.6996 276.98C23.1896 276.98 22.7046 277.065 22.2446 277.235C21.7846 277.405 21.3946 277.63 21.0746 277.91L20.5946 277.115C20.9946 276.775 21.4746 276.515 22.0346 276.335C22.5946 276.145 23.1846 276.05 23.8046 276.05C24.8246 276.05 25.6096 276.305 26.1596 276.815C26.7196 277.315 26.9996 278.08 26.9996 279.11V284H25.9796ZM23.2646 284.075C22.6746 284.075 22.1596 283.98 21.7196 283.79C21.2896 283.59 20.9596 283.32 20.7296 282.98C20.4996 282.63 20.3846 282.23 20.3846 281.78C20.3846 281.37 20.4796 281 20.6696 280.67C20.8696 280.33 21.1896 280.06 21.6296 279.86C22.0796 279.65 22.6796 279.545 23.4296 279.545H26.1446V280.34H23.4596C22.6996 280.34 22.1696 280.475 21.8696 280.745C21.5796 281.015 21.4346 281.35 21.4346 281.75C21.4346 282.2 21.6096 282.56 21.9596 282.83C22.3096 283.1 22.7996 283.235 23.4296 283.235C24.0296 283.235 24.5446 283.1 24.9746 282.83C25.4146 282.55 25.7346 282.15 25.9346 281.63L26.1746 282.365C25.9746 282.885 25.6246 283.3 25.1246 283.61C24.6346 283.92 24.0146 284.075 23.2646 284.075ZM23.8346 274.97C23.2146 274.97 22.6946 274.84 22.2746 274.58C21.8546 274.32 21.6146 273.955 21.5546 273.485H22.2896C22.3396 273.755 22.5046 273.965 22.7846 274.115C23.0646 274.265 23.4146 274.34 23.8346 274.34C24.2546 274.34 24.6046 274.265 24.8846 274.115C25.1646 273.965 25.3296 273.755 25.3796 273.485H26.1146C26.0546 273.955 25.8146 274.32 25.3946 274.58C24.9746 274.84 24.4546 274.97 23.8346 274.97ZM22.9196 273.185L24.7346 271.565H26.0246L23.8646 273.185H22.9196ZM32.3822 284.075C31.6422 284.075 31.0722 283.875 30.6722 283.475C30.2722 283.075 30.0722 282.51 30.0722 281.78V274.385H31.1372V281.72C31.1372 282.18 31.2522 282.535 31.4822 282.785C31.7222 283.035 32.0622 283.16 32.5022 283.16C32.9722 283.16 33.3622 283.025 33.6722 282.755L34.0472 283.52C33.8372 283.71 33.5822 283.85 33.2822 283.94C32.9922 284.03 32.6922 284.075 32.3822 284.075ZM28.6622 277.01V276.125H33.5372V277.01H28.6622ZM43.0468 284.075C42.2968 284.075 41.6218 283.905 41.0218 283.565C40.4318 283.225 39.9668 282.755 39.6268 282.155C39.2868 281.545 39.1168 280.845 39.1168 280.055C39.1168 279.255 39.2868 278.555 39.6268 277.955C39.9668 277.355 40.4318 276.89 41.0218 276.56C41.6218 276.22 42.2968 276.05 43.0468 276.05C43.7368 276.05 44.3518 276.205 44.8918 276.515C45.4418 276.825 45.8768 277.28 46.1968 277.88C46.5268 278.47 46.6918 279.195 46.6918 280.055C46.6918 280.905 46.5318 281.63 46.2118 282.23C45.8918 282.83 45.4568 283.29 44.9068 283.61C44.3668 283.92 43.7468 284.075 43.0468 284.075ZM43.1218 283.13C43.6818 283.13 44.1818 283.005 44.6218 282.755C45.0718 282.495 45.4218 282.135 45.6718 281.675C45.9318 281.205 46.0618 280.665 46.0618 280.055C46.0618 279.435 45.9318 278.895 45.6718 278.435C45.4218 277.975 45.0718 277.62 44.6218 277.37C44.1818 277.11 43.6818 276.98 43.1218 276.98C42.5718 276.98 42.0768 277.11 41.6368 277.37C41.1968 277.62 40.8468 277.975 40.5868 278.435C40.3268 278.895 40.1968 279.435 40.1968 280.055C40.1968 280.665 40.3268 281.205 40.5868 281.675C40.8468 282.135 41.1968 282.495 41.6368 282.755C42.0768 283.005 42.5718 283.13 43.1218 283.13ZM46.0918 284V281.63L46.1968 280.04L46.0468 278.45V272.87H47.1118V284H46.0918ZM42.7468 274.895V274.115H48.5968V274.895H42.7468ZM55.0128 284V282.26L54.9678 281.975V279.065C54.9678 278.395 54.7778 277.88 54.3978 277.52C54.0278 277.16 53.4728 276.98 52.7328 276.98C52.2228 276.98 51.7378 277.065 51.2778 277.235C50.8178 277.405 50.4278 277.63 50.1078 277.91L49.6278 277.115C50.0278 276.775 50.5078 276.515 51.0678 276.335C51.6278 276.145 52.2178 276.05 52.8378 276.05C53.8578 276.05 54.6428 276.305 55.1928 276.815C55.7528 277.315 56.0328 278.08 56.0328 279.11V284H55.0128ZM52.2978 284.075C51.7078 284.075 51.1928 283.98 50.7528 283.79C50.3228 283.59 49.9928 283.32 49.7628 282.98C49.5328 282.63 49.4178 282.23 49.4178 281.78C49.4178 281.37 49.5128 281 49.7028 280.67C49.9028 280.33 50.2228 280.06 50.6628 279.86C51.1128 279.65 51.7128 279.545 52.4628 279.545H55.1778V280.34H52.4928C51.7328 280.34 51.2028 280.475 50.9028 280.745C50.6128 281.015 50.4678 281.35 50.4678 281.75C50.4678 282.2 50.6428 282.56 50.9928 282.83C51.3428 283.1 51.8328 283.235 52.4628 283.235C53.0628 283.235 53.5778 283.1 54.0078 282.83C54.4478 282.55 54.7678 282.15 54.9678 281.63L55.2078 282.365C55.0078 282.885 54.6578 283.3 54.1578 283.61C53.6678 283.92 53.0478 284.075 52.2978 284.075ZM50.3928 274.895L52.3428 273.485H53.3928L55.3428 274.895H54.3228L52.4478 273.755H53.2878L51.4128 274.895H50.3928ZM55.1328 273.65L52.9578 272.03H54.2628L56.0628 273.65H55.1328ZM62.1804 284.075C61.5104 284.075 60.9254 283.95 60.4254 283.7C59.9254 283.45 59.5354 283.075 59.2554 282.575C58.9854 282.075 58.8504 281.45 58.8504 280.7V276.125H59.9154V280.58C59.9154 281.42 60.1204 282.055 60.5304 282.485C60.9504 282.905 61.5354 283.115 62.2854 283.115C62.8354 283.115 63.3104 283.005 63.7104 282.785C64.1204 282.555 64.4304 282.225 64.6404 281.795C64.8604 281.365 64.9704 280.85 64.9704 280.25V276.125H66.0354V284H65.0154V281.84L65.1804 282.23C64.9304 282.81 64.5404 283.265 64.0104 283.595C63.4904 283.915 62.8804 284.075 62.1804 284.075ZM76.1993 284.075C75.4193 284.075 74.7193 283.905 74.0993 283.565C73.4893 283.215 73.0093 282.74 72.6593 282.14C72.3093 281.53 72.1343 280.835 72.1343 280.055C72.1343 279.265 72.3093 278.57 72.6593 277.97C73.0093 277.37 73.4893 276.9 74.0993 276.56C74.7193 276.22 75.4193 276.05 76.1993 276.05C76.8693 276.05 77.4743 276.18 78.0143 276.44C78.5543 276.7 78.9793 277.09 79.2893 277.61L78.4943 278.15C78.2243 277.75 77.8893 277.455 77.4893 277.265C77.0893 277.075 76.6543 276.98 76.1843 276.98C75.6243 276.98 75.1193 277.11 74.6693 277.37C74.2193 277.62 73.8643 277.975 73.6043 278.435C73.3443 278.895 73.2143 279.435 73.2143 280.055C73.2143 280.675 73.3443 281.215 73.6043 281.675C73.8643 282.135 74.2193 282.495 74.6693 282.755C75.1193 283.005 75.6243 283.13 76.1843 283.13C76.6543 283.13 77.0893 283.035 77.4893 282.845C77.8893 282.655 78.2243 282.365 78.4943 281.975L79.2893 282.515C78.9793 283.025 78.5543 283.415 78.0143 283.685C77.4743 283.945 76.8693 284.075 76.1993 284.075ZM85.2843 276.05C85.9243 276.05 86.4843 276.175 86.9643 276.425C87.4543 276.665 87.8343 277.035 88.1043 277.535C88.3843 278.035 88.5243 278.665 88.5243 279.425V284H87.4593V279.53C87.4593 278.7 87.2493 278.075 86.8293 277.655C86.4193 277.225 85.8393 277.01 85.0893 277.01C84.5293 277.01 84.0393 277.125 83.6193 277.355C83.2093 277.575 82.8893 277.9 82.6593 278.33C82.4393 278.75 82.3293 279.26 82.3293 279.86V284H81.2643V272.87H82.3293V278.285L82.1193 277.88C82.3693 277.31 82.7693 276.865 83.3193 276.545C83.8693 276.215 84.5243 276.05 85.2843 276.05ZM94.746 284.075C93.926 284.075 93.206 283.905 92.586 283.565C91.966 283.215 91.481 282.74 91.131 282.14C90.781 281.53 90.606 280.835 90.606 280.055C90.606 279.275 90.771 278.585 91.101 277.985C91.441 277.385 91.901 276.915 92.481 276.575C93.071 276.225 93.731 276.05 94.461 276.05C95.201 276.05 95.856 276.22 96.426 276.56C97.006 276.89 97.461 277.36 97.791 277.97C98.121 278.57 98.286 279.265 98.286 280.055C98.286 280.105 98.281 280.16 98.271 280.22C98.271 280.27 98.271 280.325 98.271 280.385H91.416V279.59H97.701L97.281 279.905C97.281 279.335 97.156 278.83 96.906 278.39C96.666 277.94 96.336 277.59 95.916 277.34C95.496 277.09 95.011 276.965 94.461 276.965C93.921 276.965 93.436 277.09 93.006 277.34C92.576 277.59 92.241 277.94 92.001 278.39C91.761 278.84 91.641 279.355 91.641 279.935V280.1C91.641 280.7 91.771 281.23 92.031 281.69C92.301 282.14 92.671 282.495 93.141 282.755C93.621 283.005 94.166 283.13 94.776 283.13C95.256 283.13 95.701 283.045 96.111 282.875C96.531 282.705 96.891 282.445 97.191 282.095L97.791 282.785C97.441 283.205 97.001 283.525 96.471 283.745C95.951 283.965 95.376 284.075 94.746 284.075ZM91.971 274.895L93.921 273.485H94.971L96.921 274.895H95.901L94.026 273.755H94.866L92.991 274.895H91.971ZM95.811 273.65L97.626 272.03H98.916L96.756 273.65H95.811ZM107.515 284.075C106.765 284.075 106.09 283.905 105.49 283.565C104.9 283.225 104.435 282.755 104.095 282.155C103.755 281.545 103.585 280.845 103.585 280.055C103.585 279.255 103.755 278.555 104.095 277.955C104.435 277.355 104.9 276.89 105.49 276.56C106.09 276.22 106.765 276.05 107.515 276.05C108.205 276.05 108.82 276.205 109.36 276.515C109.91 276.825 110.345 277.28 110.665 277.88C110.995 278.47 111.16 279.195 111.16 280.055C111.16 280.905 111 281.63 110.68 282.23C110.36 282.83 109.925 283.29 109.375 283.61C108.835 283.92 108.215 284.075 107.515 284.075ZM107.59 283.13C108.15 283.13 108.65 283.005 109.09 282.755C109.54 282.495 109.89 282.135 110.14 281.675C110.4 281.205 110.53 280.665 110.53 280.055C110.53 279.435 110.4 278.895 110.14 278.435C109.89 277.975 109.54 277.62 109.09 277.37C108.65 277.11 108.15 276.98 107.59 276.98C107.04 276.98 106.545 277.11 106.105 277.37C105.665 277.62 105.315 277.975 105.055 278.435C104.795 278.895 104.665 279.435 104.665 280.055C104.665 280.665 104.795 281.205 105.055 281.675C105.315 282.135 105.665 282.495 106.105 282.755C106.545 283.005 107.04 283.13 107.59 283.13ZM110.56 284V281.63L110.665 280.04L110.515 278.45V272.87H111.58V284H110.56ZM107.215 274.895V274.115H113.065V274.895H107.215ZM117.756 284.075C116.996 284.075 116.311 283.905 115.701 283.565C115.101 283.215 114.626 282.74 114.276 282.14C113.926 281.53 113.751 280.835 113.751 280.055C113.751 279.265 113.926 278.57 114.276 277.97C114.626 277.37 115.101 276.9 115.701 276.56C116.301 276.22 116.986 276.05 117.756 276.05C118.536 276.05 119.226 276.22 119.826 276.56C120.436 276.9 120.911 277.37 121.251 277.97C121.601 278.57 121.776 279.265 121.776 280.055C121.776 280.835 121.601 281.53 121.251 282.14C120.911 282.74 120.436 283.215 119.826 283.565C119.216 283.905 118.526 284.075 117.756 284.075ZM117.756 283.13C118.326 283.13 118.831 283.005 119.271 282.755C119.711 282.495 120.056 282.135 120.306 281.675C120.566 281.205 120.696 280.665 120.696 280.055C120.696 279.435 120.566 278.895 120.306 278.435C120.056 277.975 119.711 277.62 119.271 277.37C118.831 277.11 118.331 276.98 117.771 276.98C117.211 276.98 116.711 277.11 116.271 277.37C115.831 277.62 115.481 277.975 115.221 278.435C114.961 278.895 114.831 279.435 114.831 280.055C114.831 280.665 114.961 281.205 115.221 281.675C115.481 282.135 115.831 282.495 116.271 282.755C116.711 283.005 117.206 283.13 117.756 283.13ZM117.756 286.85C117.586 286.85 117.436 286.79 117.306 286.67C117.176 286.55 117.111 286.395 117.111 286.205C117.111 286.015 117.176 285.86 117.306 285.74C117.436 285.62 117.586 285.56 117.756 285.56C117.936 285.56 118.086 285.62 118.206 285.74C118.336 285.86 118.401 286.015 118.401 286.205C118.401 286.395 118.336 286.55 118.206 286.67C118.086 286.79 117.936 286.85 117.756 286.85ZM115.281 274.895L117.216 273.035H118.296L120.231 274.895H119.241L117.336 273.305H118.176L116.271 274.895H115.281ZM130.366 284.075C129.626 284.075 129.056 283.875 128.656 283.475C128.256 283.075 128.056 282.51 128.056 281.78V274.385H129.121V281.72C129.121 282.18 129.236 282.535 129.466 282.785C129.706 283.035 130.046 283.16 130.486 283.16C130.956 283.16 131.346 283.025 131.656 282.755L132.031 283.52C131.821 283.71 131.566 283.85 131.266 283.94C130.976 284.03 130.676 284.075 130.366 284.075ZM126.646 277.01V276.125H131.521V277.01H126.646ZM137.989 276.05C138.629 276.05 139.189 276.175 139.669 276.425C140.159 276.665 140.539 277.035 140.809 277.535C141.089 278.035 141.229 278.665 141.229 279.425V284H140.164V279.53C140.164 278.7 139.954 278.075 139.534 277.655C139.124 277.225 138.544 277.01 137.794 277.01C137.234 277.01 136.744 277.125 136.324 277.355C135.914 277.575 135.594 277.9 135.364 278.33C135.144 278.75 135.034 279.26 135.034 279.86V284H133.969V272.87H135.034V278.285L134.824 277.88C135.074 277.31 135.474 276.865 136.024 276.545C136.574 276.215 137.229 276.05 137.989 276.05ZM144.106 284V276.125H145.171V284H144.106ZM144.646 274.385C144.426 274.385 144.241 274.31 144.091 274.16C143.941 274.01 143.866 273.83 143.866 273.62C143.866 273.41 143.941 273.235 144.091 273.095C144.241 272.945 144.426 272.87 144.646 272.87C144.866 272.87 145.051 272.94 145.201 273.08C145.351 273.22 145.426 273.395 145.426 273.605C145.426 273.825 145.351 274.01 145.201 274.16C145.061 274.31 144.876 274.385 144.646 274.385ZM155.195 284.075C154.445 284.075 153.77 283.905 153.17 283.565C152.58 283.225 152.115 282.755 151.775 282.155C151.435 281.545 151.265 280.845 151.265 280.055C151.265 279.255 151.435 278.555 151.775 277.955C152.115 277.355 152.58 276.89 153.17 276.56C153.77 276.22 154.445 276.05 155.195 276.05C155.885 276.05 156.5 276.205 157.04 276.515C157.59 276.825 158.025 277.28 158.345 277.88C158.675 278.47 158.84 279.195 158.84 280.055C158.84 280.905 158.68 281.63 158.36 282.23C158.04 282.83 157.605 283.29 157.055 283.61C156.515 283.92 155.895 284.075 155.195 284.075ZM155.27 283.13C155.83 283.13 156.33 283.005 156.77 282.755C157.22 282.495 157.57 282.135 157.82 281.675C158.08 281.205 158.21 280.665 158.21 280.055C158.21 279.435 158.08 278.895 157.82 278.435C157.57 277.975 157.22 277.62 156.77 277.37C156.33 277.11 155.83 276.98 155.27 276.98C154.72 276.98 154.225 277.11 153.785 277.37C153.345 277.62 152.995 277.975 152.735 278.435C152.475 278.895 152.345 279.435 152.345 280.055C152.345 280.665 152.475 281.205 152.735 281.675C152.995 282.135 153.345 282.495 153.785 282.755C154.225 283.005 154.72 283.13 155.27 283.13ZM158.24 284V281.63L158.345 280.04L158.195 278.45V272.87H159.26V284H158.24ZM154.895 274.895V274.115H160.745V274.895H154.895ZM165.571 284.075C164.751 284.075 164.031 283.905 163.411 283.565C162.791 283.215 162.306 282.74 161.956 282.14C161.606 281.53 161.431 280.835 161.431 280.055C161.431 279.275 161.596 278.585 161.926 277.985C162.266 277.385 162.726 276.915 163.306 276.575C163.896 276.225 164.556 276.05 165.286 276.05C166.026 276.05 166.681 276.22 167.251 276.56C167.831 276.89 168.286 277.36 168.616 277.97C168.946 278.57 169.111 279.265 169.111 280.055C169.111 280.105 169.106 280.16 169.096 280.22C169.096 280.27 169.096 280.325 169.096 280.385H162.241V279.59H168.526L168.106 279.905C168.106 279.335 167.981 278.83 167.731 278.39C167.491 277.94 167.161 277.59 166.741 277.34C166.321 277.09 165.836 276.965 165.286 276.965C164.746 276.965 164.261 277.09 163.831 277.34C163.401 277.59 163.066 277.94 162.826 278.39C162.586 278.84 162.466 279.355 162.466 279.935V280.1C162.466 280.7 162.596 281.23 162.856 281.69C163.126 282.14 163.496 282.495 163.966 282.755C164.446 283.005 164.991 283.13 165.601 283.13C166.081 283.13 166.526 283.045 166.936 282.875C167.356 282.705 167.716 282.445 168.016 282.095L168.616 282.785C168.266 283.205 167.826 283.525 167.296 283.745C166.776 283.965 166.201 284.075 165.571 284.075ZM162.796 274.895L164.746 273.485H165.796L167.746 274.895H166.726L164.851 273.755H165.691L163.816 274.895H162.796ZM167.236 273.905L166.936 273.53C167.136 273.43 167.291 273.315 167.401 273.185C167.511 273.055 167.566 272.92 167.566 272.78C167.566 272.63 167.511 272.51 167.401 272.42C167.291 272.33 167.146 272.285 166.966 272.285C166.746 272.285 166.531 272.345 166.321 272.465L166.096 272.03C166.236 271.93 166.386 271.86 166.546 271.82C166.716 271.77 166.886 271.745 167.056 271.745C167.396 271.745 167.661 271.84 167.851 272.03C168.041 272.21 168.136 272.44 168.136 272.72C168.136 272.98 168.056 273.215 167.896 273.425C167.746 273.625 167.526 273.785 167.236 273.905ZM179.27 284.075C178.58 284.075 177.96 283.92 177.41 283.61C176.86 283.29 176.425 282.83 176.105 282.23C175.785 281.63 175.625 280.905 175.625 280.055C175.625 279.195 175.785 278.47 176.105 277.88C176.435 277.28 176.875 276.825 177.425 276.515C177.975 276.205 178.59 276.05 179.27 276.05C180.02 276.05 180.69 276.22 181.28 276.56C181.88 276.89 182.35 277.355 182.69 277.955C183.03 278.555 183.2 279.255 183.2 280.055C183.2 280.845 183.03 281.545 182.69 282.155C182.35 282.755 181.88 283.225 181.28 283.565C180.69 283.905 180.02 284.075 179.27 284.075ZM175.205 284V272.87H176.27V278.45L176.12 280.04L176.225 281.63V284H175.205ZM179.195 283.13C179.755 283.13 180.255 283.005 180.695 282.755C181.135 282.495 181.485 282.135 181.745 281.675C182.005 281.205 182.135 280.665 182.135 280.055C182.135 279.435 182.005 278.895 181.745 278.435C181.485 277.975 181.135 277.62 180.695 277.37C180.255 277.11 179.755 276.98 179.195 276.98C178.635 276.98 178.13 277.11 177.68 277.37C177.24 277.62 176.89 277.975 176.63 278.435C176.38 278.895 176.255 279.435 176.255 280.055C176.255 280.665 176.38 281.205 176.63 281.675C176.89 282.135 177.24 282.495 177.68 282.755C178.13 283.005 178.635 283.13 179.195 283.13ZM190.262 284V282.26L190.217 281.975V279.065C190.217 278.395 190.027 277.88 189.647 277.52C189.277 277.16 188.722 276.98 187.982 276.98C187.472 276.98 186.987 277.065 186.527 277.235C186.067 277.405 185.677 277.63 185.357 277.91L184.877 277.115C185.277 276.775 185.757 276.515 186.317 276.335C186.877 276.145 187.467 276.05 188.087 276.05C189.107 276.05 189.892 276.305 190.442 276.815C191.002 277.315 191.282 278.08 191.282 279.11V284H190.262ZM187.547 284.075C186.957 284.075 186.442 283.98 186.002 283.79C185.572 283.59 185.242 283.32 185.012 282.98C184.782 282.63 184.667 282.23 184.667 281.78C184.667 281.37 184.762 281 184.952 280.67C185.152 280.33 185.472 280.06 185.912 279.86C186.362 279.65 186.962 279.545 187.712 279.545H190.427V280.34H187.742C186.982 280.34 186.452 280.475 186.152 280.745C185.862 281.015 185.717 281.35 185.717 281.75C185.717 282.2 185.892 282.56 186.242 282.83C186.592 283.1 187.082 283.235 187.712 283.235C188.312 283.235 188.827 283.1 189.257 282.83C189.697 282.55 190.017 282.15 190.217 281.63L190.457 282.365C190.257 282.885 189.907 283.3 189.407 283.61C188.917 283.92 188.297 284.075 187.547 284.075ZM188.117 274.97C187.497 274.97 186.977 274.84 186.557 274.58C186.137 274.32 185.897 273.955 185.837 273.485H186.572C186.622 273.755 186.787 273.965 187.067 274.115C187.347 274.265 187.697 274.34 188.117 274.34C188.537 274.34 188.887 274.265 189.167 274.115C189.447 273.965 189.612 273.755 189.662 273.485H190.397C190.337 273.955 190.097 274.32 189.677 274.58C189.257 274.84 188.737 274.97 188.117 274.97ZM187.202 273.185L189.017 271.565H190.307L188.147 273.185H187.202ZM196.664 284.075C195.924 284.075 195.354 283.875 194.954 283.475C194.554 283.075 194.354 282.51 194.354 281.78V274.385H195.419V281.72C195.419 282.18 195.534 282.535 195.764 282.785C196.004 283.035 196.344 283.16 196.784 283.16C197.254 283.16 197.644 283.025 197.954 282.755L198.329 283.52C198.119 283.71 197.864 283.85 197.564 283.94C197.274 284.03 196.974 284.075 196.664 284.075ZM192.944 277.01V276.125H197.819V277.01H192.944ZM207.329 284.075C206.579 284.075 205.904 283.905 205.304 283.565C204.714 283.225 204.249 282.755 203.909 282.155C203.569 281.545 203.399 280.845 203.399 280.055C203.399 279.255 203.569 278.555 203.909 277.955C204.249 277.355 204.714 276.89 205.304 276.56C205.904 276.22 206.579 276.05 207.329 276.05C208.019 276.05 208.634 276.205 209.174 276.515C209.724 276.825 210.159 277.28 210.479 277.88C210.809 278.47 210.974 279.195 210.974 280.055C210.974 280.905 210.814 281.63 210.494 282.23C210.174 282.83 209.739 283.29 209.189 283.61C208.649 283.92 208.029 284.075 207.329 284.075ZM207.404 283.13C207.964 283.13 208.464 283.005 208.904 282.755C209.354 282.495 209.704 282.135 209.954 281.675C210.214 281.205 210.344 280.665 210.344 280.055C210.344 279.435 210.214 278.895 209.954 278.435C209.704 277.975 209.354 277.62 208.904 277.37C208.464 277.11 207.964 276.98 207.404 276.98C206.854 276.98 206.359 277.11 205.919 277.37C205.479 277.62 205.129 277.975 204.869 278.435C204.609 278.895 204.479 279.435 204.479 280.055C204.479 280.665 204.609 281.205 204.869 281.675C205.129 282.135 205.479 282.495 205.919 282.755C206.359 283.005 206.854 283.13 207.404 283.13ZM210.374 284V281.63L210.479 280.04L210.329 278.45V272.87H211.394V284H210.374ZM207.029 274.895V274.115H212.879V274.895H207.029ZM219.295 284V282.26L219.25 281.975V279.065C219.25 278.395 219.06 277.88 218.68 277.52C218.31 277.16 217.755 276.98 217.015 276.98C216.505 276.98 216.02 277.065 215.56 277.235C215.1 277.405 214.71 277.63 214.39 277.91L213.91 277.115C214.31 276.775 214.79 276.515 215.35 276.335C215.91 276.145 216.5 276.05 217.12 276.05C218.14 276.05 218.925 276.305 219.475 276.815C220.035 277.315 220.315 278.08 220.315 279.11V284H219.295ZM216.58 284.075C215.99 284.075 215.475 283.98 215.035 283.79C214.605 283.59 214.275 283.32 214.045 282.98C213.815 282.63 213.7 282.23 213.7 281.78C213.7 281.37 213.795 281 213.985 280.67C214.185 280.33 214.505 280.06 214.945 279.86C215.395 279.65 215.995 279.545 216.745 279.545H219.46V280.34H216.775C216.015 280.34 215.485 280.475 215.185 280.745C214.895 281.015 214.75 281.35 214.75 281.75C214.75 282.2 214.925 282.56 215.275 282.83C215.625 283.1 216.115 283.235 216.745 283.235C217.345 283.235 217.86 283.1 218.29 282.83C218.73 282.55 219.05 282.15 219.25 281.63L219.49 282.365C219.29 282.885 218.94 283.3 218.44 283.61C217.95 283.92 217.33 284.075 216.58 284.075ZM214.675 274.895L216.625 273.485H217.675L219.625 274.895H218.605L216.73 273.755H217.57L215.695 274.895H214.675ZM219.415 273.65L217.24 272.03H218.545L220.345 273.65H219.415ZM226.463 284.075C225.793 284.075 225.208 283.95 224.708 283.7C224.208 283.45 223.818 283.075 223.538 282.575C223.268 282.075 223.133 281.45 223.133 280.7V276.125H224.198V280.58C224.198 281.42 224.403 282.055 224.813 282.485C225.233 282.905 225.818 283.115 226.568 283.115C227.118 283.115 227.593 283.005 227.993 282.785C228.403 282.555 228.713 282.225 228.923 281.795C229.143 281.365 229.253 280.85 229.253 280.25V276.125H230.318V284H229.298V281.84L229.463 282.23C229.213 282.81 228.823 283.265 228.293 283.595C227.773 283.915 227.163 284.075 226.463 284.075ZM247.052 276.05C247.692 276.05 248.247 276.175 248.717 276.425C249.197 276.665 249.567 277.035 249.827 277.535C250.097 278.035 250.232 278.665 250.232 279.425V284H249.167V279.53C249.167 278.7 248.967 278.075 248.567 277.655C248.177 277.225 247.622 277.01 246.902 277.01C246.362 277.01 245.892 277.125 245.492 277.355C245.102 277.575 244.797 277.9 244.577 278.33C244.367 278.75 244.262 279.26 244.262 279.86V284H243.197V279.53C243.197 278.7 242.997 278.075 242.597 277.655C242.197 277.225 241.637 277.01 240.917 277.01C240.387 277.01 239.922 277.125 239.522 277.355C239.122 277.575 238.812 277.9 238.592 278.33C238.382 278.75 238.277 279.26 238.277 279.86V284H237.212V276.125H238.232V278.255L238.067 277.88C238.307 277.31 238.692 276.865 239.222 276.545C239.762 276.215 240.397 276.05 241.127 276.05C241.897 276.05 242.552 276.245 243.092 276.635C243.632 277.015 243.982 277.59 244.142 278.36L243.722 278.195C243.952 277.555 244.357 277.04 244.937 276.65C245.527 276.25 246.232 276.05 247.052 276.05ZM256.33 284.075C255.57 284.075 254.885 283.905 254.275 283.565C253.675 283.215 253.2 282.74 252.85 282.14C252.5 281.53 252.325 280.835 252.325 280.055C252.325 279.265 252.5 278.57 252.85 277.97C253.2 277.37 253.675 276.9 254.275 276.56C254.875 276.22 255.56 276.05 256.33 276.05C257.11 276.05 257.8 276.22 258.4 276.56C259.01 276.9 259.485 277.37 259.825 277.97C260.175 278.57 260.35 279.265 260.35 280.055C260.35 280.835 260.175 281.53 259.825 282.14C259.485 282.74 259.01 283.215 258.4 283.565C257.79 283.905 257.1 284.075 256.33 284.075ZM256.33 283.13C256.9 283.13 257.405 283.005 257.845 282.755C258.285 282.495 258.63 282.135 258.88 281.675C259.14 281.205 259.27 280.665 259.27 280.055C259.27 279.435 259.14 278.895 258.88 278.435C258.63 277.975 258.285 277.62 257.845 277.37C257.405 277.11 256.905 276.98 256.345 276.98C255.785 276.98 255.285 277.11 254.845 277.37C254.405 277.62 254.055 277.975 253.795 278.435C253.535 278.895 253.405 279.435 253.405 280.055C253.405 280.665 253.535 281.205 253.795 281.675C254.055 282.135 254.405 282.495 254.845 282.755C255.285 283.005 255.78 283.13 256.33 283.13ZM256.33 286.85C256.16 286.85 256.01 286.79 255.88 286.67C255.75 286.55 255.685 286.395 255.685 286.205C255.685 286.015 255.75 285.86 255.88 285.74C256.01 285.62 256.16 285.56 256.33 285.56C256.51 285.56 256.66 285.62 256.78 285.74C256.91 285.86 256.975 286.015 256.975 286.205C256.975 286.395 256.91 286.55 256.78 286.67C256.66 286.79 256.51 286.85 256.33 286.85ZM253.855 274.895L255.79 273.035H256.87L258.805 274.895H257.815L255.91 273.305H256.75L254.845 274.895H253.855ZM265.014 284.075C264.274 284.075 263.704 283.875 263.304 283.475C262.904 283.075 262.704 282.51 262.704 281.78V274.385H263.769V281.72C263.769 282.18 263.884 282.535 264.114 282.785C264.354 283.035 264.694 283.16 265.134 283.16C265.604 283.16 265.994 283.025 266.304 282.755L266.679 283.52C266.469 283.71 266.214 283.85 265.914 283.94C265.624 284.03 265.324 284.075 265.014 284.075ZM261.294 277.01V276.125H266.169V277.01H261.294ZM275.814 284.075C275.034 284.075 274.334 283.905 273.714 283.565C273.104 283.215 272.624 282.74 272.274 282.14C271.924 281.53 271.749 280.835 271.749 280.055C271.749 279.265 271.924 278.57 272.274 277.97C272.624 277.37 273.104 276.9 273.714 276.56C274.334 276.22 275.034 276.05 275.814 276.05C276.484 276.05 277.089 276.18 277.629 276.44C278.169 276.7 278.594 277.09 278.904 277.61L278.109 278.15C277.839 277.75 277.504 277.455 277.104 277.265C276.704 277.075 276.269 276.98 275.799 276.98C275.239 276.98 274.734 277.11 274.284 277.37C273.834 277.62 273.479 277.975 273.219 278.435C272.959 278.895 272.829 279.435 272.829 280.055C272.829 280.675 272.959 281.215 273.219 281.675C273.479 282.135 273.834 282.495 274.284 282.755C274.734 283.005 275.239 283.13 275.799 283.13C276.269 283.13 276.704 283.035 277.104 282.845C277.504 282.655 277.839 282.365 278.109 281.975L278.904 282.515C278.594 283.025 278.169 283.415 277.629 283.685C277.089 283.945 276.484 284.075 275.814 284.075ZM284.251 284.075C283.581 284.075 282.996 283.95 282.496 283.7C281.996 283.45 281.606 283.075 281.326 282.575C281.056 282.075 280.921 281.45 280.921 280.7V276.125H281.986V280.58C281.986 281.42 282.191 282.055 282.601 282.485C283.021 282.905 283.606 283.115 284.356 283.115C284.906 283.115 285.381 283.005 285.781 282.785C286.191 282.555 286.501 282.225 286.711 281.795C286.931 281.365 287.041 280.85 287.041 280.25V276.125H288.106V284H287.086V281.84L287.251 282.23C287.001 282.81 286.611 283.265 286.081 283.595C285.561 283.915 284.951 284.075 284.251 284.075ZM294.284 284.075C293.524 284.075 292.839 283.905 292.229 283.565C291.629 283.215 291.154 282.74 290.804 282.14C290.454 281.53 290.279 280.835 290.279 280.055C290.279 279.265 290.454 278.57 290.804 277.97C291.154 277.37 291.629 276.9 292.229 276.56C292.829 276.22 293.514 276.05 294.284 276.05C295.064 276.05 295.754 276.22 296.354 276.56C296.964 276.9 297.439 277.37 297.779 277.97C298.129 278.57 298.304 279.265 298.304 280.055C298.304 280.835 298.129 281.53 297.779 282.14C297.439 282.74 296.964 283.215 296.354 283.565C295.744 283.905 295.054 284.075 294.284 284.075ZM294.284 283.13C294.854 283.13 295.359 283.005 295.799 282.755C296.239 282.495 296.584 282.135 296.834 281.675C297.094 281.205 297.224 280.665 297.224 280.055C297.224 279.435 297.094 278.895 296.834 278.435C296.584 277.975 296.239 277.62 295.799 277.37C295.359 277.11 294.859 276.98 294.299 276.98C293.739 276.98 293.239 277.11 292.799 277.37C292.359 277.62 292.009 277.975 291.749 278.435C291.489 278.895 291.359 279.435 291.359 280.055C291.359 280.665 291.489 281.205 291.749 281.675C292.009 282.135 292.359 282.495 292.799 282.755C293.239 283.005 293.734 283.13 294.284 283.13ZM294.284 286.85C294.114 286.85 293.964 286.79 293.834 286.67C293.704 286.55 293.639 286.395 293.639 286.205C293.639 286.015 293.704 285.86 293.834 285.74C293.964 285.62 294.114 285.56 294.284 285.56C294.464 285.56 294.614 285.62 294.734 285.74C294.864 285.86 294.929 286.015 294.929 286.205C294.929 286.395 294.864 286.55 294.734 286.67C294.614 286.79 294.464 286.85 294.284 286.85ZM291.809 274.895L293.744 273.035H294.824L296.759 274.895H295.769L293.864 273.305H294.704L292.799 274.895H291.809ZM303.748 284.075C302.968 284.075 302.268 283.905 301.648 283.565C301.038 283.215 300.558 282.74 300.208 282.14C299.858 281.53 299.683 280.835 299.683 280.055C299.683 279.265 299.858 278.57 300.208 277.97C300.558 277.37 301.038 276.9 301.648 276.56C302.268 276.22 302.968 276.05 303.748 276.05C304.418 276.05 305.023 276.18 305.563 276.44C306.103 276.7 306.528 277.09 306.838 277.61L306.043 278.15C305.773 277.75 305.438 277.455 305.038 277.265C304.638 277.075 304.203 276.98 303.733 276.98C303.173 276.98 302.668 277.11 302.218 277.37C301.768 277.62 301.413 277.975 301.153 278.435C300.893 278.895 300.763 279.435 300.763 280.055C300.763 280.675 300.893 281.215 301.153 281.675C301.413 282.135 301.768 282.495 302.218 282.755C302.668 283.005 303.173 283.13 303.733 283.13C304.203 283.13 304.638 283.035 305.038 282.845C305.438 282.655 305.773 282.365 306.043 281.975L306.838 282.515C306.528 283.025 306.103 283.415 305.563 283.685C305.023 283.945 304.418 284.075 303.748 284.075ZM315.346 284.075C314.606 284.075 314.036 283.875 313.636 283.475C313.236 283.075 313.036 282.51 313.036 281.78V274.385H314.101V281.72C314.101 282.18 314.216 282.535 314.446 282.785C314.686 283.035 315.026 283.16 315.466 283.16C315.936 283.16 316.326 283.025 316.636 282.755L317.011 283.52C316.801 283.71 316.546 283.85 316.246 283.94C315.956 284.03 315.656 284.075 315.346 284.075ZM311.626 277.01V276.125H316.501V277.01H311.626ZM322.97 276.05C323.61 276.05 324.17 276.175 324.65 276.425C325.14 276.665 325.52 277.035 325.79 277.535C326.07 278.035 326.21 278.665 326.21 279.425V284H325.145V279.53C325.145 278.7 324.935 278.075 324.515 277.655C324.105 277.225 323.525 277.01 322.775 277.01C322.215 277.01 321.725 277.125 321.305 277.355C320.895 277.575 320.575 277.9 320.345 278.33C320.125 278.75 320.015 279.26 320.015 279.86V284H318.95V272.87H320.015V278.285L319.805 277.88C320.055 277.31 320.455 276.865 321.005 276.545C321.555 276.215 322.21 276.05 322.97 276.05ZM329.087 284V276.125H330.152V284H329.087ZM329.627 274.385C329.407 274.385 329.222 274.31 329.072 274.16C328.922 274.01 328.847 273.83 328.847 273.62C328.847 273.41 328.922 273.235 329.072 273.095C329.222 272.945 329.407 272.87 329.627 272.87C329.847 272.87 330.032 272.94 330.182 273.08C330.332 273.22 330.407 273.395 330.407 273.605C330.407 273.825 330.332 274.01 330.182 274.16C330.042 274.31 329.857 274.385 329.627 274.385ZM340.311 284.075C339.531 284.075 338.831 283.905 338.211 283.565C337.601 283.215 337.121 282.74 336.771 282.14C336.421 281.53 336.246 280.835 336.246 280.055C336.246 279.265 336.421 278.57 336.771 277.97C337.121 277.37 337.601 276.9 338.211 276.56C338.831 276.22 339.531 276.05 340.311 276.05C340.981 276.05 341.586 276.18 342.126 276.44C342.666 276.7 343.091 277.09 343.401 277.61L342.606 278.15C342.336 277.75 342.001 277.455 341.601 277.265C341.201 277.075 340.766 276.98 340.296 276.98C339.736 276.98 339.231 277.11 338.781 277.37C338.331 277.62 337.976 277.975 337.716 278.435C337.456 278.895 337.326 279.435 337.326 280.055C337.326 280.675 337.456 281.215 337.716 281.675C337.976 282.135 338.331 282.495 338.781 282.755C339.231 283.005 339.736 283.13 340.296 283.13C340.766 283.13 341.201 283.035 341.601 282.845C342.001 282.655 342.336 282.365 342.606 281.975L343.401 282.515C343.091 283.025 342.666 283.415 342.126 283.685C341.586 283.945 340.981 284.075 340.311 284.075ZM348.571 284.075C347.811 284.075 347.126 283.905 346.516 283.565C345.916 283.215 345.441 282.74 345.091 282.14C344.741 281.53 344.566 280.835 344.566 280.055C344.566 279.265 344.741 278.57 345.091 277.97C345.441 277.37 345.916 276.9 346.516 276.56C347.116 276.22 347.801 276.05 348.571 276.05C349.351 276.05 350.041 276.22 350.641 276.56C351.251 276.9 351.726 277.37 352.066 277.97C352.416 278.57 352.591 279.265 352.591 280.055C352.591 280.835 352.416 281.53 352.066 282.14C351.726 282.74 351.251 283.215 350.641 283.565C350.031 283.905 349.341 284.075 348.571 284.075ZM348.571 283.13C349.141 283.13 349.646 283.005 350.086 282.755C350.526 282.495 350.871 282.135 351.121 281.675C351.381 281.205 351.511 280.665 351.511 280.055C351.511 279.435 351.381 278.895 351.121 278.435C350.871 277.975 350.526 277.62 350.086 277.37C349.646 277.11 349.146 276.98 348.586 276.98C348.026 276.98 347.526 277.11 347.086 277.37C346.646 277.62 346.296 277.975 346.036 278.435C345.776 278.895 345.646 279.435 345.646 280.055C345.646 280.665 345.776 281.205 346.036 281.675C346.296 282.135 346.646 282.495 347.086 282.755C347.526 283.005 348.021 283.13 348.571 283.13ZM346.096 274.895L348.031 273.035H349.111L351.046 274.895H350.056L348.151 273.305H348.991L347.086 274.895H346.096ZM358.785 276.05C359.425 276.05 359.985 276.175 360.465 276.425C360.955 276.665 361.335 277.035 361.605 277.535C361.885 278.035 362.025 278.665 362.025 279.425V284H360.96V279.53C360.96 278.7 360.75 278.075 360.33 277.655C359.92 277.225 359.34 277.01 358.59 277.01C358.03 277.01 357.54 277.125 357.12 277.355C356.71 277.575 356.39 277.9 356.16 278.33C355.94 278.75 355.83 279.26 355.83 279.86V284H354.765V276.125H355.785V278.285L355.62 277.88C355.87 277.31 356.27 276.865 356.82 276.545C357.37 276.215 358.025 276.05 358.785 276.05ZM368.262 286.985C367.542 286.985 366.852 286.88 366.192 286.67C365.532 286.46 364.997 286.16 364.587 285.77L365.127 284.96C365.497 285.29 365.952 285.55 366.492 285.74C367.042 285.94 367.622 286.04 368.232 286.04C369.232 286.04 369.967 285.805 370.437 285.335C370.907 284.875 371.142 284.155 371.142 283.175V281.21L371.292 279.86L371.187 278.51V276.125H372.207V283.04C372.207 284.4 371.872 285.395 371.202 286.025C370.542 286.665 369.562 286.985 368.262 286.985ZM368.067 283.7C367.317 283.7 366.642 283.54 366.042 283.22C365.442 282.89 364.967 282.435 364.617 281.855C364.277 281.275 364.107 280.61 364.107 279.86C364.107 279.11 364.277 278.45 364.617 277.88C364.967 277.3 365.442 276.85 366.042 276.53C366.642 276.21 367.317 276.05 368.067 276.05C368.767 276.05 369.397 276.195 369.957 276.485C370.517 276.775 370.962 277.205 371.292 277.775C371.622 278.345 371.787 279.04 371.787 279.86C371.787 280.68 371.622 281.375 371.292 281.945C370.962 282.515 370.517 282.95 369.957 283.25C369.397 283.55 368.767 283.7 368.067 283.7ZM368.172 282.755C368.752 282.755 369.267 282.635 369.717 282.395C370.167 282.145 370.522 281.805 370.782 281.375C371.042 280.935 371.172 280.43 371.172 279.86C371.172 279.29 371.042 278.79 370.782 278.36C370.522 277.93 370.167 277.595 369.717 277.355C369.267 277.105 368.752 276.98 368.172 276.98C367.602 276.98 367.087 277.105 366.627 277.355C366.177 277.595 365.822 277.93 365.562 278.36C365.312 278.79 365.187 279.29 365.187 279.86C365.187 280.43 365.312 280.935 365.562 281.375C365.822 281.805 366.177 282.145 366.627 282.395C367.087 282.635 367.602 282.755 368.172 282.755ZM383.161 284.075C382.471 284.075 381.851 283.92 381.301 283.61C380.751 283.29 380.316 282.83 379.996 282.23C379.676 281.63 379.516 280.905 379.516 280.055C379.516 279.195 379.676 278.47 379.996 277.88C380.326 277.28 380.766 276.825 381.316 276.515C381.866 276.205 382.481 276.05 383.161 276.05C383.911 276.05 384.581 276.22 385.171 276.56C385.771 276.89 386.241 277.355 386.581 277.955C386.921 278.555 387.091 279.255 387.091 280.055C387.091 280.845 386.921 281.545 386.581 282.155C386.241 282.755 385.771 283.225 385.171 283.565C384.581 283.905 383.911 284.075 383.161 284.075ZM379.096 284V272.87H380.161V278.45L380.011 280.04L380.116 281.63V284H379.096ZM383.086 283.13C383.646 283.13 384.146 283.005 384.586 282.755C385.026 282.495 385.376 282.135 385.636 281.675C385.896 281.205 386.026 280.665 386.026 280.055C386.026 279.435 385.896 278.895 385.636 278.435C385.376 277.975 385.026 277.62 384.586 277.37C384.146 277.11 383.646 276.98 383.086 276.98C382.526 276.98 382.021 277.11 381.571 277.37C381.131 277.62 380.781 277.975 380.521 278.435C380.271 278.895 380.146 279.435 380.146 280.055C380.146 280.665 380.271 281.205 380.521 281.675C380.781 282.135 381.131 282.495 381.571 282.755C382.021 283.005 382.526 283.13 383.086 283.13ZM394.153 284V282.26L394.108 281.975V279.065C394.108 278.395 393.918 277.88 393.538 277.52C393.168 277.16 392.613 276.98 391.873 276.98C391.363 276.98 390.878 277.065 390.418 277.235C389.958 277.405 389.568 277.63 389.248 277.91L388.768 277.115C389.168 276.775 389.648 276.515 390.208 276.335C390.768 276.145 391.358 276.05 391.978 276.05C392.998 276.05 393.783 276.305 394.333 276.815C394.893 277.315 395.173 278.08 395.173 279.11V284H394.153ZM391.438 284.075C390.848 284.075 390.333 283.98 389.893 283.79C389.463 283.59 389.133 283.32 388.903 282.98C388.673 282.63 388.558 282.23 388.558 281.78C388.558 281.37 388.653 281 388.843 280.67C389.043 280.33 389.363 280.06 389.803 279.86C390.253 279.65 390.853 279.545 391.603 279.545H394.318V280.34H391.633C390.873 280.34 390.343 280.475 390.043 280.745C389.753 281.015 389.608 281.35 389.608 281.75C389.608 282.2 389.783 282.56 390.133 282.83C390.483 283.1 390.973 283.235 391.603 283.235C392.203 283.235 392.718 283.1 393.148 282.83C393.588 282.55 393.908 282.15 394.108 281.63L394.348 282.365C394.148 282.885 393.798 283.3 393.298 283.61C392.808 283.92 392.188 284.075 391.438 284.075ZM392.008 274.97C391.388 274.97 390.868 274.84 390.448 274.58C390.028 274.32 389.788 273.955 389.728 273.485H390.463C390.513 273.755 390.678 273.965 390.958 274.115C391.238 274.265 391.588 274.34 392.008 274.34C392.428 274.34 392.778 274.265 393.058 274.115C393.338 273.965 393.503 273.755 393.553 273.485H394.288C394.228 273.955 393.988 274.32 393.568 274.58C393.148 274.84 392.628 274.97 392.008 274.97ZM391.993 273.185L389.818 271.565H391.123L392.923 273.185H391.993ZM402.086 276.05C402.726 276.05 403.286 276.175 403.766 276.425C404.256 276.665 404.636 277.035 404.906 277.535C405.186 278.035 405.326 278.665 405.326 279.425V284H404.261V279.53C404.261 278.7 404.051 278.075 403.631 277.655C403.221 277.225 402.641 277.01 401.891 277.01C401.331 277.01 400.841 277.125 400.421 277.355C400.011 277.575 399.691 277.9 399.461 278.33C399.241 278.75 399.131 279.26 399.131 279.86V284H398.066V276.125H399.086V278.285L398.921 277.88C399.171 277.31 399.571 276.865 400.121 276.545C400.671 276.215 401.326 276.05 402.086 276.05ZM411.563 286.985C410.843 286.985 410.153 286.88 409.493 286.67C408.833 286.46 408.298 286.16 407.888 285.77L408.428 284.96C408.798 285.29 409.253 285.55 409.793 285.74C410.343 285.94 410.923 286.04 411.533 286.04C412.533 286.04 413.268 285.805 413.738 285.335C414.208 284.875 414.443 284.155 414.443 283.175V281.21L414.593 279.86L414.488 278.51V276.125H415.508V283.04C415.508 284.4 415.173 285.395 414.503 286.025C413.843 286.665 412.863 286.985 411.563 286.985ZM411.368 283.7C410.618 283.7 409.943 283.54 409.343 283.22C408.743 282.89 408.268 282.435 407.918 281.855C407.578 281.275 407.408 280.61 407.408 279.86C407.408 279.11 407.578 278.45 407.918 277.88C408.268 277.3 408.743 276.85 409.343 276.53C409.943 276.21 410.618 276.05 411.368 276.05C412.068 276.05 412.698 276.195 413.258 276.485C413.818 276.775 414.263 277.205 414.593 277.775C414.923 278.345 415.088 279.04 415.088 279.86C415.088 280.68 414.923 281.375 414.593 281.945C414.263 282.515 413.818 282.95 413.258 283.25C412.698 283.55 412.068 283.7 411.368 283.7ZM411.473 282.755C412.053 282.755 412.568 282.635 413.018 282.395C413.468 282.145 413.823 281.805 414.083 281.375C414.343 280.935 414.473 280.43 414.473 279.86C414.473 279.29 414.343 278.79 414.083 278.36C413.823 277.93 413.468 277.595 413.018 277.355C412.568 277.105 412.053 276.98 411.473 276.98C410.903 276.98 410.388 277.105 409.928 277.355C409.478 277.595 409.123 277.93 408.863 278.36C408.613 278.79 408.488 279.29 408.488 279.86C408.488 280.43 408.613 280.935 408.863 281.375C409.123 281.805 409.478 282.145 409.928 282.395C410.388 282.635 410.903 282.755 411.473 282.755ZM417.826 286.19L418.486 283.415L418.606 284.06C418.376 284.06 418.181 283.985 418.021 283.835C417.871 283.685 417.796 283.49 417.796 283.25C417.796 283.01 417.871 282.815 418.021 282.665C418.181 282.515 418.371 282.44 418.591 282.44C418.821 282.44 419.006 282.52 419.146 282.68C419.296 282.84 419.371 283.03 419.371 283.25C419.371 283.33 419.366 283.41 419.356 283.49C419.346 283.57 419.326 283.66 419.296 283.76C419.266 283.86 419.226 283.98 419.176 284.12L418.546 286.19H417.826ZM425.576 284V276.125H426.596V278.27L426.491 277.895C426.711 277.295 427.081 276.84 427.601 276.53C428.121 276.21 428.766 276.05 429.536 276.05V277.085C429.496 277.085 429.456 277.085 429.416 277.085C429.376 277.075 429.336 277.07 429.296 277.07C428.466 277.07 427.816 277.325 427.346 277.835C426.876 278.335 426.641 279.05 426.641 279.98V284H425.576ZM434.751 284.075C433.931 284.075 433.211 283.905 432.591 283.565C431.971 283.215 431.486 282.74 431.136 282.14C430.786 281.53 430.611 280.835 430.611 280.055C430.611 279.275 430.776 278.585 431.106 277.985C431.446 277.385 431.906 276.915 432.486 276.575C433.076 276.225 433.736 276.05 434.466 276.05C435.206 276.05 435.861 276.22 436.431 276.56C437.011 276.89 437.466 277.36 437.796 277.97C438.126 278.57 438.291 279.265 438.291 280.055C438.291 280.105 438.286 280.16 438.276 280.22C438.276 280.27 438.276 280.325 438.276 280.385H431.421V279.59H437.706L437.286 279.905C437.286 279.335 437.161 278.83 436.911 278.39C436.671 277.94 436.341 277.59 435.921 277.34C435.501 277.09 435.016 276.965 434.466 276.965C433.926 276.965 433.441 277.09 433.011 277.34C432.581 277.59 432.246 277.94 432.006 278.39C431.766 278.84 431.646 279.355 431.646 279.935V280.1C431.646 280.7 431.776 281.23 432.036 281.69C432.306 282.14 432.676 282.495 433.146 282.755C433.626 283.005 434.171 283.13 434.781 283.13C435.261 283.13 435.706 283.045 436.116 282.875C436.536 282.705 436.896 282.445 437.196 282.095L437.796 282.785C437.446 283.205 437.006 283.525 436.476 283.745C435.956 283.965 435.381 284.075 434.751 284.075ZM434.376 274.895L431.946 273.035H433.371L435.426 274.895H434.376ZM444.479 276.05C445.119 276.05 445.679 276.175 446.159 276.425C446.649 276.665 447.029 277.035 447.299 277.535C447.579 278.035 447.719 278.665 447.719 279.425V284H446.654V279.53C446.654 278.7 446.444 278.075 446.024 277.655C445.614 277.225 445.034 277.01 444.284 277.01C443.724 277.01 443.234 277.125 442.814 277.355C442.404 277.575 442.084 277.9 441.854 278.33C441.634 278.75 441.524 279.26 441.524 279.86V284H440.459V276.125H441.479V278.285L441.314 277.88C441.564 277.31 441.964 276.865 442.514 276.545C443.064 276.215 443.719 276.05 444.479 276.05ZM454.521 284V272.87H455.586V284H454.521ZM461.804 284.075C461.134 284.075 460.549 283.95 460.049 283.7C459.549 283.45 459.159 283.075 458.879 282.575C458.609 282.075 458.474 281.45 458.474 280.7V276.125H459.539V280.58C459.539 281.42 459.744 282.055 460.154 282.485C460.574 282.905 461.159 283.115 461.909 283.115C462.459 283.115 462.934 283.005 463.334 282.785C463.744 282.555 464.054 282.225 464.264 281.795C464.484 281.365 464.594 280.85 464.594 280.25V276.125H465.659V284H464.639V281.84L464.804 282.23C464.554 282.81 464.164 283.265 463.634 283.595C463.114 283.915 462.504 284.075 461.804 284.075ZM468.688 286.985C468.318 286.985 467.963 286.925 467.623 286.805C467.293 286.685 467.008 286.505 466.768 286.265L467.263 285.47C467.463 285.66 467.678 285.805 467.908 285.905C468.148 286.015 468.413 286.07 468.703 286.07C469.053 286.07 469.353 285.97 469.603 285.77C469.863 285.58 470.108 285.24 470.338 284.75L470.848 283.595L470.968 283.43L474.208 276.125H475.258L471.313 284.945C471.093 285.455 470.848 285.86 470.578 286.16C470.318 286.46 470.033 286.67 469.723 286.79C469.413 286.92 469.068 286.985 468.688 286.985ZM470.788 284.225L467.158 276.125H468.268L471.478 283.355L470.788 284.225ZM479.883 284.075C479.063 284.075 478.343 283.905 477.723 283.565C477.103 283.215 476.618 282.74 476.268 282.14C475.918 281.53 475.743 280.835 475.743 280.055C475.743 279.275 475.908 278.585 476.238 277.985C476.578 277.385 477.038 276.915 477.618 276.575C478.208 276.225 478.868 276.05 479.598 276.05C480.338 276.05 480.993 276.22 481.563 276.56C482.143 276.89 482.598 277.36 482.928 277.97C483.258 278.57 483.423 279.265 483.423 280.055C483.423 280.105 483.418 280.16 483.408 280.22C483.408 280.27 483.408 280.325 483.408 280.385H476.553V279.59H482.838L482.418 279.905C482.418 279.335 482.293 278.83 482.043 278.39C481.803 277.94 481.473 277.59 481.053 277.34C480.633 277.09 480.148 276.965 479.598 276.965C479.058 276.965 478.573 277.09 478.143 277.34C477.713 277.59 477.378 277.94 477.138 278.39C476.898 278.84 476.778 279.355 476.778 279.935V280.1C476.778 280.7 476.908 281.23 477.168 281.69C477.438 282.14 477.808 282.495 478.278 282.755C478.758 283.005 479.303 283.13 479.913 283.13C480.393 283.13 480.838 283.045 481.248 282.875C481.668 282.705 482.028 282.445 482.328 282.095L482.928 282.785C482.578 283.205 482.138 283.525 481.608 283.745C481.088 283.965 480.513 284.075 479.883 284.075ZM479.583 286.85C479.413 286.85 479.263 286.79 479.133 286.67C479.003 286.55 478.938 286.395 478.938 286.205C478.938 286.015 479.003 285.86 479.133 285.74C479.263 285.62 479.413 285.56 479.583 285.56C479.763 285.56 479.913 285.62 480.033 285.74C480.163 285.86 480.228 286.015 480.228 286.205C480.228 286.395 480.163 286.55 480.033 286.67C479.913 286.79 479.763 286.85 479.583 286.85ZM477.108 274.895L479.043 273.035H480.123L482.058 274.895H481.068L479.163 273.305H480.003L478.098 274.895H477.108ZM489.61 276.05C490.25 276.05 490.81 276.175 491.29 276.425C491.78 276.665 492.16 277.035 492.43 277.535C492.71 278.035 492.85 278.665 492.85 279.425V284H491.785V279.53C491.785 278.7 491.575 278.075 491.155 277.655C490.745 277.225 490.165 277.01 489.415 277.01C488.855 277.01 488.365 277.125 487.945 277.355C487.535 277.575 487.215 277.9 486.985 278.33C486.765 278.75 486.655 279.26 486.655 279.86V284H485.59V276.125H486.61V278.285L486.445 277.88C486.695 277.31 487.095 276.865 487.645 276.545C488.195 276.215 488.85 276.05 489.61 276.05ZM502.143 284.075C501.403 284.075 500.833 283.875 500.433 283.475C500.033 283.075 499.833 282.51 499.833 281.78V274.385H500.898V281.72C500.898 282.18 501.013 282.535 501.243 282.785C501.483 283.035 501.823 283.16 502.263 283.16C502.733 283.16 503.123 283.025 503.433 282.755L503.808 283.52C503.598 283.71 503.343 283.85 503.043 283.94C502.753 284.03 502.453 284.075 502.143 284.075ZM498.423 277.01V276.125H503.298V277.01H498.423ZM505.747 284V276.125H506.812V284H505.747ZM505.312 274.895L507.367 273.035H508.792L506.362 274.895H505.312ZM513.795 276.05C514.435 276.05 514.995 276.175 515.475 276.425C515.965 276.665 516.345 277.035 516.615 277.535C516.895 278.035 517.035 278.665 517.035 279.425V284H515.97V279.53C515.97 278.7 515.76 278.075 515.34 277.655C514.93 277.225 514.35 277.01 513.6 277.01C513.04 277.01 512.55 277.125 512.13 277.355C511.72 277.575 511.4 277.9 511.17 278.33C510.95 278.75 510.84 279.26 510.84 279.86V284H509.775V276.125H510.795V278.285L510.63 277.88C510.88 277.31 511.28 276.865 511.83 276.545C512.38 276.215 513.035 276.05 513.795 276.05ZM523.932 276.05C524.572 276.05 525.132 276.175 525.612 276.425C526.102 276.665 526.482 277.035 526.752 277.535C527.032 278.035 527.172 278.665 527.172 279.425V284H526.107V279.53C526.107 278.7 525.897 278.075 525.477 277.655C525.067 277.225 524.487 277.01 523.737 277.01C523.177 277.01 522.687 277.125 522.267 277.355C521.857 277.575 521.537 277.9 521.307 278.33C521.087 278.75 520.977 279.26 520.977 279.86V284H519.912V272.87H520.977V278.285L520.767 277.88C521.017 277.31 521.417 276.865 521.967 276.545C522.517 276.215 523.172 276.05 523.932 276.05ZM536.464 284.075C535.724 284.075 535.154 283.875 534.754 283.475C534.354 283.075 534.154 282.51 534.154 281.78V274.385H535.219V281.72C535.219 282.18 535.334 282.535 535.564 282.785C535.804 283.035 536.144 283.16 536.584 283.16C537.054 283.16 537.444 283.025 537.754 282.755L538.129 283.52C537.919 283.71 537.664 283.85 537.364 283.94C537.074 284.03 536.774 284.075 536.464 284.075ZM532.744 277.01V276.125H537.619V277.01H532.744ZM543.323 284.075C542.653 284.075 542.068 283.95 541.568 283.7C541.068 283.45 540.678 283.075 540.398 282.575C540.128 282.075 539.993 281.45 539.993 280.7V276.125H541.058V280.58C541.058 281.42 541.263 282.055 541.673 282.485C542.093 282.905 542.678 283.115 543.428 283.115C543.978 283.115 544.453 283.005 544.853 282.785C545.263 282.555 545.573 282.225 545.783 281.795C546.003 281.365 546.113 280.85 546.113 280.25V276.125H547.178V284H546.158V281.84L546.323 282.23C546.073 282.81 545.683 283.265 545.153 283.595C544.633 283.915 544.023 284.075 543.323 284.075ZM546.443 276.935V276.125H546.668C547.018 276.125 547.268 276.025 547.418 275.825C547.578 275.625 547.658 275.385 547.658 275.105C547.658 274.915 547.628 274.74 547.568 274.58C547.518 274.42 547.448 274.275 547.358 274.145L548.063 273.875C548.183 274.045 548.278 274.24 548.348 274.46C548.418 274.67 548.453 274.895 548.453 275.135C548.453 275.665 548.303 276.1 548.003 276.44C547.703 276.77 547.258 276.935 546.668 276.935H546.443ZM543.593 286.85C543.423 286.85 543.273 286.79 543.143 286.67C543.013 286.55 542.948 286.395 542.948 286.205C542.948 286.015 543.013 285.86 543.143 285.74C543.273 285.62 543.423 285.56 543.593 285.56C543.773 285.56 543.923 285.62 544.043 285.74C544.173 285.86 544.238 286.015 544.238 286.205C544.238 286.395 544.173 286.55 544.043 286.67C543.923 286.79 543.773 286.85 543.593 286.85ZM184.095 304.985C183.375 304.985 182.685 304.88 182.025 304.67C181.365 304.46 180.83 304.16 180.42 303.77L180.96 302.96C181.33 303.29 181.785 303.55 182.325 303.74C182.875 303.94 183.455 304.04 184.065 304.04C185.065 304.04 185.8 303.805 186.27 303.335C186.74 302.875 186.975 302.155 186.975 301.175V299.21L187.125 297.86L187.02 296.51V294.125H188.04V301.04C188.04 302.4 187.705 303.395 187.035 304.025C186.375 304.665 185.395 304.985 184.095 304.985ZM183.9 301.7C183.15 301.7 182.475 301.54 181.875 301.22C181.275 300.89 180.8 300.435 180.45 299.855C180.11 299.275 179.94 298.61 179.94 297.86C179.94 297.11 180.11 296.45 180.45 295.88C180.8 295.3 181.275 294.85 181.875 294.53C182.475 294.21 183.15 294.05 183.9 294.05C184.6 294.05 185.23 294.195 185.79 294.485C186.35 294.775 186.795 295.205 187.125 295.775C187.455 296.345 187.62 297.04 187.62 297.86C187.62 298.68 187.455 299.375 187.125 299.945C186.795 300.515 186.35 300.95 185.79 301.25C185.23 301.55 184.6 301.7 183.9 301.7ZM184.005 300.755C184.585 300.755 185.1 300.635 185.55 300.395C186 300.145 186.355 299.805 186.615 299.375C186.875 298.935 187.005 298.43 187.005 297.86C187.005 297.29 186.875 296.79 186.615 296.36C186.355 295.93 186 295.595 185.55 295.355C185.1 295.105 184.585 294.98 184.005 294.98C183.435 294.98 182.92 295.105 182.46 295.355C182.01 295.595 181.655 295.93 181.395 296.36C181.145 296.79 181.02 297.29 181.02 297.86C181.02 298.43 181.145 298.935 181.395 299.375C181.655 299.805 182.01 300.145 182.46 300.395C182.92 300.635 183.435 300.755 184.005 300.755ZM191.003 302V294.125H192.068V302H191.003ZM191.543 292.385C191.323 292.385 191.138 292.31 190.988 292.16C190.838 292.01 190.763 291.83 190.763 291.62C190.763 291.41 190.838 291.235 190.988 291.095C191.138 290.945 191.323 290.87 191.543 290.87C191.763 290.87 191.948 290.94 192.098 291.08C192.248 291.22 192.323 291.395 192.323 291.605C192.323 291.825 192.248 292.01 192.098 292.16C191.958 292.31 191.773 292.385 191.543 292.385ZM199.966 302V300.26L199.921 299.975V297.065C199.921 296.395 199.731 295.88 199.351 295.52C198.981 295.16 198.426 294.98 197.686 294.98C197.176 294.98 196.691 295.065 196.231 295.235C195.771 295.405 195.381 295.63 195.061 295.91L194.581 295.115C194.981 294.775 195.461 294.515 196.021 294.335C196.581 294.145 197.171 294.05 197.791 294.05C198.811 294.05 199.596 294.305 200.146 294.815C200.706 295.315 200.986 296.08 200.986 297.11V302H199.966ZM197.251 302.075C196.661 302.075 196.146 301.98 195.706 301.79C195.276 301.59 194.946 301.32 194.716 300.98C194.486 300.63 194.371 300.23 194.371 299.78C194.371 299.37 194.466 299 194.656 298.67C194.856 298.33 195.176 298.06 195.616 297.86C196.066 297.65 196.666 297.545 197.416 297.545H200.131V298.34H197.446C196.686 298.34 196.156 298.475 195.856 298.745C195.566 299.015 195.421 299.35 195.421 299.75C195.421 300.2 195.596 300.56 195.946 300.83C196.296 301.1 196.786 301.235 197.416 301.235C198.016 301.235 198.531 301.1 198.961 300.83C199.401 300.55 199.721 300.15 199.921 299.63L200.161 300.365C199.961 300.885 199.611 301.3 199.111 301.61C198.621 301.92 198.001 302.075 197.251 302.075ZM196.846 292.895L198.901 291.035H200.326L197.896 292.895H196.846ZM207.149 302.075C206.369 302.075 205.669 301.905 205.049 301.565C204.439 301.215 203.959 300.74 203.609 300.14C203.259 299.53 203.084 298.835 203.084 298.055C203.084 297.265 203.259 296.57 203.609 295.97C203.959 295.37 204.439 294.9 205.049 294.56C205.669 294.22 206.369 294.05 207.149 294.05C207.819 294.05 208.424 294.18 208.964 294.44C209.504 294.7 209.929 295.09 210.239 295.61L209.444 296.15C209.174 295.75 208.839 295.455 208.439 295.265C208.039 295.075 207.604 294.98 207.134 294.98C206.574 294.98 206.069 295.11 205.619 295.37C205.169 295.62 204.814 295.975 204.554 296.435C204.294 296.895 204.164 297.435 204.164 298.055C204.164 298.675 204.294 299.215 204.554 299.675C204.814 300.135 205.169 300.495 205.619 300.755C206.069 301.005 206.574 301.13 207.134 301.13C207.604 301.13 208.039 301.035 208.439 300.845C208.839 300.655 209.174 300.365 209.444 299.975L210.239 300.515C209.929 301.025 209.504 301.415 208.964 301.685C208.424 301.945 207.819 302.075 207.149 302.075ZM220.277 294.05C220.917 294.05 221.477 294.175 221.957 294.425C222.447 294.665 222.827 295.035 223.097 295.535C223.377 296.035 223.517 296.665 223.517 297.425V302H222.452V297.53C222.452 296.7 222.242 296.075 221.822 295.655C221.412 295.225 220.832 295.01 220.082 295.01C219.522 295.01 219.032 295.125 218.612 295.355C218.202 295.575 217.882 295.9 217.652 296.33C217.432 296.75 217.322 297.26 217.322 297.86V302H216.257V294.125H217.277V296.285L217.112 295.88C217.362 295.31 217.762 294.865 218.312 294.545C218.862 294.215 219.517 294.05 220.277 294.05ZM231.329 302V300.26L231.284 299.975V297.065C231.284 296.395 231.094 295.88 230.714 295.52C230.344 295.16 229.789 294.98 229.049 294.98C228.539 294.98 228.054 295.065 227.594 295.235C227.134 295.405 226.744 295.63 226.424 295.91L225.944 295.115C226.344 294.775 226.824 294.515 227.384 294.335C227.944 294.145 228.534 294.05 229.154 294.05C230.174 294.05 230.959 294.305 231.509 294.815C232.069 295.315 232.349 296.08 232.349 297.11V302H231.329ZM228.614 302.075C228.024 302.075 227.509 301.98 227.069 301.79C226.639 301.59 226.309 301.32 226.079 300.98C225.849 300.63 225.734 300.23 225.734 299.78C225.734 299.37 225.829 299 226.019 298.67C226.219 298.33 226.539 298.06 226.979 297.86C227.429 297.65 228.029 297.545 228.779 297.545H231.494V298.34H228.809C228.049 298.34 227.519 298.475 227.219 298.745C226.929 299.015 226.784 299.35 226.784 299.75C226.784 300.2 226.959 300.56 227.309 300.83C227.659 301.1 228.149 301.235 228.779 301.235C229.379 301.235 229.894 301.1 230.324 300.83C230.764 300.55 231.084 300.15 231.284 299.63L231.524 300.365C231.324 300.885 230.974 301.3 230.474 301.61C229.984 301.92 229.364 302.075 228.614 302.075ZM226.709 292.895L228.644 291.035H229.724L231.659 292.895H230.669L228.764 291.305H229.604L227.699 292.895H226.709ZM239.261 294.05C239.901 294.05 240.461 294.175 240.941 294.425C241.431 294.665 241.811 295.035 242.081 295.535C242.361 296.035 242.501 296.665 242.501 297.425V302H241.436V297.53C241.436 296.7 241.226 296.075 240.806 295.655C240.396 295.225 239.816 295.01 239.066 295.01C238.506 295.01 238.016 295.125 237.596 295.355C237.186 295.575 236.866 295.9 236.636 296.33C236.416 296.75 236.306 297.26 236.306 297.86V302H235.241V294.125H236.261V296.285L236.096 295.88C236.346 295.31 236.746 294.865 237.296 294.545C237.846 294.215 238.501 294.05 239.261 294.05ZM248.738 304.985C248.018 304.985 247.328 304.88 246.668 304.67C246.008 304.46 245.473 304.16 245.063 303.77L245.603 302.96C245.973 303.29 246.428 303.55 246.968 303.74C247.518 303.94 248.098 304.04 248.708 304.04C249.708 304.04 250.443 303.805 250.913 303.335C251.383 302.875 251.618 302.155 251.618 301.175V299.21L251.768 297.86L251.663 296.51V294.125H252.683V301.04C252.683 302.4 252.348 303.395 251.678 304.025C251.018 304.665 250.038 304.985 248.738 304.985ZM248.543 301.7C247.793 301.7 247.118 301.54 246.518 301.22C245.918 300.89 245.443 300.435 245.093 299.855C244.753 299.275 244.583 298.61 244.583 297.86C244.583 297.11 244.753 296.45 245.093 295.88C245.443 295.3 245.918 294.85 246.518 294.53C247.118 294.21 247.793 294.05 248.543 294.05C249.243 294.05 249.873 294.195 250.433 294.485C250.993 294.775 251.438 295.205 251.768 295.775C252.098 296.345 252.263 297.04 252.263 297.86C252.263 298.68 252.098 299.375 251.768 299.945C251.438 300.515 250.993 300.95 250.433 301.25C249.873 301.55 249.243 301.7 248.543 301.7ZM248.648 300.755C249.228 300.755 249.743 300.635 250.193 300.395C250.643 300.145 250.998 299.805 251.258 299.375C251.518 298.935 251.648 298.43 251.648 297.86C251.648 297.29 251.518 296.79 251.258 296.36C250.998 295.93 250.643 295.595 250.193 295.355C249.743 295.105 249.228 294.98 248.648 294.98C248.078 294.98 247.563 295.105 247.103 295.355C246.653 295.595 246.298 295.93 246.038 296.36C245.788 296.79 245.663 297.29 245.663 297.86C245.663 298.43 245.788 298.935 246.038 299.375C246.298 299.805 246.653 300.145 247.103 300.395C247.563 300.635 248.078 300.755 248.648 300.755ZM262.062 302.075C261.322 302.075 260.752 301.875 260.352 301.475C259.952 301.075 259.752 300.51 259.752 299.78V292.385H260.817V299.72C260.817 300.18 260.932 300.535 261.162 300.785C261.402 301.035 261.742 301.16 262.182 301.16C262.652 301.16 263.042 301.025 263.352 300.755L263.727 301.52C263.517 301.71 263.262 301.85 262.962 301.94C262.672 302.03 262.372 302.075 262.062 302.075ZM258.342 295.01V294.125H263.217V295.01H258.342ZM270.601 302V300.26L270.556 299.975V297.065C270.556 296.395 270.366 295.88 269.986 295.52C269.616 295.16 269.061 294.98 268.321 294.98C267.811 294.98 267.326 295.065 266.866 295.235C266.406 295.405 266.016 295.63 265.696 295.91L265.216 295.115C265.616 294.775 266.096 294.515 266.656 294.335C267.216 294.145 267.806 294.05 268.426 294.05C269.446 294.05 270.231 294.305 270.781 294.815C271.341 295.315 271.621 296.08 271.621 297.11V302H270.601ZM267.886 302.075C267.296 302.075 266.781 301.98 266.341 301.79C265.911 301.59 265.581 301.32 265.351 300.98C265.121 300.63 265.006 300.23 265.006 299.78C265.006 299.37 265.101 299 265.291 298.67C265.491 298.33 265.811 298.06 266.251 297.86C266.701 297.65 267.301 297.545 268.051 297.545H270.766V298.34H268.081C267.321 298.34 266.791 298.475 266.491 298.745C266.201 299.015 266.056 299.35 266.056 299.75C266.056 300.2 266.231 300.56 266.581 300.83C266.931 301.1 267.421 301.235 268.051 301.235C268.651 301.235 269.166 301.1 269.596 300.83C270.036 300.55 270.356 300.15 270.556 299.63L270.796 300.365C270.596 300.885 270.246 301.3 269.746 301.61C269.256 301.92 268.636 302.075 267.886 302.075ZM265.981 292.895L267.931 291.485H268.981L270.931 292.895H269.911L268.036 291.755H268.876L267.001 292.895H265.981ZM270.721 291.65L268.546 290.03H269.851L271.651 291.65H270.721ZM284.354 294.05C284.994 294.05 285.549 294.175 286.019 294.425C286.499 294.665 286.869 295.035 287.129 295.535C287.399 296.035 287.534 296.665 287.534 297.425V302H286.469V297.53C286.469 296.7 286.269 296.075 285.869 295.655C285.479 295.225 284.924 295.01 284.204 295.01C283.664 295.01 283.194 295.125 282.794 295.355C282.404 295.575 282.099 295.9 281.879 296.33C281.669 296.75 281.564 297.26 281.564 297.86V302H280.499V297.53C280.499 296.7 280.299 296.075 279.899 295.655C279.499 295.225 278.939 295.01 278.219 295.01C277.689 295.01 277.224 295.125 276.824 295.355C276.424 295.575 276.114 295.9 275.894 296.33C275.684 296.75 275.579 297.26 275.579 297.86V302H274.514V294.125H275.534V296.255L275.369 295.88C275.609 295.31 275.994 294.865 276.524 294.545C277.064 294.215 277.699 294.05 278.429 294.05C279.199 294.05 279.854 294.245 280.394 294.635C280.934 295.015 281.284 295.59 281.444 296.36L281.024 296.195C281.254 295.555 281.659 295.04 282.239 294.65C282.829 294.25 283.534 294.05 284.354 294.05ZM298.413 302.075C297.723 302.075 297.103 301.92 296.553 301.61C296.003 301.29 295.568 300.83 295.248 300.23C294.928 299.63 294.768 298.905 294.768 298.055C294.768 297.195 294.928 296.47 295.248 295.88C295.578 295.28 296.018 294.825 296.568 294.515C297.118 294.205 297.733 294.05 298.413 294.05C299.163 294.05 299.833 294.22 300.423 294.56C301.023 294.89 301.493 295.355 301.833 295.955C302.173 296.555 302.343 297.255 302.343 298.055C302.343 298.845 302.173 299.545 301.833 300.155C301.493 300.755 301.023 301.225 300.423 301.565C299.833 301.905 299.163 302.075 298.413 302.075ZM294.348 302V290.87H295.413V296.45L295.263 298.04L295.368 299.63V302H294.348ZM298.338 301.13C298.898 301.13 299.398 301.005 299.838 300.755C300.278 300.495 300.628 300.135 300.888 299.675C301.148 299.205 301.278 298.665 301.278 298.055C301.278 297.435 301.148 296.895 300.888 296.435C300.628 295.975 300.278 295.62 299.838 295.37C299.398 295.11 298.898 294.98 298.338 294.98C297.778 294.98 297.273 295.11 296.823 295.37C296.383 295.62 296.033 295.975 295.773 296.435C295.523 296.895 295.398 297.435 295.398 298.055C295.398 298.665 295.523 299.205 295.773 299.675C296.033 300.135 296.383 300.495 296.823 300.755C297.273 301.005 297.778 301.13 298.338 301.13ZM309.405 302V300.26L309.36 299.975V297.065C309.36 296.395 309.17 295.88 308.79 295.52C308.42 295.16 307.865 294.98 307.125 294.98C306.615 294.98 306.13 295.065 305.67 295.235C305.21 295.405 304.82 295.63 304.5 295.91L304.02 295.115C304.42 294.775 304.9 294.515 305.46 294.335C306.02 294.145 306.61 294.05 307.23 294.05C308.25 294.05 309.035 294.305 309.585 294.815C310.145 295.315 310.425 296.08 310.425 297.11V302H309.405ZM306.69 302.075C306.1 302.075 305.585 301.98 305.145 301.79C304.715 301.59 304.385 301.32 304.155 300.98C303.925 300.63 303.81 300.23 303.81 299.78C303.81 299.37 303.905 299 304.095 298.67C304.295 298.33 304.615 298.06 305.055 297.86C305.505 297.65 306.105 297.545 306.855 297.545H309.57V298.34H306.885C306.125 298.34 305.595 298.475 305.295 298.745C305.005 299.015 304.86 299.35 304.86 299.75C304.86 300.2 305.035 300.56 305.385 300.83C305.735 301.1 306.225 301.235 306.855 301.235C307.455 301.235 307.97 301.1 308.4 300.83C308.84 300.55 309.16 300.15 309.36 299.63L309.6 300.365C309.4 300.885 309.05 301.3 308.55 301.61C308.06 301.92 307.44 302.075 306.69 302.075ZM307.455 293L307.08 292.535C307.38 292.395 307.6 292.24 307.74 292.07C307.89 291.9 307.965 291.7 307.965 291.47C307.965 291.26 307.89 291.085 307.74 290.945C307.59 290.805 307.39 290.735 307.14 290.735C306.83 290.735 306.53 290.83 306.24 291.02L305.985 290.495C306.155 290.365 306.35 290.27 306.57 290.21C306.8 290.14 307.02 290.105 307.23 290.105C307.65 290.105 307.99 290.225 308.25 290.465C308.52 290.695 308.655 291.005 308.655 291.395C308.655 291.745 308.555 292.055 308.355 292.325C308.165 292.585 307.865 292.81 307.455 293ZM317.338 294.05C317.978 294.05 318.538 294.175 319.018 294.425C319.508 294.665 319.888 295.035 320.158 295.535C320.438 296.035 320.578 296.665 320.578 297.425V302H319.513V297.53C319.513 296.7 319.303 296.075 318.883 295.655C318.473 295.225 317.893 295.01 317.143 295.01C316.583 295.01 316.093 295.125 315.673 295.355C315.263 295.575 314.943 295.9 314.713 296.33C314.493 296.75 314.383 297.26 314.383 297.86V302H313.318V294.125H314.338V296.285L314.173 295.88C314.423 295.31 314.823 294.865 315.373 294.545C315.923 294.215 316.578 294.05 317.338 294.05ZM329.87 302.075C329.13 302.075 328.56 301.875 328.16 301.475C327.76 301.075 327.56 300.51 327.56 299.78V292.385H328.625V299.72C328.625 300.18 328.74 300.535 328.97 300.785C329.21 301.035 329.55 301.16 329.99 301.16C330.46 301.16 330.85 301.025 331.16 300.755L331.535 301.52C331.325 301.71 331.07 301.85 330.77 301.94C330.48 302.03 330.18 302.075 329.87 302.075ZM326.15 295.01V294.125H331.025V295.01H326.15ZM337.494 294.05C338.134 294.05 338.694 294.175 339.174 294.425C339.664 294.665 340.044 295.035 340.314 295.535C340.594 296.035 340.734 296.665 340.734 297.425V302H339.669V297.53C339.669 296.7 339.459 296.075 339.039 295.655C338.629 295.225 338.049 295.01 337.299 295.01C336.739 295.01 336.249 295.125 335.829 295.355C335.419 295.575 335.099 295.9 334.869 296.33C334.649 296.75 334.539 297.26 334.539 297.86V302H333.474V290.87H334.539V296.285L334.329 295.88C334.579 295.31 334.979 294.865 335.529 294.545C336.079 294.215 336.734 294.05 337.494 294.05ZM348.545 302V300.26L348.5 299.975V297.065C348.5 296.395 348.31 295.88 347.93 295.52C347.56 295.16 347.005 294.98 346.265 294.98C345.755 294.98 345.27 295.065 344.81 295.235C344.35 295.405 343.96 295.63 343.64 295.91L343.16 295.115C343.56 294.775 344.04 294.515 344.6 294.335C345.16 294.145 345.75 294.05 346.37 294.05C347.39 294.05 348.175 294.305 348.725 294.815C349.285 295.315 349.565 296.08 349.565 297.11V302H348.545ZM345.83 302.075C345.24 302.075 344.725 301.98 344.285 301.79C343.855 301.59 343.525 301.32 343.295 300.98C343.065 300.63 342.95 300.23 342.95 299.78C342.95 299.37 343.045 299 343.235 298.67C343.435 298.33 343.755 298.06 344.195 297.86C344.645 297.65 345.245 297.545 345.995 297.545H348.71V298.34H346.025C345.265 298.34 344.735 298.475 344.435 298.745C344.145 299.015 344 299.35 344 299.75C344 300.2 344.175 300.56 344.525 300.83C344.875 301.1 345.365 301.235 345.995 301.235C346.595 301.235 347.11 301.1 347.54 300.83C347.98 300.55 348.3 300.15 348.5 299.63L348.74 300.365C348.54 300.885 348.19 301.3 347.69 301.61C347.2 301.92 346.58 302.075 345.83 302.075ZM343.925 292.895L345.86 291.035H346.94L348.875 292.895H347.885L345.98 291.305H346.82L344.915 292.895H343.925ZM356.478 294.05C357.118 294.05 357.678 294.175 358.158 294.425C358.648 294.665 359.028 295.035 359.298 295.535C359.578 296.035 359.718 296.665 359.718 297.425V302H358.653V297.53C358.653 296.7 358.443 296.075 358.023 295.655C357.613 295.225 357.033 295.01 356.283 295.01C355.723 295.01 355.233 295.125 354.813 295.355C354.403 295.575 354.083 295.9 353.853 296.33C353.633 296.75 353.523 297.26 353.523 297.86V302H352.458V294.125H353.478V296.285L353.313 295.88C353.563 295.31 353.963 294.865 354.513 294.545C355.063 294.215 355.718 294.05 356.478 294.05ZM366.626 302.075C366.406 302.075 366.216 301.995 366.056 301.835C365.906 301.675 365.831 301.48 365.831 301.25C365.831 301.01 365.906 300.815 366.056 300.665C366.216 300.515 366.406 300.44 366.626 300.44C366.846 300.44 367.031 300.515 367.181 300.665C367.341 300.815 367.421 301.01 367.421 301.25C367.421 301.48 367.341 301.675 367.181 301.835C367.031 301.995 366.846 302.075 366.626 302.075ZM369.804 302.075C369.584 302.075 369.394 301.995 369.234 301.835C369.084 301.675 369.009 301.48 369.009 301.25C369.009 301.01 369.084 300.815 369.234 300.665C369.394 300.515 369.584 300.44 369.804 300.44C370.024 300.44 370.209 300.515 370.359 300.665C370.519 300.815 370.599 301.01 370.599 301.25C370.599 301.48 370.519 301.675 370.359 301.835C370.209 301.995 370.024 302.075 369.804 302.075ZM372.983 302.075C372.763 302.075 372.573 301.995 372.413 301.835C372.263 301.675 372.188 301.48 372.188 301.25C372.188 301.01 372.263 300.815 372.413 300.665C372.573 300.515 372.763 300.44 372.983 300.44C373.203 300.44 373.388 300.515 373.538 300.665C373.698 300.815 373.778 301.01 373.778 301.25C373.778 301.48 373.698 301.675 373.538 301.835C373.388 301.995 373.203 302.075 372.983 302.075ZM376.162 302.075C375.942 302.075 375.752 301.995 375.592 301.835C375.442 301.675 375.367 301.48 375.367 301.25C375.367 301.01 375.442 300.815 375.592 300.665C375.752 300.515 375.942 300.44 376.162 300.44C376.382 300.44 376.567 300.515 376.717 300.665C376.877 300.815 376.957 301.01 376.957 301.25C376.957 301.48 376.877 301.675 376.717 301.835C376.567 301.995 376.382 302.075 376.162 302.075Z" fill="white" fill-opacity="0.52"/>
<rect x="207" y="334" width="118" height="33" rx="6" fill="#3FF12F"/>
<path d="M235.2 355.919V348.535H232.288V346.819H240.218V348.535H237.306V355.919H235.2ZM241.208 355.919V348.925H243.236V355.919H241.208ZM242.222 347.95C241.849 347.95 241.546 347.842 241.312 347.625C241.078 347.408 240.961 347.14 240.961 346.819C240.961 346.498 241.078 346.23 241.312 346.013C241.546 345.796 241.849 345.688 242.222 345.688C242.594 345.688 242.898 345.792 243.132 346C243.366 346.199 243.483 346.459 243.483 346.78C243.483 347.118 243.366 347.4 243.132 347.625C242.906 347.842 242.603 347.95 242.222 347.95ZM248.589 356.023C247.792 356.023 247.09 355.867 246.483 355.555C245.885 355.243 245.421 354.818 245.092 354.281C244.763 353.735 244.598 353.115 244.598 352.422C244.598 351.72 244.758 351.1 245.079 350.563C245.408 350.017 245.855 349.592 246.418 349.289C246.981 348.977 247.618 348.821 248.329 348.821C249.014 348.821 249.629 348.968 250.175 349.263C250.73 349.549 251.167 349.965 251.488 350.511C251.809 351.048 251.969 351.694 251.969 352.448C251.969 352.526 251.965 352.617 251.956 352.721C251.947 352.816 251.939 352.907 251.93 352.994H246.249V351.811H250.864L250.084 352.162C250.084 351.798 250.01 351.482 249.863 351.213C249.716 350.944 249.512 350.736 249.252 350.589C248.992 350.433 248.689 350.355 248.342 350.355C247.995 350.355 247.688 350.433 247.419 350.589C247.159 350.736 246.955 350.949 246.808 351.226C246.661 351.495 246.587 351.815 246.587 352.188V352.5C246.587 352.881 246.669 353.219 246.834 353.514C247.007 353.8 247.246 354.021 247.549 354.177C247.861 354.324 248.225 354.398 248.641 354.398C249.014 354.398 249.339 354.342 249.616 354.229C249.902 354.116 250.162 353.947 250.396 353.722L251.475 354.892C251.154 355.256 250.751 355.538 250.266 355.737C249.781 355.928 249.222 356.023 248.589 356.023ZM245.677 348.028L247.406 346.546H249.174L250.903 348.028H249.408L247.653 346.858H248.927L247.172 348.028H245.677ZM249.85 346.78L251.293 345.207H253.36L251.319 346.78H249.85ZM257.453 356.023C256.864 356.023 256.348 355.893 255.906 355.633C255.464 355.373 255.117 354.979 254.866 354.45C254.623 353.913 254.502 353.237 254.502 352.422C254.502 351.599 254.619 350.923 254.853 350.394C255.087 349.865 255.425 349.471 255.867 349.211C256.309 348.951 256.838 348.821 257.453 348.821C258.112 348.821 258.701 348.973 259.221 349.276C259.75 349.571 260.166 349.987 260.469 350.524C260.781 351.061 260.937 351.694 260.937 352.422C260.937 353.159 260.781 353.796 260.469 354.333C260.166 354.87 259.75 355.286 259.221 355.581C258.701 355.876 258.112 356.023 257.453 356.023ZM253.319 358.441V348.925H255.256V350.355L255.217 352.435L255.347 354.502V358.441H253.319ZM257.102 354.359C257.44 354.359 257.739 354.281 257.999 354.125C258.268 353.969 258.48 353.748 258.636 353.462C258.801 353.167 258.883 352.821 258.883 352.422C258.883 352.015 258.801 351.668 258.636 351.382C258.48 351.096 258.268 350.875 257.999 350.719C257.739 350.563 257.44 350.485 257.102 350.485C256.764 350.485 256.461 350.563 256.192 350.719C255.923 350.875 255.711 351.096 255.555 351.382C255.399 351.668 255.321 352.015 255.321 352.422C255.321 352.821 255.399 353.167 255.555 353.462C255.711 353.748 255.923 353.969 256.192 354.125C256.461 354.281 256.764 354.359 257.102 354.359ZM268.004 355.919V348.535H265.092V346.819H273.022V348.535H270.11V355.919H268.004ZM278.263 348.821C278.818 348.821 279.312 348.934 279.745 349.159C280.187 349.376 280.534 349.714 280.785 350.173C281.037 350.624 281.162 351.204 281.162 351.915V355.919H279.134V352.227C279.134 351.664 279.009 351.248 278.757 350.979C278.515 350.71 278.168 350.576 277.717 350.576C277.397 350.576 277.106 350.645 276.846 350.784C276.595 350.914 276.396 351.118 276.248 351.395C276.11 351.672 276.04 352.028 276.04 352.461V355.919H274.012V346.273H276.04V350.862L275.585 350.277C275.837 349.809 276.196 349.449 276.664 349.198C277.132 348.947 277.665 348.821 278.263 348.821ZM286.523 356.023C285.725 356.023 285.023 355.867 284.417 355.555C283.819 355.243 283.355 354.818 283.026 354.281C282.696 353.735 282.532 353.115 282.532 352.422C282.532 351.72 282.692 351.1 283.013 350.563C283.342 350.017 283.788 349.592 284.352 349.289C284.915 348.977 285.552 348.821 286.263 348.821C286.947 348.821 287.563 348.968 288.109 349.263C288.663 349.549 289.101 349.965 289.422 350.511C289.742 351.048 289.903 351.694 289.903 352.448C289.903 352.526 289.898 352.617 289.89 352.721C289.881 352.816 289.872 352.907 289.864 352.994H284.183V351.811H288.798L288.018 352.162C288.018 351.798 287.944 351.482 287.797 351.213C287.649 350.944 287.446 350.736 287.186 350.589C286.926 350.433 286.622 350.355 286.276 350.355C285.929 350.355 285.621 350.433 285.353 350.589C285.093 350.736 284.889 350.949 284.742 351.226C284.594 351.495 284.521 351.815 284.521 352.188V352.5C284.521 352.881 284.603 353.219 284.768 353.514C284.941 353.8 285.179 354.021 285.483 354.177C285.795 354.324 286.159 354.398 286.575 354.398C286.947 354.398 287.272 354.342 287.55 354.229C287.836 354.116 288.096 353.947 288.33 353.722L289.409 354.892C289.088 355.256 288.685 355.538 288.2 355.737C287.714 355.928 287.155 356.023 286.523 356.023ZM294.581 356.023C293.835 356.023 293.172 355.867 292.592 355.555C292.02 355.243 291.565 354.818 291.227 354.281C290.897 353.735 290.733 353.115 290.733 352.422C290.733 351.72 290.897 351.1 291.227 350.563C291.565 350.017 292.02 349.592 292.592 349.289C293.172 348.977 293.835 348.821 294.581 348.821C295.317 348.821 295.976 348.977 296.557 349.289C297.137 349.592 297.592 350.013 297.922 350.55C298.251 351.087 298.416 351.711 298.416 352.422C298.416 353.115 298.251 353.735 297.922 354.281C297.592 354.818 297.137 355.243 296.557 355.555C295.976 355.867 295.317 356.023 294.581 356.023ZM294.581 354.359C294.919 354.359 295.222 354.281 295.491 354.125C295.759 353.969 295.972 353.748 296.128 353.462C296.284 353.167 296.362 352.821 296.362 352.422C296.362 352.015 296.284 351.668 296.128 351.382C295.972 351.096 295.759 350.875 295.491 350.719C295.222 350.563 294.919 350.485 294.581 350.485C294.243 350.485 293.939 350.563 293.671 350.719C293.402 350.875 293.185 351.096 293.021 351.382C292.865 351.668 292.787 352.015 292.787 352.422C292.787 352.821 292.865 353.167 293.021 353.462C293.185 353.748 293.402 353.969 293.671 354.125C293.939 354.281 294.243 354.359 294.581 354.359Z" fill="black" fill-opacity="0.76"/>
</svg>
