<svg width="91" height="150" viewBox="0 0 91 150" fill="none" xmlns="http://www.w3.org/2000/svg">
<rect width="91" height="150" rx="5" fill="#1C1E20"/>
<rect x="12" y="12" width="71" height="127" rx="5" fill="#36393E" fill-opacity="0.68"/>
<g clip-path="url(#clip0_436_257)">
<path d="M44.4376 91.1667C44.4376 91.9457 44.7602 92.6929 45.3346 93.2438C45.9089 93.7947 46.6879 94.1042 47.5001 94.1042C48.3123 94.1042 49.0913 93.7947 49.6656 93.2438C50.2399 92.6929 50.5626 91.9457 50.5626 91.1667V78.4375H63.8334C64.6456 78.4375 65.4246 78.128 65.9989 77.5771C66.5733 77.0262 66.8959 76.2791 66.8959 75.5C66.8959 74.7209 66.5733 73.9738 65.9989 73.4229C65.4246 72.872 64.6456 72.5625 63.8334 72.5625H50.5626V59.8333C50.5626 59.0543 50.2399 58.3071 49.6656 57.7562C49.0913 57.2053 48.3123 56.8958 47.5001 56.8958C46.6879 56.8958 45.9089 57.2053 45.3346 57.7562C44.7602 58.3071 44.4376 59.0543 44.4376 59.8333V72.5625H31.1667C30.3545 72.5625 29.5756 72.872 29.0012 73.4229C28.4269 73.9738 28.1042 74.7209 28.1042 75.5C28.1042 76.2791 28.4269 77.0262 29.0012 77.5771C29.5756 78.128 30.3545 78.4375 31.1667 78.4375H44.4376V91.1667Z" fill="#F8F8F8" fill-opacity="0.76"/>
</g>
<defs>
<clipPath id="clip0_436_257">
<rect width="49" height="47" fill="white" transform="translate(23 52)"/>
</clipPath>
</defs>
</svg>
