<svg width="549" height="321" viewBox="0 0 549 321" fill="none" xmlns="http://www.w3.org/2000/svg">
<path d="M169.196 217.22C168.023 217.22 166.93 217.029 165.918 216.648C164.921 216.252 164.048 215.702 163.3 214.998C162.567 214.279 161.995 213.436 161.584 212.468C161.173 211.5 160.968 210.444 160.968 209.3C160.968 208.156 161.173 207.1 161.584 206.132C161.995 205.164 162.574 204.328 163.322 203.624C164.07 202.905 164.943 202.355 165.94 201.974C166.937 201.578 168.03 201.38 169.218 201.38C170.479 201.38 171.631 201.6 172.672 202.04C173.713 202.465 174.593 203.103 175.312 203.954L173.464 205.692C172.907 205.091 172.283 204.643 171.594 204.35C170.905 204.042 170.157 203.888 169.35 203.888C168.543 203.888 167.803 204.02 167.128 204.284C166.468 204.548 165.889 204.922 165.39 205.406C164.906 205.89 164.525 206.462 164.246 207.122C163.982 207.782 163.85 208.508 163.85 209.3C163.85 210.092 163.982 210.818 164.246 211.478C164.525 212.138 164.906 212.71 165.39 213.194C165.889 213.678 166.468 214.052 167.128 214.316C167.803 214.58 168.543 214.712 169.35 214.712C170.157 214.712 170.905 214.565 171.594 214.272C172.283 213.964 172.907 213.502 173.464 212.886L175.312 214.646C174.593 215.482 173.713 216.12 172.672 216.56C171.631 217 170.472 217.22 169.196 217.22ZM184.454 205.12C185.393 205.12 186.229 205.303 186.962 205.67C187.71 206.037 188.297 206.601 188.722 207.364C189.148 208.112 189.36 209.08 189.36 210.268V217H186.61V210.62C186.61 209.579 186.361 208.801 185.862 208.288C185.378 207.775 184.696 207.518 183.816 207.518C183.171 207.518 182.599 207.65 182.1 207.914C181.602 208.178 181.213 208.574 180.934 209.102C180.67 209.615 180.538 210.268 180.538 211.06V217H177.788V200.676H180.538V208.42L179.944 207.452C180.355 206.704 180.949 206.132 181.726 205.736C182.518 205.325 183.428 205.12 184.454 205.12ZM198.15 217.154C196.948 217.154 195.877 216.897 194.938 216.384C194 215.856 193.259 215.137 192.716 214.228C192.174 213.319 191.902 212.285 191.902 211.126C191.902 209.953 192.174 208.919 192.716 208.024C193.259 207.115 194 206.403 194.938 205.89C195.877 205.377 196.948 205.12 198.15 205.12C199.368 205.12 200.446 205.377 201.384 205.89C202.338 206.403 203.078 207.107 203.606 208.002C204.149 208.897 204.42 209.938 204.42 211.126C204.42 212.285 204.149 213.319 203.606 214.228C203.078 215.137 202.338 215.856 201.384 216.384C200.446 216.897 199.368 217.154 198.15 217.154ZM198.15 214.8C198.825 214.8 199.426 214.653 199.954 214.36C200.482 214.067 200.893 213.641 201.186 213.084C201.494 212.527 201.648 211.874 201.648 211.126C201.648 210.363 201.494 209.711 201.186 209.168C200.893 208.611 200.482 208.185 199.954 207.892C199.426 207.599 198.832 207.452 198.172 207.452C197.498 207.452 196.896 207.599 196.368 207.892C195.855 208.185 195.444 208.611 195.136 209.168C194.828 209.711 194.674 210.363 194.674 211.126C194.674 211.874 194.828 212.527 195.136 213.084C195.444 213.641 195.855 214.067 196.368 214.36C196.896 214.653 197.49 214.8 198.15 214.8ZM198.128 221.466C197.762 221.466 197.446 221.349 197.182 221.114C196.933 220.879 196.808 220.564 196.808 220.168C196.808 219.772 196.933 219.449 197.182 219.2C197.446 218.951 197.762 218.826 198.128 218.826C198.495 218.826 198.803 218.951 199.052 219.2C199.316 219.449 199.448 219.772 199.448 220.168C199.448 220.564 199.316 220.879 199.052 221.114C198.803 221.349 198.495 221.466 198.128 221.466ZM213.716 205.12C214.655 205.12 215.491 205.303 216.224 205.67C216.972 206.037 217.559 206.601 217.984 207.364C218.409 208.112 218.622 209.08 218.622 210.268V217H215.872V210.62C215.872 209.579 215.623 208.801 215.124 208.288C214.64 207.775 213.958 207.518 213.078 207.518C212.433 207.518 211.861 207.65 211.362 207.914C210.863 208.178 210.475 208.574 210.196 209.102C209.932 209.615 209.8 210.268 209.8 211.06V217H207.05V205.252H209.668V208.42L209.206 207.452C209.617 206.704 210.211 206.132 210.988 205.736C211.78 205.325 212.689 205.12 213.716 205.12ZM243.019 205.12C243.957 205.12 244.786 205.303 245.505 205.67C246.238 206.037 246.81 206.601 247.221 207.364C247.631 208.112 247.837 209.08 247.837 210.268V217H245.087V210.62C245.087 209.579 244.859 208.801 244.405 208.288C243.95 207.775 243.297 207.518 242.447 207.518C241.845 207.518 241.31 207.65 240.841 207.914C240.386 208.178 240.027 208.567 239.763 209.08C239.513 209.593 239.389 210.246 239.389 211.038V217H236.639V210.62C236.639 209.579 236.411 208.801 235.957 208.288C235.502 207.775 234.849 207.518 233.999 207.518C233.397 207.518 232.862 207.65 232.393 207.914C231.938 208.178 231.579 208.567 231.315 209.08C231.065 209.593 230.941 210.246 230.941 211.038V217H228.191V205.252H230.809V208.376L230.347 207.452C230.743 206.689 231.315 206.11 232.063 205.714C232.825 205.318 233.691 205.12 234.659 205.12C235.759 205.12 236.712 205.391 237.519 205.934C238.34 206.477 238.883 207.298 239.147 208.398L238.069 208.024C238.45 207.144 239.081 206.44 239.961 205.912C240.841 205.384 241.86 205.12 243.019 205.12ZM256.652 217.154C255.45 217.154 254.379 216.897 253.44 216.384C252.502 215.856 251.761 215.137 251.218 214.228C250.676 213.319 250.404 212.285 250.404 211.126C250.404 209.953 250.676 208.919 251.218 208.024C251.761 207.115 252.502 206.403 253.44 205.89C254.379 205.377 255.45 205.12 256.652 205.12C257.87 205.12 258.948 205.377 259.886 205.89C260.84 206.403 261.58 207.107 262.108 208.002C262.651 208.897 262.922 209.938 262.922 211.126C262.922 212.285 262.651 213.319 262.108 214.228C261.58 215.137 260.84 215.856 259.886 216.384C258.948 216.897 257.87 217.154 256.652 217.154ZM256.652 214.8C257.327 214.8 257.928 214.653 258.456 214.36C258.984 214.067 259.395 213.641 259.688 213.084C259.996 212.527 260.15 211.874 260.15 211.126C260.15 210.363 259.996 209.711 259.688 209.168C259.395 208.611 258.984 208.185 258.456 207.892C257.928 207.599 257.334 207.452 256.674 207.452C256 207.452 255.398 207.599 254.87 207.892C254.357 208.185 253.946 208.611 253.638 209.168C253.33 209.711 253.176 210.363 253.176 211.126C253.176 211.874 253.33 212.527 253.638 213.084C253.946 213.641 254.357 214.067 254.87 214.36C255.398 214.653 255.992 214.8 256.652 214.8ZM252.428 203.646L255.398 201.292H257.862L260.832 203.646H258.544L255.596 201.776H257.664L254.716 203.646H252.428ZM259.028 201.622L261.536 199.048H264.484L261.14 201.622H259.028ZM270.942 217.154C269.71 217.154 268.61 216.897 267.642 216.384C266.689 215.856 265.941 215.137 265.398 214.228C264.855 213.319 264.584 212.285 264.584 211.126C264.584 209.953 264.855 208.919 265.398 208.024C265.941 207.115 266.689 206.403 267.642 205.89C268.61 205.377 269.71 205.12 270.942 205.12C272.086 205.12 273.091 205.355 273.956 205.824C274.836 206.279 275.503 206.953 275.958 207.848L273.846 209.08C273.494 208.523 273.061 208.112 272.548 207.848C272.049 207.584 271.507 207.452 270.92 207.452C270.245 207.452 269.637 207.599 269.094 207.892C268.551 208.185 268.126 208.611 267.818 209.168C267.51 209.711 267.356 210.363 267.356 211.126C267.356 211.889 267.51 212.549 267.818 213.106C268.126 213.649 268.551 214.067 269.094 214.36C269.637 214.653 270.245 214.8 270.92 214.8C271.507 214.8 272.049 214.668 272.548 214.404C273.061 214.14 273.494 213.729 273.846 213.172L275.958 214.404C275.503 215.284 274.836 215.966 273.956 216.45C273.091 216.919 272.086 217.154 270.942 217.154ZM288.837 217.154C287.547 217.154 286.549 216.824 285.845 216.164C285.141 215.489 284.789 214.499 284.789 213.194V202.656H287.539V213.128C287.539 213.685 287.679 214.118 287.957 214.426C288.251 214.734 288.654 214.888 289.167 214.888C289.783 214.888 290.297 214.727 290.707 214.404L291.477 216.362C291.155 216.626 290.759 216.824 290.289 216.956C289.82 217.088 289.336 217.154 288.837 217.154ZM282.853 207.54V205.34H290.685V207.54H282.853ZM300.406 205.12C301.344 205.12 302.18 205.303 302.914 205.67C303.662 206.037 304.248 206.601 304.674 207.364C305.099 208.112 305.312 209.08 305.312 210.268V217H302.562V210.62C302.562 209.579 302.312 208.801 301.814 208.288C301.33 207.775 300.648 207.518 299.768 207.518C299.122 207.518 298.55 207.65 298.052 207.914C297.553 208.178 297.164 208.574 296.886 209.102C296.622 209.615 296.49 210.268 296.49 211.06V217H293.74V200.676H296.49V208.42L295.896 207.452C296.306 206.704 296.9 206.132 297.678 205.736C298.47 205.325 299.379 205.12 300.406 205.12ZM314.102 217.154C312.899 217.154 311.828 216.897 310.89 216.384C309.951 215.856 309.21 215.137 308.668 214.228C308.125 213.319 307.854 212.285 307.854 211.126C307.854 209.953 308.125 208.919 308.668 208.024C309.21 207.115 309.951 206.403 310.89 205.89C311.843 205.377 312.928 205.12 314.146 205.12C314.527 205.12 314.857 205.135 315.136 205.164C315.414 205.179 315.678 205.201 315.928 205.23C316.192 205.259 316.47 205.274 316.764 205.274C317.306 205.274 317.695 205.135 317.93 204.856C318.179 204.577 318.304 204.233 318.304 203.822C318.304 203.558 318.26 203.316 318.172 203.096C318.084 202.861 317.974 202.649 317.842 202.458L319.514 201.842C319.704 202.121 319.866 202.436 319.998 202.788C320.13 203.14 320.196 203.514 320.196 203.91C320.196 204.541 320.049 205.091 319.756 205.56C319.462 206.029 319.044 206.389 318.502 206.638C317.959 206.887 317.306 207.012 316.544 207.012C316.265 207.012 315.986 206.997 315.708 206.968C315.444 206.939 315.165 206.902 314.872 206.858L316.588 205.56C317.732 206 318.648 206.711 319.338 207.694C320.027 208.662 320.372 209.806 320.372 211.126C320.372 212.285 320.1 213.319 319.558 214.228C319.03 215.137 318.289 215.856 317.336 216.384C316.397 216.897 315.319 217.154 314.102 217.154ZM314.102 214.8C314.762 214.8 315.356 214.653 315.884 214.36C316.412 214.067 316.83 213.641 317.138 213.084C317.446 212.527 317.6 211.874 317.6 211.126C317.6 210.363 317.446 209.711 317.138 209.168C316.844 208.611 316.434 208.185 315.906 207.892C315.378 207.599 314.776 207.452 314.102 207.452C313.442 207.452 312.848 207.599 312.32 207.892C311.806 208.185 311.396 208.611 311.088 209.168C310.78 209.711 310.626 210.363 310.626 211.126C310.626 211.874 310.78 212.527 311.088 213.084C311.396 213.641 311.806 214.067 312.32 214.36C312.848 214.653 313.442 214.8 314.102 214.8ZM313.574 203.646L309.746 200.632H312.98L315.95 203.646H313.574ZM323.001 217V205.252H325.751V217H323.001ZM324.387 203.316C323.874 203.316 323.449 203.155 323.111 202.832C322.789 202.509 322.627 202.121 322.627 201.666C322.627 201.197 322.789 200.808 323.111 200.5C323.449 200.177 323.874 200.016 324.387 200.016C324.901 200.016 325.319 200.17 325.641 200.478C325.979 200.771 326.147 201.145 326.147 201.6C326.147 202.084 325.986 202.495 325.663 202.832C325.341 203.155 324.915 203.316 324.387 203.316ZM340.765 221.422C339.679 221.422 338.616 221.275 337.575 220.982C336.548 220.703 335.705 220.293 335.045 219.75L336.277 217.682C336.79 218.107 337.435 218.445 338.213 218.694C339.005 218.958 339.804 219.09 340.611 219.09C341.901 219.09 342.847 218.789 343.449 218.188C344.05 217.601 344.351 216.714 344.351 215.526V213.436L344.571 210.774L344.483 208.112V205.252H347.101V215.218C347.101 217.345 346.558 218.907 345.473 219.904C344.387 220.916 342.818 221.422 340.765 221.422ZM340.413 216.472C339.298 216.472 338.286 216.237 337.377 215.768C336.482 215.284 335.771 214.617 335.243 213.766C334.729 212.915 334.473 211.918 334.473 210.774C334.473 209.645 334.729 208.655 335.243 207.804C335.771 206.953 336.482 206.293 337.377 205.824C338.286 205.355 339.298 205.12 340.413 205.12C341.41 205.12 342.305 205.318 343.097 205.714C343.889 206.11 344.519 206.726 344.989 207.562C345.473 208.398 345.715 209.469 345.715 210.774C345.715 212.079 345.473 213.157 344.989 214.008C344.519 214.844 343.889 215.467 343.097 215.878C342.305 216.274 341.41 216.472 340.413 216.472ZM340.831 214.14C341.52 214.14 342.136 214.001 342.679 213.722C343.221 213.429 343.639 213.033 343.933 212.534C344.241 212.021 344.395 211.434 344.395 210.774C344.395 210.114 344.241 209.535 343.933 209.036C343.639 208.523 343.221 208.134 342.679 207.87C342.136 207.591 341.52 207.452 340.831 207.452C340.141 207.452 339.518 207.591 338.961 207.87C338.418 208.134 337.993 208.523 337.685 209.036C337.391 209.535 337.245 210.114 337.245 210.774C337.245 211.434 337.391 212.021 337.685 212.534C337.993 213.033 338.418 213.429 338.961 213.722C339.518 214.001 340.141 214.14 340.831 214.14ZM350.716 217V205.252H353.466V217H350.716ZM352.102 203.316C351.589 203.316 351.163 203.155 350.826 202.832C350.503 202.509 350.342 202.121 350.342 201.666C350.342 201.197 350.503 200.808 350.826 200.5C351.163 200.177 351.589 200.016 352.102 200.016C352.615 200.016 353.033 200.17 353.356 200.478C353.693 200.771 353.862 201.145 353.862 201.6C353.862 202.084 353.701 202.495 353.378 202.832C353.055 203.155 352.63 203.316 352.102 203.316ZM364.313 217V214.624L364.159 214.118V209.96C364.159 209.153 363.917 208.53 363.433 208.09C362.949 207.635 362.216 207.408 361.233 207.408C360.573 207.408 359.921 207.511 359.275 207.716C358.645 207.921 358.109 208.207 357.669 208.574L356.591 206.572C357.222 206.088 357.97 205.729 358.835 205.494C359.715 205.245 360.625 205.12 361.563 205.12C363.265 205.12 364.577 205.531 365.501 206.352C366.44 207.159 366.909 208.413 366.909 210.114V217H364.313ZM360.617 217.154C359.737 217.154 358.967 217.007 358.307 216.714C357.647 216.406 357.134 215.988 356.767 215.46C356.415 214.917 356.239 214.309 356.239 213.634C356.239 212.974 356.393 212.38 356.701 211.852C357.024 211.324 357.545 210.906 358.263 210.598C358.982 210.29 359.935 210.136 361.123 210.136H364.533V211.962H361.321C360.383 211.962 359.752 212.116 359.429 212.424C359.107 212.717 358.945 213.084 358.945 213.524C358.945 214.023 359.143 214.419 359.539 214.712C359.935 215.005 360.485 215.152 361.189 215.152C361.864 215.152 362.465 214.998 362.993 214.69C363.536 214.382 363.925 213.927 364.159 213.326L364.621 214.976C364.357 215.665 363.881 216.201 363.191 216.582C362.517 216.963 361.659 217.154 360.617 217.154ZM377.105 205.12C378.043 205.12 378.879 205.303 379.613 205.67C380.361 206.037 380.947 206.601 381.373 207.364C381.798 208.112 382.011 209.08 382.011 210.268V217H379.261V210.62C379.261 209.579 379.011 208.801 378.513 208.288C378.029 207.775 377.347 207.518 376.467 207.518C375.821 207.518 375.249 207.65 374.751 207.914C374.252 208.178 373.863 208.574 373.585 209.102C373.321 209.615 373.189 210.268 373.189 211.06V217H370.439V205.252H373.057V208.42L372.595 207.452C373.005 206.704 373.599 206.132 374.377 205.736C375.169 205.325 376.078 205.12 377.105 205.12ZM385.675 211.896L385.147 201.6H388.403L387.853 211.896H385.675ZM386.775 217.154C386.262 217.154 385.837 216.985 385.499 216.648C385.162 216.311 384.993 215.907 384.993 215.438C384.993 214.969 385.162 214.573 385.499 214.25C385.837 213.913 386.262 213.744 386.775 213.744C387.289 213.744 387.707 213.913 388.029 214.25C388.352 214.573 388.513 214.969 388.513 215.438C388.513 215.907 388.352 216.311 388.029 216.648C387.707 216.985 387.289 217.154 386.775 217.154ZM391.798 211.896L391.27 201.6H394.526L393.976 211.896H391.798ZM392.898 217.154C392.385 217.154 391.96 216.985 391.622 216.648C391.285 216.311 391.116 215.907 391.116 215.438C391.116 214.969 391.285 214.573 391.622 214.25C391.96 213.913 392.385 213.744 392.898 213.744C393.412 213.744 393.83 213.913 394.152 214.25C394.475 214.573 394.636 214.969 394.636 215.438C394.636 215.907 394.475 216.311 394.152 216.648C393.83 216.985 393.412 217.154 392.898 217.154Z" fill="white" fill-opacity="0.8"/>
<path d="M16.605 246.09C15.825 246.09 15.075 245.965 14.355 245.715C13.645 245.455 13.095 245.125 12.705 244.725L13.14 243.87C13.51 244.23 14.005 244.535 14.625 244.785C15.255 245.025 15.915 245.145 16.605 245.145C17.265 245.145 17.8 245.065 18.21 244.905C18.63 244.735 18.935 244.51 19.125 244.23C19.325 243.95 19.425 243.64 19.425 243.3C19.425 242.89 19.305 242.56 19.065 242.31C18.835 242.06 18.53 241.865 18.15 241.725C17.77 241.575 17.35 241.445 16.89 241.335C16.43 241.225 15.97 241.11 15.51 240.99C15.05 240.86 14.625 240.69 14.235 240.48C13.855 240.27 13.545 239.995 13.305 239.655C13.075 239.305 12.96 238.85 12.96 238.29C12.96 237.77 13.095 237.295 13.365 236.865C13.645 236.425 14.07 236.075 14.64 235.815C15.21 235.545 15.94 235.41 16.83 235.41C17.42 235.41 18.005 235.495 18.585 235.665C19.165 235.825 19.665 236.05 20.085 236.34L19.71 237.225C19.26 236.925 18.78 236.705 18.27 236.565C17.77 236.425 17.285 236.355 16.815 236.355C16.185 236.355 15.665 236.44 15.255 236.61C14.845 236.78 14.54 237.01 14.34 237.3C14.15 237.58 14.055 237.9 14.055 238.26C14.055 238.67 14.17 239 14.4 239.25C14.64 239.5 14.95 239.695 15.33 239.835C15.72 239.975 16.145 240.1 16.605 240.21C17.065 240.32 17.52 240.44 17.97 240.57C18.43 240.7 18.85 240.87 19.23 241.08C19.62 241.28 19.93 241.55 20.16 241.89C20.4 242.23 20.52 242.675 20.52 243.225C20.52 243.735 20.38 244.21 20.1 244.65C19.82 245.08 19.39 245.43 18.81 245.7C18.24 245.96 17.505 246.09 16.605 246.09ZM27.6485 246V244.26L27.6035 243.975V241.065C27.6035 240.395 27.4135 239.88 27.0335 239.52C26.6635 239.16 26.1085 238.98 25.3685 238.98C24.8585 238.98 24.3735 239.065 23.9135 239.235C23.4535 239.405 23.0635 239.63 22.7435 239.91L22.2635 239.115C22.6635 238.775 23.1435 238.515 23.7035 238.335C24.2635 238.145 24.8535 238.05 25.4735 238.05C26.4935 238.05 27.2785 238.305 27.8285 238.815C28.3885 239.315 28.6685 240.08 28.6685 241.11V246H27.6485ZM24.9335 246.075C24.3435 246.075 23.8285 245.98 23.3885 245.79C22.9585 245.59 22.6285 245.32 22.3985 244.98C22.1685 244.63 22.0535 244.23 22.0535 243.78C22.0535 243.37 22.1485 243 22.3385 242.67C22.5385 242.33 22.8585 242.06 23.2985 241.86C23.7485 241.65 24.3485 241.545 25.0985 241.545H27.8135V242.34H25.1285C24.3685 242.34 23.8385 242.475 23.5385 242.745C23.2485 243.015 23.1035 243.35 23.1035 243.75C23.1035 244.2 23.2785 244.56 23.6285 244.83C23.9785 245.1 24.4685 245.235 25.0985 245.235C25.6985 245.235 26.2135 245.1 26.6435 244.83C27.0835 244.55 27.4035 244.15 27.6035 243.63L27.8435 244.365C27.6435 244.885 27.2935 245.3 26.7935 245.61C26.3035 245.92 25.6835 246.075 24.9335 246.075ZM34.8162 246.075C34.1462 246.075 33.5612 245.95 33.0612 245.7C32.5612 245.45 32.1712 245.075 31.8912 244.575C31.6212 244.075 31.4862 243.45 31.4862 242.7V238.125H32.5512V242.58C32.5512 243.42 32.7562 244.055 33.1662 244.485C33.5862 244.905 34.1712 245.115 34.9212 245.115C35.4712 245.115 35.9462 245.005 36.3462 244.785C36.7562 244.555 37.0662 244.225 37.2762 243.795C37.4962 243.365 37.6062 242.85 37.6062 242.25V238.125H38.6712V246H37.6512V243.84L37.8162 244.23C37.5662 244.81 37.1762 245.265 36.6462 245.595C36.1262 245.915 35.5162 246.075 34.8162 246.075ZM46.4051 243.96L46.4351 242.595L51.3401 238.125H52.6451L49.1801 241.44L48.5801 241.95L46.4051 243.96ZM45.5651 246V234.87H46.6301V246H45.5651ZM51.6701 246L48.3851 241.905L49.0751 241.08L52.9751 246H51.6701ZM58.5939 238.05C59.2339 238.05 59.7939 238.175 60.2739 238.425C60.7639 238.665 61.1439 239.035 61.4139 239.535C61.6939 240.035 61.8339 240.665 61.8339 241.425V246H60.7689V241.53C60.7689 240.7 60.5589 240.075 60.1389 239.655C59.7289 239.225 59.1489 239.01 58.3989 239.01C57.8389 239.01 57.3489 239.125 56.9289 239.355C56.5189 239.575 56.1989 239.9 55.9689 240.33C55.7489 240.75 55.6389 241.26 55.6389 241.86V246H54.5739V234.87H55.6389V240.285L55.4289 239.88C55.6789 239.31 56.0789 238.865 56.6289 238.545C57.1789 238.215 57.8339 238.05 58.5939 238.05ZM64.7106 246V238.125H65.7756V246H64.7106ZM65.2506 236.385C65.0306 236.385 64.8456 236.31 64.6956 236.16C64.5456 236.01 64.4706 235.83 64.4706 235.62C64.4706 235.41 64.5456 235.235 64.6956 235.095C64.8456 234.945 65.0306 234.87 65.2506 234.87C65.4706 234.87 65.6556 234.94 65.8056 235.08C65.9556 235.22 66.0306 235.395 66.0306 235.605C66.0306 235.825 65.9556 236.01 65.8056 236.16C65.6656 236.31 65.4806 236.385 65.2506 236.385ZM75.9347 246.075C75.1547 246.075 74.4547 245.905 73.8347 245.565C73.2247 245.215 72.7447 244.74 72.3947 244.14C72.0447 243.53 71.8697 242.835 71.8697 242.055C71.8697 241.265 72.0447 240.57 72.3947 239.97C72.7447 239.37 73.2247 238.9 73.8347 238.56C74.4547 238.22 75.1547 238.05 75.9347 238.05C76.6047 238.05 77.2097 238.18 77.7497 238.44C78.2897 238.7 78.7147 239.09 79.0247 239.61L78.2297 240.15C77.9597 239.75 77.6247 239.455 77.2247 239.265C76.8247 239.075 76.3897 238.98 75.9197 238.98C75.3597 238.98 74.8547 239.11 74.4047 239.37C73.9547 239.62 73.5997 239.975 73.3397 240.435C73.0797 240.895 72.9497 241.435 72.9497 242.055C72.9497 242.675 73.0797 243.215 73.3397 243.675C73.5997 244.135 73.9547 244.495 74.4047 244.755C74.8547 245.005 75.3597 245.13 75.9197 245.13C76.3897 245.13 76.8247 245.035 77.2247 244.845C77.6247 244.655 77.9597 244.365 78.2297 243.975L79.0247 244.515C78.7147 245.025 78.2897 245.415 77.7497 245.685C77.2097 245.945 76.6047 246.075 75.9347 246.075ZM85.0196 238.05C85.6596 238.05 86.2196 238.175 86.6996 238.425C87.1896 238.665 87.5696 239.035 87.8396 239.535C88.1196 240.035 88.2596 240.665 88.2596 241.425V246H87.1946V241.53C87.1946 240.7 86.9846 240.075 86.5646 239.655C86.1546 239.225 85.5746 239.01 84.8246 239.01C84.2646 239.01 83.7746 239.125 83.3546 239.355C82.9446 239.575 82.6246 239.9 82.3946 240.33C82.1746 240.75 82.0646 241.26 82.0646 241.86V246H80.9996V234.87H82.0646V240.285L81.8546 239.88C82.1046 239.31 82.5046 238.865 83.0546 238.545C83.6046 238.215 84.2596 238.05 85.0196 238.05ZM94.3464 246.075C93.5864 246.075 92.9014 245.905 92.2914 245.565C91.6914 245.215 91.2164 244.74 90.8664 244.14C90.5164 243.53 90.3414 242.835 90.3414 242.055C90.3414 241.265 90.5164 240.57 90.8664 239.97C91.2164 239.37 91.6914 238.9 92.2914 238.56C92.8914 238.22 93.5764 238.05 94.3464 238.05C95.1264 238.05 95.8164 238.22 96.4164 238.56C97.0264 238.9 97.5014 239.37 97.8414 239.97C98.1914 240.57 98.3664 241.265 98.3664 242.055C98.3664 242.835 98.1914 243.53 97.8414 244.14C97.5014 244.74 97.0264 245.215 96.4164 245.565C95.8064 245.905 95.1164 246.075 94.3464 246.075ZM94.3464 245.13C94.9164 245.13 95.4214 245.005 95.8614 244.755C96.3014 244.495 96.6464 244.135 96.8964 243.675C97.1564 243.205 97.2864 242.665 97.2864 242.055C97.2864 241.435 97.1564 240.895 96.8964 240.435C96.6464 239.975 96.3014 239.62 95.8614 239.37C95.4214 239.11 94.9214 238.98 94.3614 238.98C93.8014 238.98 93.3014 239.11 92.8614 239.37C92.4214 239.62 92.0714 239.975 91.8114 240.435C91.5514 240.895 91.4214 241.435 91.4214 242.055C91.4214 242.665 91.5514 243.205 91.8114 243.675C92.0714 244.135 92.4214 244.495 92.8614 244.755C93.3014 245.005 93.7964 245.13 94.3464 245.13ZM94.3464 248.85C94.1764 248.85 94.0264 248.79 93.8964 248.67C93.7664 248.55 93.7014 248.395 93.7014 248.205C93.7014 248.015 93.7664 247.86 93.8964 247.74C94.0264 247.62 94.1764 247.56 94.3464 247.56C94.5264 247.56 94.6764 247.62 94.7964 247.74C94.9264 247.86 94.9914 248.015 94.9914 248.205C94.9914 248.395 94.9264 248.55 94.7964 248.67C94.6764 248.79 94.5264 248.85 94.3464 248.85ZM104.561 238.05C105.201 238.05 105.761 238.175 106.241 238.425C106.731 238.665 107.111 239.035 107.381 239.535C107.661 240.035 107.801 240.665 107.801 241.425V246H106.736V241.53C106.736 240.7 106.526 240.075 106.106 239.655C105.696 239.225 105.116 239.01 104.366 239.01C103.806 239.01 103.316 239.125 102.896 239.355C102.486 239.575 102.166 239.9 101.936 240.33C101.716 240.75 101.606 241.26 101.606 241.86V246H100.541V238.125H101.561V240.285L101.396 239.88C101.646 239.31 102.046 238.865 102.596 238.545C103.146 238.215 103.801 238.05 104.561 238.05ZM117.873 246.075C117.093 246.075 116.393 245.905 115.773 245.565C115.163 245.215 114.683 244.74 114.333 244.14C113.983 243.53 113.808 242.835 113.808 242.055C113.808 241.265 113.983 240.57 114.333 239.97C114.683 239.37 115.163 238.9 115.773 238.56C116.393 238.22 117.093 238.05 117.873 238.05C118.543 238.05 119.148 238.18 119.688 238.44C120.228 238.7 120.653 239.09 120.963 239.61L120.168 240.15C119.898 239.75 119.563 239.455 119.163 239.265C118.763 239.075 118.328 238.98 117.858 238.98C117.298 238.98 116.793 239.11 116.343 239.37C115.893 239.62 115.538 239.975 115.278 240.435C115.018 240.895 114.888 241.435 114.888 242.055C114.888 242.675 115.018 243.215 115.278 243.675C115.538 244.135 115.893 244.495 116.343 244.755C116.793 245.005 117.298 245.13 117.858 245.13C118.328 245.13 118.763 245.035 119.163 244.845C119.563 244.655 119.898 244.365 120.168 243.975L120.963 244.515C120.653 245.025 120.228 245.415 119.688 245.685C119.148 245.945 118.543 246.075 117.873 246.075ZM126.958 238.05C127.598 238.05 128.158 238.175 128.638 238.425C129.128 238.665 129.508 239.035 129.778 239.535C130.058 240.035 130.198 240.665 130.198 241.425V246H129.133V241.53C129.133 240.7 128.923 240.075 128.503 239.655C128.093 239.225 127.513 239.01 126.763 239.01C126.203 239.01 125.713 239.125 125.293 239.355C124.883 239.575 124.563 239.9 124.333 240.33C124.113 240.75 124.003 241.26 124.003 241.86V246H122.938V234.87H124.003V240.285L123.793 239.88C124.043 239.31 124.443 238.865 124.993 238.545C125.543 238.215 126.198 238.05 126.958 238.05ZM136.42 246.075C135.6 246.075 134.88 245.905 134.26 245.565C133.64 245.215 133.155 244.74 132.805 244.14C132.455 243.53 132.28 242.835 132.28 242.055C132.28 241.275 132.445 240.585 132.775 239.985C133.115 239.385 133.575 238.915 134.155 238.575C134.745 238.225 135.405 238.05 136.135 238.05C136.875 238.05 137.53 238.22 138.1 238.56C138.68 238.89 139.135 239.36 139.465 239.97C139.795 240.57 139.96 241.265 139.96 242.055C139.96 242.105 139.955 242.16 139.945 242.22C139.945 242.27 139.945 242.325 139.945 242.385H133.09V241.59H139.375L138.955 241.905C138.955 241.335 138.83 240.83 138.58 240.39C138.34 239.94 138.01 239.59 137.59 239.34C137.17 239.09 136.685 238.965 136.135 238.965C135.595 238.965 135.11 239.09 134.68 239.34C134.25 239.59 133.915 239.94 133.675 240.39C133.435 240.84 133.315 241.355 133.315 241.935V242.1C133.315 242.7 133.445 243.23 133.705 243.69C133.975 244.14 134.345 244.495 134.815 244.755C135.295 245.005 135.84 245.13 136.45 245.13C136.93 245.13 137.375 245.045 137.785 244.875C138.205 244.705 138.565 244.445 138.865 244.095L139.465 244.785C139.115 245.205 138.675 245.525 138.145 245.745C137.625 245.965 137.05 246.075 136.42 246.075ZM133.645 236.895L135.595 235.485H136.645L138.595 236.895H137.575L135.7 235.755H136.54L134.665 236.895H133.645ZM137.485 235.65L139.3 234.03H140.59L138.43 235.65H137.485ZM149.188 246.075C148.438 246.075 147.763 245.905 147.163 245.565C146.573 245.225 146.108 244.755 145.768 244.155C145.428 243.545 145.258 242.845 145.258 242.055C145.258 241.255 145.428 240.555 145.768 239.955C146.108 239.355 146.573 238.89 147.163 238.56C147.763 238.22 148.438 238.05 149.188 238.05C149.878 238.05 150.493 238.205 151.033 238.515C151.583 238.825 152.018 239.28 152.338 239.88C152.668 240.47 152.833 241.195 152.833 242.055C152.833 242.905 152.673 243.63 152.353 244.23C152.033 244.83 151.598 245.29 151.048 245.61C150.508 245.92 149.888 246.075 149.188 246.075ZM149.263 245.13C149.823 245.13 150.323 245.005 150.763 244.755C151.213 244.495 151.563 244.135 151.813 243.675C152.073 243.205 152.203 242.665 152.203 242.055C152.203 241.435 152.073 240.895 151.813 240.435C151.563 239.975 151.213 239.62 150.763 239.37C150.323 239.11 149.823 238.98 149.263 238.98C148.713 238.98 148.218 239.11 147.778 239.37C147.338 239.62 146.988 239.975 146.728 240.435C146.468 240.895 146.338 241.435 146.338 242.055C146.338 242.665 146.468 243.205 146.728 243.675C146.988 244.135 147.338 244.495 147.778 244.755C148.218 245.005 148.713 245.13 149.263 245.13ZM152.233 246V243.63L152.338 242.04L152.188 240.45V234.87H153.253V246H152.233ZM148.888 236.895V236.115H154.738V236.895H148.888ZM159.429 246.075C158.669 246.075 157.984 245.905 157.374 245.565C156.774 245.215 156.299 244.74 155.949 244.14C155.599 243.53 155.424 242.835 155.424 242.055C155.424 241.265 155.599 240.57 155.949 239.97C156.299 239.37 156.774 238.9 157.374 238.56C157.974 238.22 158.659 238.05 159.429 238.05C160.209 238.05 160.899 238.22 161.499 238.56C162.109 238.9 162.584 239.37 162.924 239.97C163.274 240.57 163.449 241.265 163.449 242.055C163.449 242.835 163.274 243.53 162.924 244.14C162.584 244.74 162.109 245.215 161.499 245.565C160.889 245.905 160.199 246.075 159.429 246.075ZM159.429 245.13C159.999 245.13 160.504 245.005 160.944 244.755C161.384 244.495 161.729 244.135 161.979 243.675C162.239 243.205 162.369 242.665 162.369 242.055C162.369 241.435 162.239 240.895 161.979 240.435C161.729 239.975 161.384 239.62 160.944 239.37C160.504 239.11 160.004 238.98 159.444 238.98C158.884 238.98 158.384 239.11 157.944 239.37C157.504 239.62 157.154 239.975 156.894 240.435C156.634 240.895 156.504 241.435 156.504 242.055C156.504 242.665 156.634 243.205 156.894 243.675C157.154 244.135 157.504 244.495 157.944 244.755C158.384 245.005 158.879 245.13 159.429 245.13ZM159.429 248.85C159.259 248.85 159.109 248.79 158.979 248.67C158.849 248.55 158.784 248.395 158.784 248.205C158.784 248.015 158.849 247.86 158.979 247.74C159.109 247.62 159.259 247.56 159.429 247.56C159.609 247.56 159.759 247.62 159.879 247.74C160.009 247.86 160.074 248.015 160.074 248.205C160.074 248.395 160.009 248.55 159.879 248.67C159.759 248.79 159.609 248.85 159.429 248.85ZM156.954 236.895L158.889 235.035H159.969L161.904 236.895H160.914L159.009 235.305H159.849L157.944 236.895H156.954ZM172.039 246.075C171.299 246.075 170.729 245.875 170.329 245.475C169.929 245.075 169.729 244.51 169.729 243.78V236.385H170.794V243.72C170.794 244.18 170.909 244.535 171.139 244.785C171.379 245.035 171.719 245.16 172.159 245.16C172.629 245.16 173.019 245.025 173.329 244.755L173.704 245.52C173.494 245.71 173.239 245.85 172.939 245.94C172.649 246.03 172.349 246.075 172.039 246.075ZM168.319 239.01V238.125H173.194V239.01H168.319ZM179.663 238.05C180.303 238.05 180.863 238.175 181.343 238.425C181.833 238.665 182.213 239.035 182.483 239.535C182.763 240.035 182.903 240.665 182.903 241.425V246H181.838V241.53C181.838 240.7 181.628 240.075 181.208 239.655C180.798 239.225 180.218 239.01 179.468 239.01C178.908 239.01 178.418 239.125 177.998 239.355C177.588 239.575 177.268 239.9 177.038 240.33C176.818 240.75 176.708 241.26 176.708 241.86V246H175.643V234.87H176.708V240.285L176.498 239.88C176.748 239.31 177.148 238.865 177.698 238.545C178.248 238.215 178.903 238.05 179.663 238.05ZM185.78 246V238.125H186.845V246H185.78ZM186.32 236.385C186.1 236.385 185.915 236.31 185.765 236.16C185.615 236.01 185.54 235.83 185.54 235.62C185.54 235.41 185.615 235.235 185.765 235.095C185.915 234.945 186.1 234.87 186.32 234.87C186.54 234.87 186.725 234.94 186.875 235.08C187.025 235.22 187.1 235.395 187.1 235.605C187.1 235.825 187.025 236.01 186.875 236.16C186.735 236.31 186.55 236.385 186.32 236.385ZM197.754 238.05C198.394 238.05 198.954 238.175 199.434 238.425C199.924 238.665 200.304 239.035 200.574 239.535C200.854 240.035 200.994 240.665 200.994 241.425V246H199.929V241.53C199.929 240.7 199.719 240.075 199.299 239.655C198.889 239.225 198.309 239.01 197.559 239.01C196.999 239.01 196.509 239.125 196.089 239.355C195.679 239.575 195.359 239.9 195.129 240.33C194.909 240.75 194.799 241.26 194.799 241.86V246H193.734V234.87H194.799V240.285L194.589 239.88C194.839 239.31 195.239 238.865 195.789 238.545C196.339 238.215 196.994 238.05 197.754 238.05ZM208.806 246V244.26L208.761 243.975V241.065C208.761 240.395 208.571 239.88 208.191 239.52C207.821 239.16 207.266 238.98 206.526 238.98C206.016 238.98 205.531 239.065 205.071 239.235C204.611 239.405 204.221 239.63 203.901 239.91L203.421 239.115C203.821 238.775 204.301 238.515 204.861 238.335C205.421 238.145 206.011 238.05 206.631 238.05C207.651 238.05 208.436 238.305 208.986 238.815C209.546 239.315 209.826 240.08 209.826 241.11V246H208.806ZM206.091 246.075C205.501 246.075 204.986 245.98 204.546 245.79C204.116 245.59 203.786 245.32 203.556 244.98C203.326 244.63 203.211 244.23 203.211 243.78C203.211 243.37 203.306 243 203.496 242.67C203.696 242.33 204.016 242.06 204.456 241.86C204.906 241.65 205.506 241.545 206.256 241.545H208.971V242.34H206.286C205.526 242.34 204.996 242.475 204.696 242.745C204.406 243.015 204.261 243.35 204.261 243.75C204.261 244.2 204.436 244.56 204.786 244.83C205.136 245.1 205.626 245.235 206.256 245.235C206.856 245.235 207.371 245.1 207.801 244.83C208.241 244.55 208.561 244.15 208.761 243.63L209.001 244.365C208.801 244.885 208.451 245.3 207.951 245.61C207.461 245.92 206.841 246.075 206.091 246.075ZM207.681 236.805C207.451 236.805 207.246 236.755 207.066 236.655C206.886 236.555 206.721 236.44 206.571 236.31C206.431 236.17 206.291 236.05 206.151 235.95C206.011 235.84 205.866 235.785 205.716 235.785C205.486 235.785 205.301 235.87 205.161 236.04C205.031 236.21 204.956 236.445 204.936 236.745H204.291C204.311 236.245 204.441 235.845 204.681 235.545C204.931 235.245 205.251 235.095 205.641 235.095C205.871 235.095 206.076 235.15 206.256 235.26C206.446 235.36 206.611 235.48 206.751 235.62C206.901 235.75 207.041 235.865 207.171 235.965C207.311 236.065 207.456 236.115 207.606 236.115C207.836 236.115 208.021 236.035 208.161 235.875C208.301 235.705 208.376 235.475 208.386 235.185H209.031C209.021 235.665 208.891 236.055 208.641 236.355C208.391 236.655 208.071 236.805 207.681 236.805ZM212.632 248.985C212.262 248.985 211.907 248.925 211.567 248.805C211.237 248.685 210.952 248.505 210.712 248.265L211.207 247.47C211.407 247.66 211.622 247.805 211.852 247.905C212.092 248.015 212.357 248.07 212.647 248.07C212.997 248.07 213.297 247.97 213.547 247.77C213.807 247.58 214.052 247.24 214.282 246.75L214.792 245.595L214.912 245.43L218.152 238.125H219.202L215.257 246.945C215.037 247.455 214.792 247.86 214.522 248.16C214.262 248.46 213.977 248.67 213.667 248.79C213.357 248.92 213.012 248.985 212.632 248.985ZM214.732 246.225L211.102 238.125H212.212L215.422 245.355L214.732 246.225ZM228.648 238.05C229.288 238.05 229.848 238.175 230.328 238.425C230.818 238.665 231.198 239.035 231.468 239.535C231.748 240.035 231.888 240.665 231.888 241.425V246H230.823V241.53C230.823 240.7 230.613 240.075 230.193 239.655C229.783 239.225 229.203 239.01 228.453 239.01C227.893 239.01 227.403 239.125 226.983 239.355C226.573 239.575 226.253 239.9 226.023 240.33C225.803 240.75 225.693 241.26 225.693 241.86V246H224.628V238.125H225.648V240.285L225.483 239.88C225.733 239.31 226.133 238.865 226.683 238.545C227.233 238.215 227.888 238.05 228.648 238.05ZM238.784 238.05C239.424 238.05 239.984 238.175 240.464 238.425C240.954 238.665 241.334 239.035 241.604 239.535C241.884 240.035 242.024 240.665 242.024 241.425V246H240.959V241.53C240.959 240.7 240.749 240.075 240.329 239.655C239.919 239.225 239.339 239.01 238.589 239.01C238.029 239.01 237.539 239.125 237.119 239.355C236.709 239.575 236.389 239.9 236.159 240.33C235.939 240.75 235.829 241.26 235.829 241.86V246H234.764V234.87H235.829V240.285L235.619 239.88C235.869 239.31 236.269 238.865 236.819 238.545C237.369 238.215 238.024 238.05 238.784 238.05ZM248.111 246.075C247.341 246.075 246.656 245.905 246.056 245.565C245.456 245.215 244.981 244.74 244.631 244.14C244.281 243.53 244.106 242.835 244.106 242.055C244.106 241.265 244.281 240.575 244.631 239.985C244.981 239.385 245.456 238.915 246.056 238.575C246.666 238.225 247.356 238.05 248.126 238.05C248.396 238.05 248.621 238.055 248.801 238.065C248.991 238.075 249.176 238.09 249.356 238.11C249.546 238.13 249.756 238.14 249.986 238.14C250.406 238.14 250.711 238.035 250.901 237.825C251.101 237.615 251.201 237.37 251.201 237.09C251.201 236.9 251.171 236.73 251.111 236.58C251.051 236.42 250.981 236.27 250.901 236.13L251.591 235.86C251.711 236.03 251.806 236.225 251.876 236.445C251.946 236.665 251.981 236.89 251.981 237.12C251.981 237.46 251.901 237.765 251.741 238.035C251.591 238.295 251.361 238.5 251.051 238.65C250.751 238.8 250.376 238.875 249.926 238.875C249.796 238.875 249.661 238.87 249.521 238.86C249.391 238.84 249.241 238.82 249.071 238.8L249.596 238.305C250.356 238.575 250.966 239.045 251.426 239.715C251.896 240.375 252.131 241.155 252.131 242.055C252.131 242.835 251.956 243.53 251.606 244.14C251.266 244.74 250.791 245.215 250.181 245.565C249.581 245.905 248.891 246.075 248.111 246.075ZM248.111 245.13C248.671 245.13 249.171 245.005 249.611 244.755C250.061 244.495 250.411 244.135 250.661 243.675C250.921 243.205 251.051 242.665 251.051 242.055C251.051 241.435 250.921 240.895 250.661 240.435C250.411 239.975 250.066 239.62 249.626 239.37C249.186 239.11 248.681 238.98 248.111 238.98C247.561 238.98 247.066 239.11 246.626 239.37C246.186 239.62 245.836 239.975 245.576 240.435C245.316 240.895 245.186 241.435 245.186 242.055C245.186 242.665 245.316 243.205 245.576 243.675C245.836 244.135 246.186 244.495 246.626 244.755C247.066 245.005 247.561 245.13 248.111 245.13ZM247.136 236.895L249.191 235.035H250.616L248.186 236.895H247.136ZM261.501 246.075C260.721 246.075 260.021 245.905 259.401 245.565C258.791 245.215 258.311 244.74 257.961 244.14C257.611 243.53 257.436 242.835 257.436 242.055C257.436 241.265 257.611 240.57 257.961 239.97C258.311 239.37 258.791 238.9 259.401 238.56C260.021 238.22 260.721 238.05 261.501 238.05C262.171 238.05 262.776 238.18 263.316 238.44C263.856 238.7 264.281 239.09 264.591 239.61L263.796 240.15C263.526 239.75 263.191 239.455 262.791 239.265C262.391 239.075 261.956 238.98 261.486 238.98C260.926 238.98 260.421 239.11 259.971 239.37C259.521 239.62 259.166 239.975 258.906 240.435C258.646 240.895 258.516 241.435 258.516 242.055C258.516 242.675 258.646 243.215 258.906 243.675C259.166 244.135 259.521 244.495 259.971 244.755C260.421 245.005 260.926 245.13 261.486 245.13C261.956 245.13 262.391 245.035 262.791 244.845C263.191 244.655 263.526 244.365 263.796 243.975L264.591 244.515C264.281 245.025 263.856 245.415 263.316 245.685C262.776 245.945 262.171 246.075 261.501 246.075ZM270.586 238.05C271.226 238.05 271.786 238.175 272.266 238.425C272.756 238.665 273.136 239.035 273.406 239.535C273.686 240.035 273.826 240.665 273.826 241.425V246H272.761V241.53C272.761 240.7 272.551 240.075 272.131 239.655C271.721 239.225 271.141 239.01 270.391 239.01C269.831 239.01 269.341 239.125 268.921 239.355C268.511 239.575 268.191 239.9 267.961 240.33C267.741 240.75 267.631 241.26 267.631 241.86V246H266.566V234.87H267.631V240.285L267.421 239.88C267.671 239.31 268.071 238.865 268.621 238.545C269.171 238.215 269.826 238.05 270.586 238.05ZM279.913 246.075C279.153 246.075 278.468 245.905 277.858 245.565C277.258 245.215 276.783 244.74 276.433 244.14C276.083 243.53 275.908 242.835 275.908 242.055C275.908 241.265 276.083 240.57 276.433 239.97C276.783 239.37 277.258 238.9 277.858 238.56C278.458 238.22 279.143 238.05 279.913 238.05C280.693 238.05 281.383 238.22 281.983 238.56C282.593 238.9 283.068 239.37 283.408 239.97C283.758 240.57 283.933 241.265 283.933 242.055C283.933 242.835 283.758 243.53 283.408 244.14C283.068 244.74 282.593 245.215 281.983 245.565C281.373 245.905 280.683 246.075 279.913 246.075ZM279.913 245.13C280.483 245.13 280.988 245.005 281.428 244.755C281.868 244.495 282.213 244.135 282.463 243.675C282.723 243.205 282.853 242.665 282.853 242.055C282.853 241.435 282.723 240.895 282.463 240.435C282.213 239.975 281.868 239.62 281.428 239.37C280.988 239.11 280.488 238.98 279.928 238.98C279.368 238.98 278.868 239.11 278.428 239.37C277.988 239.62 277.638 239.975 277.378 240.435C277.118 240.895 276.988 241.435 276.988 242.055C276.988 242.665 277.118 243.205 277.378 243.675C277.638 244.135 277.988 244.495 278.428 244.755C278.868 245.005 279.363 245.13 279.913 245.13ZM279.913 248.85C279.743 248.85 279.593 248.79 279.463 248.67C279.333 248.55 279.268 248.395 279.268 248.205C279.268 248.015 279.333 247.86 279.463 247.74C279.593 247.62 279.743 247.56 279.913 247.56C280.093 247.56 280.243 247.62 280.363 247.74C280.493 247.86 280.558 248.015 280.558 248.205C280.558 248.395 280.493 248.55 280.363 248.67C280.243 248.79 280.093 248.85 279.913 248.85ZM290.127 238.05C290.767 238.05 291.327 238.175 291.807 238.425C292.297 238.665 292.677 239.035 292.947 239.535C293.227 240.035 293.367 240.665 293.367 241.425V246H292.302V241.53C292.302 240.7 292.092 240.075 291.672 239.655C291.262 239.225 290.682 239.01 289.932 239.01C289.372 239.01 288.882 239.125 288.462 239.355C288.052 239.575 287.732 239.9 287.502 240.33C287.282 240.75 287.172 241.26 287.172 241.86V246H286.107V238.125H287.127V240.285L286.962 239.88C287.212 239.31 287.612 238.865 288.162 238.545C288.712 238.215 289.367 238.05 290.127 238.05ZM310.01 238.05C310.65 238.05 311.205 238.175 311.675 238.425C312.155 238.665 312.525 239.035 312.785 239.535C313.055 240.035 313.19 240.665 313.19 241.425V246H312.125V241.53C312.125 240.7 311.925 240.075 311.525 239.655C311.135 239.225 310.58 239.01 309.86 239.01C309.32 239.01 308.85 239.125 308.45 239.355C308.06 239.575 307.755 239.9 307.535 240.33C307.325 240.75 307.22 241.26 307.22 241.86V246H306.155V241.53C306.155 240.7 305.955 240.075 305.555 239.655C305.155 239.225 304.595 239.01 303.875 239.01C303.345 239.01 302.88 239.125 302.48 239.355C302.08 239.575 301.77 239.9 301.55 240.33C301.34 240.75 301.235 241.26 301.235 241.86V246H300.17V238.125H301.19V240.255L301.025 239.88C301.265 239.31 301.65 238.865 302.18 238.545C302.72 238.215 303.355 238.05 304.085 238.05C304.855 238.05 305.51 238.245 306.05 238.635C306.59 239.015 306.94 239.59 307.1 240.36L306.68 240.195C306.91 239.555 307.315 239.04 307.895 238.65C308.485 238.25 309.19 238.05 310.01 238.05ZM319.288 246.075C318.528 246.075 317.843 245.905 317.233 245.565C316.633 245.215 316.158 244.74 315.808 244.14C315.458 243.53 315.283 242.835 315.283 242.055C315.283 241.265 315.458 240.57 315.808 239.97C316.158 239.37 316.633 238.9 317.233 238.56C317.833 238.22 318.518 238.05 319.288 238.05C320.068 238.05 320.758 238.22 321.358 238.56C321.968 238.9 322.443 239.37 322.783 239.97C323.133 240.57 323.308 241.265 323.308 242.055C323.308 242.835 323.133 243.53 322.783 244.14C322.443 244.74 321.968 245.215 321.358 245.565C320.748 245.905 320.058 246.075 319.288 246.075ZM319.288 245.13C319.858 245.13 320.363 245.005 320.803 244.755C321.243 244.495 321.588 244.135 321.838 243.675C322.098 243.205 322.228 242.665 322.228 242.055C322.228 241.435 322.098 240.895 321.838 240.435C321.588 239.975 321.243 239.62 320.803 239.37C320.363 239.11 319.863 238.98 319.303 238.98C318.743 238.98 318.243 239.11 317.803 239.37C317.363 239.62 317.013 239.975 316.753 240.435C316.493 240.895 316.363 241.435 316.363 242.055C316.363 242.665 316.493 243.205 316.753 243.675C317.013 244.135 317.363 244.495 317.803 244.755C318.243 245.005 318.738 245.13 319.288 245.13ZM316.813 236.895L318.763 235.485H319.813L321.763 236.895H320.743L318.868 235.755H319.708L317.833 236.895H316.813ZM320.653 235.65L322.468 234.03H323.758L321.598 235.65H320.653ZM328.752 246.075C327.972 246.075 327.272 245.905 326.652 245.565C326.042 245.215 325.562 244.74 325.212 244.14C324.862 243.53 324.687 242.835 324.687 242.055C324.687 241.265 324.862 240.57 325.212 239.97C325.562 239.37 326.042 238.9 326.652 238.56C327.272 238.22 327.972 238.05 328.752 238.05C329.422 238.05 330.027 238.18 330.567 238.44C331.107 238.7 331.532 239.09 331.842 239.61L331.047 240.15C330.777 239.75 330.442 239.455 330.042 239.265C329.642 239.075 329.207 238.98 328.737 238.98C328.177 238.98 327.672 239.11 327.222 239.37C326.772 239.62 326.417 239.975 326.157 240.435C325.897 240.895 325.767 241.435 325.767 242.055C325.767 242.675 325.897 243.215 326.157 243.675C326.417 244.135 326.772 244.495 327.222 244.755C327.672 245.005 328.177 245.13 328.737 245.13C329.207 245.13 329.642 245.035 330.042 244.845C330.442 244.655 330.777 244.365 331.047 243.975L331.842 244.515C331.532 245.025 331.107 245.415 330.567 245.685C330.027 245.945 329.422 246.075 328.752 246.075ZM340.35 246.075C339.61 246.075 339.04 245.875 338.64 245.475C338.24 245.075 338.04 244.51 338.04 243.78V236.385H339.105V243.72C339.105 244.18 339.22 244.535 339.45 244.785C339.69 245.035 340.03 245.16 340.47 245.16C340.94 245.16 341.33 245.025 341.64 244.755L342.015 245.52C341.805 245.71 341.55 245.85 341.25 245.94C340.96 246.03 340.66 246.075 340.35 246.075ZM336.63 239.01V238.125H341.505V239.01H336.63ZM347.974 238.05C348.614 238.05 349.174 238.175 349.654 238.425C350.144 238.665 350.524 239.035 350.794 239.535C351.074 240.035 351.214 240.665 351.214 241.425V246H350.149V241.53C350.149 240.7 349.939 240.075 349.519 239.655C349.109 239.225 348.529 239.01 347.779 239.01C347.219 239.01 346.729 239.125 346.309 239.355C345.899 239.575 345.579 239.9 345.349 240.33C345.129 240.75 345.019 241.26 345.019 241.86V246H343.954V234.87H345.019V240.285L344.809 239.88C345.059 239.31 345.459 238.865 346.009 238.545C346.559 238.215 347.214 238.05 347.974 238.05ZM357.3 246.075C356.53 246.075 355.845 245.905 355.245 245.565C354.645 245.215 354.17 244.74 353.82 244.14C353.47 243.53 353.295 242.835 353.295 242.055C353.295 241.265 353.47 240.575 353.82 239.985C354.17 239.385 354.645 238.915 355.245 238.575C355.855 238.225 356.545 238.05 357.315 238.05C357.585 238.05 357.81 238.055 357.99 238.065C358.18 238.075 358.365 238.09 358.545 238.11C358.735 238.13 358.945 238.14 359.175 238.14C359.595 238.14 359.9 238.035 360.09 237.825C360.29 237.615 360.39 237.37 360.39 237.09C360.39 236.9 360.36 236.73 360.3 236.58C360.24 236.42 360.17 236.27 360.09 236.13L360.78 235.86C360.9 236.03 360.995 236.225 361.065 236.445C361.135 236.665 361.17 236.89 361.17 237.12C361.17 237.46 361.09 237.765 360.93 238.035C360.78 238.295 360.55 238.5 360.24 238.65C359.94 238.8 359.565 238.875 359.115 238.875C358.985 238.875 358.85 238.87 358.71 238.86C358.58 238.84 358.43 238.82 358.26 238.8L358.785 238.305C359.545 238.575 360.155 239.045 360.615 239.715C361.085 240.375 361.32 241.155 361.32 242.055C361.32 242.835 361.145 243.53 360.795 244.14C360.455 244.74 359.98 245.215 359.37 245.565C358.77 245.905 358.08 246.075 357.3 246.075ZM357.3 245.13C357.86 245.13 358.36 245.005 358.8 244.755C359.25 244.495 359.6 244.135 359.85 243.675C360.11 243.205 360.24 242.665 360.24 242.055C360.24 241.435 360.11 240.895 359.85 240.435C359.6 239.975 359.255 239.62 358.815 239.37C358.375 239.11 357.87 238.98 357.3 238.98C356.75 238.98 356.255 239.11 355.815 239.37C355.375 239.62 355.025 239.975 354.765 240.435C354.505 240.895 354.375 241.435 354.375 242.055C354.375 242.665 354.505 243.205 354.765 243.675C355.025 244.135 355.375 244.495 355.815 244.755C356.255 245.005 356.75 245.13 357.3 245.13ZM357.225 236.895L354.795 235.035H356.22L358.275 236.895H357.225ZM363.495 246V238.125H364.56V246H363.495ZM364.035 236.385C363.815 236.385 363.63 236.31 363.48 236.16C363.33 236.01 363.255 235.83 363.255 235.62C363.255 235.41 363.33 235.235 363.48 235.095C363.63 234.945 363.815 234.87 364.035 234.87C364.255 234.87 364.44 234.94 364.59 235.08C364.74 235.22 364.815 235.395 364.815 235.605C364.815 235.825 364.74 236.01 364.59 236.16C364.45 236.31 364.265 236.385 364.035 236.385ZM374.809 248.985C374.089 248.985 373.399 248.88 372.739 248.67C372.079 248.46 371.544 248.16 371.134 247.77L371.674 246.96C372.044 247.29 372.499 247.55 373.039 247.74C373.589 247.94 374.169 248.04 374.779 248.04C375.779 248.04 376.514 247.805 376.984 247.335C377.454 246.875 377.689 246.155 377.689 245.175V243.21L377.839 241.86L377.734 240.51V238.125H378.754V245.04C378.754 246.4 378.419 247.395 377.749 248.025C377.089 248.665 376.109 248.985 374.809 248.985ZM374.614 245.7C373.864 245.7 373.189 245.54 372.589 245.22C371.989 244.89 371.514 244.435 371.164 243.855C370.824 243.275 370.654 242.61 370.654 241.86C370.654 241.11 370.824 240.45 371.164 239.88C371.514 239.3 371.989 238.85 372.589 238.53C373.189 238.21 373.864 238.05 374.614 238.05C375.314 238.05 375.944 238.195 376.504 238.485C377.064 238.775 377.509 239.205 377.839 239.775C378.169 240.345 378.334 241.04 378.334 241.86C378.334 242.68 378.169 243.375 377.839 243.945C377.509 244.515 377.064 244.95 376.504 245.25C375.944 245.55 375.314 245.7 374.614 245.7ZM374.719 244.755C375.299 244.755 375.814 244.635 376.264 244.395C376.714 244.145 377.069 243.805 377.329 243.375C377.589 242.935 377.719 242.43 377.719 241.86C377.719 241.29 377.589 240.79 377.329 240.36C377.069 239.93 376.714 239.595 376.264 239.355C375.814 239.105 375.299 238.98 374.719 238.98C374.149 238.98 373.634 239.105 373.174 239.355C372.724 239.595 372.369 239.93 372.109 240.36C371.859 240.79 371.734 241.29 371.734 241.86C371.734 242.43 371.859 242.935 372.109 243.375C372.369 243.805 372.724 244.145 373.174 244.395C373.634 244.635 374.149 244.755 374.719 244.755ZM381.717 246V238.125H382.782V246H381.717ZM382.257 236.385C382.037 236.385 381.852 236.31 381.702 236.16C381.552 236.01 381.477 235.83 381.477 235.62C381.477 235.41 381.552 235.235 381.702 235.095C381.852 234.945 382.037 234.87 382.257 234.87C382.477 234.87 382.662 234.94 382.812 235.08C382.962 235.22 383.037 235.395 383.037 235.605C383.037 235.825 382.962 236.01 382.812 236.16C382.672 236.31 382.487 236.385 382.257 236.385ZM390.681 246V244.26L390.636 243.975V241.065C390.636 240.395 390.446 239.88 390.066 239.52C389.696 239.16 389.141 238.98 388.401 238.98C387.891 238.98 387.406 239.065 386.946 239.235C386.486 239.405 386.096 239.63 385.776 239.91L385.296 239.115C385.696 238.775 386.176 238.515 386.736 238.335C387.296 238.145 387.886 238.05 388.506 238.05C389.526 238.05 390.311 238.305 390.861 238.815C391.421 239.315 391.701 240.08 391.701 241.11V246H390.681ZM387.966 246.075C387.376 246.075 386.861 245.98 386.421 245.79C385.991 245.59 385.661 245.32 385.431 244.98C385.201 244.63 385.086 244.23 385.086 243.78C385.086 243.37 385.181 243 385.371 242.67C385.571 242.33 385.891 242.06 386.331 241.86C386.781 241.65 387.381 241.545 388.131 241.545H390.846V242.34H388.161C387.401 242.34 386.871 242.475 386.571 242.745C386.281 243.015 386.136 243.35 386.136 243.75C386.136 244.2 386.311 244.56 386.661 244.83C387.011 245.1 387.501 245.235 388.131 245.235C388.731 245.235 389.246 245.1 389.676 244.83C390.116 244.55 390.436 244.15 390.636 243.63L390.876 244.365C390.676 244.885 390.326 245.3 389.826 245.61C389.336 245.92 388.716 246.075 387.966 246.075ZM398.613 238.05C399.253 238.05 399.813 238.175 400.293 238.425C400.783 238.665 401.163 239.035 401.433 239.535C401.713 240.035 401.853 240.665 401.853 241.425V246H400.788V241.53C400.788 240.7 400.578 240.075 400.158 239.655C399.748 239.225 399.168 239.01 398.418 239.01C397.858 239.01 397.368 239.125 396.948 239.355C396.538 239.575 396.218 239.9 395.988 240.33C395.768 240.75 395.658 241.26 395.658 241.86V246H394.593V238.125H395.613V240.285L395.448 239.88C395.698 239.31 396.098 238.865 396.648 238.545C397.198 238.215 397.853 238.05 398.613 238.05ZM412.676 238.05C413.316 238.05 413.876 238.175 414.356 238.425C414.846 238.665 415.226 239.035 415.496 239.535C415.776 240.035 415.916 240.665 415.916 241.425V246H414.851V241.53C414.851 240.7 414.641 240.075 414.221 239.655C413.811 239.225 413.231 239.01 412.481 239.01C411.921 239.01 411.431 239.125 411.011 239.355C410.601 239.575 410.281 239.9 410.051 240.33C409.831 240.75 409.721 241.26 409.721 241.86V246H408.656V238.125H409.676V240.285L409.511 239.88C409.761 239.31 410.161 238.865 410.711 238.545C411.261 238.215 411.916 238.05 412.676 238.05ZM422.153 248.985C421.433 248.985 420.743 248.88 420.083 248.67C419.423 248.46 418.888 248.16 418.478 247.77L419.018 246.96C419.388 247.29 419.843 247.55 420.383 247.74C420.933 247.94 421.513 248.04 422.123 248.04C423.123 248.04 423.858 247.805 424.328 247.335C424.798 246.875 425.033 246.155 425.033 245.175V243.21L425.183 241.86L425.078 240.51V238.125H426.098V245.04C426.098 246.4 425.763 247.395 425.093 248.025C424.433 248.665 423.453 248.985 422.153 248.985ZM421.958 245.7C421.208 245.7 420.533 245.54 419.933 245.22C419.333 244.89 418.858 244.435 418.508 243.855C418.168 243.275 417.998 242.61 417.998 241.86C417.998 241.11 418.168 240.45 418.508 239.88C418.858 239.3 419.333 238.85 419.933 238.53C420.533 238.21 421.208 238.05 421.958 238.05C422.658 238.05 423.288 238.195 423.848 238.485C424.408 238.775 424.853 239.205 425.183 239.775C425.513 240.345 425.678 241.04 425.678 241.86C425.678 242.68 425.513 243.375 425.183 243.945C424.853 244.515 424.408 244.95 423.848 245.25C423.288 245.55 422.658 245.7 421.958 245.7ZM422.063 244.755C422.643 244.755 423.158 244.635 423.608 244.395C424.058 244.145 424.413 243.805 424.673 243.375C424.933 242.935 425.063 242.43 425.063 241.86C425.063 241.29 424.933 240.79 424.673 240.36C424.413 239.93 424.058 239.595 423.608 239.355C423.158 239.105 422.643 238.98 422.063 238.98C421.493 238.98 420.978 239.105 420.518 239.355C420.068 239.595 419.713 239.93 419.453 240.36C419.203 240.79 419.078 241.29 419.078 241.86C419.078 242.43 419.203 242.935 419.453 243.375C419.713 243.805 420.068 244.145 420.518 244.395C420.978 244.635 421.493 244.755 422.063 244.755ZM433.996 246V244.26L433.951 243.975V241.065C433.951 240.395 433.761 239.88 433.381 239.52C433.011 239.16 432.456 238.98 431.716 238.98C431.206 238.98 430.721 239.065 430.261 239.235C429.801 239.405 429.411 239.63 429.091 239.91L428.611 239.115C429.011 238.775 429.491 238.515 430.051 238.335C430.611 238.145 431.201 238.05 431.821 238.05C432.841 238.05 433.626 238.305 434.176 238.815C434.736 239.315 435.016 240.08 435.016 241.11V246H433.996ZM431.281 246.075C430.691 246.075 430.176 245.98 429.736 245.79C429.306 245.59 428.976 245.32 428.746 244.98C428.516 244.63 428.401 244.23 428.401 243.78C428.401 243.37 428.496 243 428.686 242.67C428.886 242.33 429.206 242.06 429.646 241.86C430.096 241.65 430.696 241.545 431.446 241.545H434.161V242.34H431.476C430.716 242.34 430.186 242.475 429.886 242.745C429.596 243.015 429.451 243.35 429.451 243.75C429.451 244.2 429.626 244.56 429.976 244.83C430.326 245.1 430.816 245.235 431.446 245.235C432.046 245.235 432.561 245.1 432.991 244.83C433.431 244.55 433.751 244.15 433.951 243.63L434.191 244.365C433.991 244.885 433.641 245.3 433.141 245.61C432.651 245.92 432.031 246.075 431.281 246.075ZM437.822 248.985C437.452 248.985 437.097 248.925 436.757 248.805C436.427 248.685 436.142 248.505 435.902 248.265L436.397 247.47C436.597 247.66 436.812 247.805 437.042 247.905C437.282 248.015 437.547 248.07 437.837 248.07C438.187 248.07 438.487 247.97 438.737 247.77C438.997 247.58 439.242 247.24 439.472 246.75L439.982 245.595L440.102 245.43L443.342 238.125H444.392L440.447 246.945C440.227 247.455 439.982 247.86 439.712 248.16C439.452 248.46 439.167 248.67 438.857 248.79C438.547 248.92 438.202 248.985 437.822 248.985ZM439.922 246.225L436.292 238.125H437.402L440.612 245.355L439.922 246.225ZM453.178 248.985C452.458 248.985 451.768 248.88 451.108 248.67C450.448 248.46 449.913 248.16 449.503 247.77L450.043 246.96C450.413 247.29 450.868 247.55 451.408 247.74C451.958 247.94 452.538 248.04 453.148 248.04C454.148 248.04 454.883 247.805 455.353 247.335C455.823 246.875 456.058 246.155 456.058 245.175V243.21L456.208 241.86L456.103 240.51V238.125H457.123V245.04C457.123 246.4 456.788 247.395 456.118 248.025C455.458 248.665 454.478 248.985 453.178 248.985ZM452.983 245.7C452.233 245.7 451.558 245.54 450.958 245.22C450.358 244.89 449.883 244.435 449.533 243.855C449.193 243.275 449.023 242.61 449.023 241.86C449.023 241.11 449.193 240.45 449.533 239.88C449.883 239.3 450.358 238.85 450.958 238.53C451.558 238.21 452.233 238.05 452.983 238.05C453.683 238.05 454.313 238.195 454.873 238.485C455.433 238.775 455.878 239.205 456.208 239.775C456.538 240.345 456.703 241.04 456.703 241.86C456.703 242.68 456.538 243.375 456.208 243.945C455.878 244.515 455.433 244.95 454.873 245.25C454.313 245.55 453.683 245.7 452.983 245.7ZM453.088 244.755C453.668 244.755 454.183 244.635 454.633 244.395C455.083 244.145 455.438 243.805 455.698 243.375C455.958 242.935 456.088 242.43 456.088 241.86C456.088 241.29 455.958 240.79 455.698 240.36C455.438 239.93 455.083 239.595 454.633 239.355C454.183 239.105 453.668 238.98 453.088 238.98C452.518 238.98 452.003 239.105 451.543 239.355C451.093 239.595 450.738 239.93 450.478 240.36C450.228 240.79 450.103 241.29 450.103 241.86C450.103 242.43 450.228 242.935 450.478 243.375C450.738 243.805 451.093 244.145 451.543 244.395C452.003 244.635 452.518 244.755 453.088 244.755ZM463.297 246.075C462.537 246.075 461.852 245.905 461.242 245.565C460.642 245.215 460.167 244.74 459.817 244.14C459.467 243.53 459.292 242.835 459.292 242.055C459.292 241.265 459.467 240.57 459.817 239.97C460.167 239.37 460.642 238.9 461.242 238.56C461.842 238.22 462.527 238.05 463.297 238.05C464.077 238.05 464.767 238.22 465.367 238.56C465.977 238.9 466.452 239.37 466.792 239.97C467.142 240.57 467.317 241.265 467.317 242.055C467.317 242.835 467.142 243.53 466.792 244.14C466.452 244.74 465.977 245.215 465.367 245.565C464.757 245.905 464.067 246.075 463.297 246.075ZM463.297 245.13C463.867 245.13 464.372 245.005 464.812 244.755C465.252 244.495 465.597 244.135 465.847 243.675C466.107 243.205 466.237 242.665 466.237 242.055C466.237 241.435 466.107 240.895 465.847 240.435C465.597 239.975 465.252 239.62 464.812 239.37C464.372 239.11 463.872 238.98 463.312 238.98C462.752 238.98 462.252 239.11 461.812 239.37C461.372 239.62 461.022 239.975 460.762 240.435C460.502 240.895 460.372 241.435 460.372 242.055C460.372 242.665 460.502 243.205 460.762 243.675C461.022 244.135 461.372 244.495 461.812 244.755C462.252 245.005 462.747 245.13 463.297 245.13ZM462.322 236.895L464.377 235.035H465.802L463.372 236.895H462.322ZM472.761 246.075C471.981 246.075 471.281 245.905 470.661 245.565C470.051 245.215 469.571 244.74 469.221 244.14C468.871 243.53 468.696 242.835 468.696 242.055C468.696 241.265 468.871 240.57 469.221 239.97C469.571 239.37 470.051 238.9 470.661 238.56C471.281 238.22 471.981 238.05 472.761 238.05C473.431 238.05 474.036 238.18 474.576 238.44C475.116 238.7 475.541 239.09 475.851 239.61L475.056 240.15C474.786 239.75 474.451 239.455 474.051 239.265C473.651 239.075 473.216 238.98 472.746 238.98C472.186 238.98 471.681 239.11 471.231 239.37C470.781 239.62 470.426 239.975 470.166 240.435C469.906 240.895 469.776 241.435 469.776 242.055C469.776 242.675 469.906 243.215 470.166 243.675C470.426 244.135 470.781 244.495 471.231 244.755C471.681 245.005 472.186 245.13 472.746 245.13C473.216 245.13 473.651 245.035 474.051 244.845C474.451 244.655 474.786 244.365 475.056 243.975L475.851 244.515C475.541 245.025 475.116 245.415 474.576 245.685C474.036 245.945 473.431 246.075 472.761 246.075ZM485.004 246.075C484.254 246.075 483.579 245.905 482.979 245.565C482.389 245.225 481.924 244.755 481.584 244.155C481.244 243.545 481.074 242.845 481.074 242.055C481.074 241.255 481.244 240.555 481.584 239.955C481.924 239.355 482.389 238.89 482.979 238.56C483.579 238.22 484.254 238.05 485.004 238.05C485.694 238.05 486.309 238.205 486.849 238.515C487.399 238.825 487.834 239.28 488.154 239.88C488.484 240.47 488.649 241.195 488.649 242.055C488.649 242.905 488.489 243.63 488.169 244.23C487.849 244.83 487.414 245.29 486.864 245.61C486.324 245.92 485.704 246.075 485.004 246.075ZM485.079 245.13C485.639 245.13 486.139 245.005 486.579 244.755C487.029 244.495 487.379 244.135 487.629 243.675C487.889 243.205 488.019 242.665 488.019 242.055C488.019 241.435 487.889 240.895 487.629 240.435C487.379 239.975 487.029 239.62 486.579 239.37C486.139 239.11 485.639 238.98 485.079 238.98C484.529 238.98 484.034 239.11 483.594 239.37C483.154 239.62 482.804 239.975 482.544 240.435C482.284 240.895 482.154 241.435 482.154 242.055C482.154 242.665 482.284 243.205 482.544 243.675C482.804 244.135 483.154 244.495 483.594 244.755C484.034 245.005 484.529 245.13 485.079 245.13ZM488.049 246V243.63L488.154 242.04L488.004 240.45V234.87H489.069V246H488.049ZM495.29 246.075C494.62 246.075 494.035 245.95 493.535 245.7C493.035 245.45 492.645 245.075 492.365 244.575C492.095 244.075 491.96 243.45 491.96 242.7V238.125H493.025V242.58C493.025 243.42 493.23 244.055 493.64 244.485C494.06 244.905 494.645 245.115 495.395 245.115C495.945 245.115 496.42 245.005 496.82 244.785C497.23 244.555 497.54 244.225 497.75 243.795C497.97 243.365 498.08 242.85 498.08 242.25V238.125H499.145V246H498.125V243.84L498.29 244.23C498.04 244.81 497.65 245.265 497.12 245.595C496.6 245.915 495.99 246.075 495.29 246.075ZM498.41 238.935V238.125H498.635C498.985 238.125 499.235 238.025 499.385 237.825C499.545 237.625 499.625 237.385 499.625 237.105C499.625 236.915 499.595 236.74 499.535 236.58C499.485 236.42 499.415 236.275 499.325 236.145L500.03 235.875C500.15 236.045 500.245 236.24 500.315 236.46C500.385 236.67 500.42 236.895 500.42 237.135C500.42 237.665 500.27 238.1 499.97 238.44C499.67 238.77 499.225 238.935 498.635 238.935H498.41ZM505.118 246.075C504.348 246.075 503.663 245.905 503.063 245.565C502.463 245.215 501.988 244.74 501.638 244.14C501.288 243.53 501.113 242.835 501.113 242.055C501.113 241.265 501.288 240.575 501.638 239.985C501.988 239.385 502.463 238.915 503.063 238.575C503.673 238.225 504.363 238.05 505.133 238.05C505.403 238.05 505.628 238.055 505.808 238.065C505.998 238.075 506.183 238.09 506.363 238.11C506.553 238.13 506.763 238.14 506.993 238.14C507.413 238.14 507.718 238.035 507.908 237.825C508.108 237.615 508.208 237.37 508.208 237.09C508.208 236.9 508.178 236.73 508.118 236.58C508.058 236.42 507.988 236.27 507.908 236.13L508.598 235.86C508.718 236.03 508.813 236.225 508.883 236.445C508.953 236.665 508.988 236.89 508.988 237.12C508.988 237.46 508.908 237.765 508.748 238.035C508.598 238.295 508.368 238.5 508.058 238.65C507.758 238.8 507.383 238.875 506.933 238.875C506.803 238.875 506.668 238.87 506.528 238.86C506.398 238.84 506.248 238.82 506.078 238.8L506.603 238.305C507.363 238.575 507.973 239.045 508.433 239.715C508.903 240.375 509.138 241.155 509.138 242.055C509.138 242.835 508.963 243.53 508.613 244.14C508.273 244.74 507.798 245.215 507.188 245.565C506.588 245.905 505.898 246.075 505.118 246.075ZM505.118 245.13C505.678 245.13 506.178 245.005 506.618 244.755C507.068 244.495 507.418 244.135 507.668 243.675C507.928 243.205 508.058 242.665 508.058 242.055C508.058 241.435 507.928 240.895 507.668 240.435C507.418 239.975 507.073 239.62 506.633 239.37C506.193 239.11 505.688 238.98 505.118 238.98C504.568 238.98 504.073 239.11 503.633 239.37C503.193 239.62 502.843 239.975 502.583 240.435C502.323 240.895 502.193 241.435 502.193 242.055C502.193 242.665 502.323 243.205 502.583 243.675C502.843 244.135 503.193 244.495 503.633 244.755C504.073 245.005 504.568 245.13 505.118 245.13ZM504.143 236.895L506.198 235.035H507.623L505.193 236.895H504.143ZM511.312 246V238.125H512.377V246H511.312ZM511.852 236.385C511.632 236.385 511.447 236.31 511.297 236.16C511.147 236.01 511.072 235.83 511.072 235.62C511.072 235.41 511.147 235.235 511.297 235.095C511.447 234.945 511.632 234.87 511.852 234.87C512.072 234.87 512.257 234.94 512.407 235.08C512.557 235.22 512.632 235.395 512.632 235.605C512.632 235.825 512.557 236.01 512.407 236.16C512.267 236.31 512.082 236.385 511.852 236.385ZM522.401 246.075C521.651 246.075 520.976 245.905 520.376 245.565C519.786 245.225 519.321 244.755 518.981 244.155C518.641 243.545 518.471 242.845 518.471 242.055C518.471 241.255 518.641 240.555 518.981 239.955C519.321 239.355 519.786 238.89 520.376 238.56C520.976 238.22 521.651 238.05 522.401 238.05C523.091 238.05 523.706 238.205 524.246 238.515C524.796 238.825 525.231 239.28 525.551 239.88C525.881 240.47 526.046 241.195 526.046 242.055C526.046 242.905 525.886 243.63 525.566 244.23C525.246 244.83 524.811 245.29 524.261 245.61C523.721 245.92 523.101 246.075 522.401 246.075ZM522.476 245.13C523.036 245.13 523.536 245.005 523.976 244.755C524.426 244.495 524.776 244.135 525.026 243.675C525.286 243.205 525.416 242.665 525.416 242.055C525.416 241.435 525.286 240.895 525.026 240.435C524.776 239.975 524.426 239.62 523.976 239.37C523.536 239.11 523.036 238.98 522.476 238.98C521.926 238.98 521.431 239.11 520.991 239.37C520.551 239.62 520.201 239.975 519.941 240.435C519.681 240.895 519.551 241.435 519.551 242.055C519.551 242.665 519.681 243.205 519.941 243.675C520.201 244.135 520.551 244.495 520.991 244.755C521.431 245.005 521.926 245.13 522.476 245.13ZM525.446 246V243.63L525.551 242.04L525.401 240.45V234.87H526.466V246H525.446ZM522.101 236.895V236.115H527.951V236.895H522.101ZM532.777 246.075C531.957 246.075 531.237 245.905 530.617 245.565C529.997 245.215 529.512 244.74 529.162 244.14C528.812 243.53 528.637 242.835 528.637 242.055C528.637 241.275 528.802 240.585 529.132 239.985C529.472 239.385 529.932 238.915 530.512 238.575C531.102 238.225 531.762 238.05 532.492 238.05C533.232 238.05 533.887 238.22 534.457 238.56C535.037 238.89 535.492 239.36 535.822 239.97C536.152 240.57 536.317 241.265 536.317 242.055C536.317 242.105 536.312 242.16 536.302 242.22C536.302 242.27 536.302 242.325 536.302 242.385H529.447V241.59H535.732L535.312 241.905C535.312 241.335 535.187 240.83 534.937 240.39C534.697 239.94 534.367 239.59 533.947 239.34C533.527 239.09 533.042 238.965 532.492 238.965C531.952 238.965 531.467 239.09 531.037 239.34C530.607 239.59 530.272 239.94 530.032 240.39C529.792 240.84 529.672 241.355 529.672 241.935V242.1C529.672 242.7 529.802 243.23 530.062 243.69C530.332 244.14 530.702 244.495 531.172 244.755C531.652 245.005 532.197 245.13 532.807 245.13C533.287 245.13 533.732 245.045 534.142 244.875C534.562 244.705 534.922 244.445 535.222 244.095L535.822 244.785C535.472 245.205 535.032 245.525 534.502 245.745C533.982 245.965 533.407 246.075 532.777 246.075ZM530.002 236.895L531.952 235.485H533.002L534.952 236.895H533.932L532.057 235.755H532.897L531.022 236.895H530.002ZM534.442 235.905L534.142 235.53C534.342 235.43 534.497 235.315 534.607 235.185C534.717 235.055 534.772 234.92 534.772 234.78C534.772 234.63 534.717 234.51 534.607 234.42C534.497 234.33 534.352 234.285 534.172 234.285C533.952 234.285 533.737 234.345 533.527 234.465L533.302 234.03C533.442 233.93 533.592 233.86 533.752 233.82C533.922 233.77 534.092 233.745 534.262 233.745C534.602 233.745 534.867 233.84 535.057 234.03C535.247 234.21 535.342 234.44 535.342 234.72C535.342 234.98 535.262 235.215 535.102 235.425C534.952 235.625 534.732 235.785 534.442 235.905ZM224.137 264.075C223.447 264.075 222.827 263.92 222.277 263.61C221.727 263.29 221.292 262.83 220.972 262.23C220.652 261.63 220.492 260.905 220.492 260.055C220.492 259.195 220.652 258.47 220.972 257.88C221.302 257.28 221.742 256.825 222.292 256.515C222.842 256.205 223.457 256.05 224.137 256.05C224.887 256.05 225.557 256.22 226.147 256.56C226.747 256.89 227.217 257.355 227.557 257.955C227.897 258.555 228.067 259.255 228.067 260.055C228.067 260.845 227.897 261.545 227.557 262.155C227.217 262.755 226.747 263.225 226.147 263.565C225.557 263.905 224.887 264.075 224.137 264.075ZM220.072 264V252.87H221.137V258.45L220.987 260.04L221.092 261.63V264H220.072ZM224.062 263.13C224.622 263.13 225.122 263.005 225.562 262.755C226.002 262.495 226.352 262.135 226.612 261.675C226.872 261.205 227.002 260.665 227.002 260.055C227.002 259.435 226.872 258.895 226.612 258.435C226.352 257.975 226.002 257.62 225.562 257.37C225.122 257.11 224.622 256.98 224.062 256.98C223.502 256.98 222.997 257.11 222.547 257.37C222.107 257.62 221.757 257.975 221.497 258.435C221.247 258.895 221.122 259.435 221.122 260.055C221.122 260.665 221.247 261.205 221.497 261.675C221.757 262.135 222.107 262.495 222.547 262.755C222.997 263.005 223.502 263.13 224.062 263.13ZM235.129 264V262.26L235.084 261.975V259.065C235.084 258.395 234.894 257.88 234.514 257.52C234.144 257.16 233.589 256.98 232.849 256.98C232.339 256.98 231.854 257.065 231.394 257.235C230.934 257.405 230.544 257.63 230.224 257.91L229.744 257.115C230.144 256.775 230.624 256.515 231.184 256.335C231.744 256.145 232.334 256.05 232.954 256.05C233.974 256.05 234.759 256.305 235.309 256.815C235.869 257.315 236.149 258.08 236.149 259.11V264H235.129ZM232.414 264.075C231.824 264.075 231.309 263.98 230.869 263.79C230.439 263.59 230.109 263.32 229.879 262.98C229.649 262.63 229.534 262.23 229.534 261.78C229.534 261.37 229.629 261 229.819 260.67C230.019 260.33 230.339 260.06 230.779 259.86C231.229 259.65 231.829 259.545 232.579 259.545H235.294V260.34H232.609C231.849 260.34 231.319 260.475 231.019 260.745C230.729 261.015 230.584 261.35 230.584 261.75C230.584 262.2 230.759 262.56 231.109 262.83C231.459 263.1 231.949 263.235 232.579 263.235C233.179 263.235 233.694 263.1 234.124 262.83C234.564 262.55 234.884 262.15 235.084 261.63L235.324 262.365C235.124 262.885 234.774 263.3 234.274 263.61C233.784 263.92 233.164 264.075 232.414 264.075ZM232.984 254.97C232.364 254.97 231.844 254.84 231.424 254.58C231.004 254.32 230.764 253.955 230.704 253.485H231.439C231.489 253.755 231.654 253.965 231.934 254.115C232.214 254.265 232.564 254.34 232.984 254.34C233.404 254.34 233.754 254.265 234.034 254.115C234.314 253.965 234.479 253.755 234.529 253.485H235.264C235.204 253.955 234.964 254.32 234.544 254.58C234.124 254.84 233.604 254.97 232.984 254.97ZM232.069 253.185L233.884 251.565H235.174L233.014 253.185H232.069ZM241.532 264.075C240.792 264.075 240.222 263.875 239.822 263.475C239.422 263.075 239.222 262.51 239.222 261.78V254.385H240.287V261.72C240.287 262.18 240.402 262.535 240.632 262.785C240.872 263.035 241.212 263.16 241.652 263.16C242.122 263.16 242.512 263.025 242.822 262.755L243.197 263.52C242.987 263.71 242.732 263.85 242.432 263.94C242.142 264.03 241.842 264.075 241.532 264.075ZM237.812 257.01V256.125H242.687V257.01H237.812ZM252.196 264.075C251.446 264.075 250.771 263.905 250.171 263.565C249.581 263.225 249.116 262.755 248.776 262.155C248.436 261.545 248.266 260.845 248.266 260.055C248.266 259.255 248.436 258.555 248.776 257.955C249.116 257.355 249.581 256.89 250.171 256.56C250.771 256.22 251.446 256.05 252.196 256.05C252.886 256.05 253.501 256.205 254.041 256.515C254.591 256.825 255.026 257.28 255.346 257.88C255.676 258.47 255.841 259.195 255.841 260.055C255.841 260.905 255.681 261.63 255.361 262.23C255.041 262.83 254.606 263.29 254.056 263.61C253.516 263.92 252.896 264.075 252.196 264.075ZM252.271 263.13C252.831 263.13 253.331 263.005 253.771 262.755C254.221 262.495 254.571 262.135 254.821 261.675C255.081 261.205 255.211 260.665 255.211 260.055C255.211 259.435 255.081 258.895 254.821 258.435C254.571 257.975 254.221 257.62 253.771 257.37C253.331 257.11 252.831 256.98 252.271 256.98C251.721 256.98 251.226 257.11 250.786 257.37C250.346 257.62 249.996 257.975 249.736 258.435C249.476 258.895 249.346 259.435 249.346 260.055C249.346 260.665 249.476 261.205 249.736 261.675C249.996 262.135 250.346 262.495 250.786 262.755C251.226 263.005 251.721 263.13 252.271 263.13ZM255.241 264V261.63L255.346 260.04L255.196 258.45V252.87H256.261V264H255.241ZM251.896 254.895V254.115H257.746V254.895H251.896ZM264.162 264V262.26L264.117 261.975V259.065C264.117 258.395 263.927 257.88 263.547 257.52C263.177 257.16 262.622 256.98 261.882 256.98C261.372 256.98 260.887 257.065 260.427 257.235C259.967 257.405 259.577 257.63 259.257 257.91L258.777 257.115C259.177 256.775 259.657 256.515 260.217 256.335C260.777 256.145 261.367 256.05 261.987 256.05C263.007 256.05 263.792 256.305 264.342 256.815C264.902 257.315 265.182 258.08 265.182 259.11V264H264.162ZM261.447 264.075C260.857 264.075 260.342 263.98 259.902 263.79C259.472 263.59 259.142 263.32 258.912 262.98C258.682 262.63 258.567 262.23 258.567 261.78C258.567 261.37 258.662 261 258.852 260.67C259.052 260.33 259.372 260.06 259.812 259.86C260.262 259.65 260.862 259.545 261.612 259.545H264.327V260.34H261.642C260.882 260.34 260.352 260.475 260.052 260.745C259.762 261.015 259.617 261.35 259.617 261.75C259.617 262.2 259.792 262.56 260.142 262.83C260.492 263.1 260.982 263.235 261.612 263.235C262.212 263.235 262.727 263.1 263.157 262.83C263.597 262.55 263.917 262.15 264.117 261.63L264.357 262.365C264.157 262.885 263.807 263.3 263.307 263.61C262.817 263.92 262.197 264.075 261.447 264.075ZM259.542 254.895L261.492 253.485H262.542L264.492 254.895H263.472L261.597 253.755H262.437L260.562 254.895H259.542ZM264.282 253.65L262.107 252.03H263.412L265.212 253.65H264.282ZM271.33 264.075C270.66 264.075 270.075 263.95 269.575 263.7C269.075 263.45 268.685 263.075 268.405 262.575C268.135 262.075 268 261.45 268 260.7V256.125H269.065V260.58C269.065 261.42 269.27 262.055 269.68 262.485C270.1 262.905 270.685 263.115 271.435 263.115C271.985 263.115 272.46 263.005 272.86 262.785C273.27 262.555 273.58 262.225 273.79 261.795C274.01 261.365 274.12 260.85 274.12 260.25V256.125H275.185V264H274.165V261.84L274.33 262.23C274.08 262.81 273.69 263.265 273.16 263.595C272.64 263.915 272.03 264.075 271.33 264.075ZM282.919 261.96L282.949 260.595L287.854 256.125H289.159L285.694 259.44L285.094 259.95L282.919 261.96ZM282.079 264V252.87H283.144V264H282.079ZM288.184 264L284.899 259.905L285.589 259.08L289.489 264H288.184ZM290.97 264V256.125H292.035V264H290.97ZM291.435 254.895L289.005 253.035H290.43L292.485 254.895H291.435ZM301.414 264.075C300.674 264.075 300.104 263.875 299.704 263.475C299.304 263.075 299.104 262.51 299.104 261.78V254.385H300.169V261.72C300.169 262.18 300.284 262.535 300.514 262.785C300.754 263.035 301.094 263.16 301.534 263.16C302.004 263.16 302.394 263.025 302.704 262.755L303.079 263.52C302.869 263.71 302.614 263.85 302.314 263.94C302.024 264.03 301.724 264.075 301.414 264.075ZM297.694 257.01V256.125H302.569V257.01H297.694ZM309.038 256.05C309.678 256.05 310.238 256.175 310.718 256.425C311.208 256.665 311.588 257.035 311.858 257.535C312.138 258.035 312.278 258.665 312.278 259.425V264H311.213V259.53C311.213 258.7 311.003 258.075 310.583 257.655C310.173 257.225 309.593 257.01 308.843 257.01C308.283 257.01 307.793 257.125 307.373 257.355C306.963 257.575 306.643 257.9 306.413 258.33C306.193 258.75 306.083 259.26 306.083 259.86V264H305.018V252.87H306.083V258.285L305.873 257.88C306.123 257.31 306.523 256.865 307.073 256.545C307.623 256.215 308.278 256.05 309.038 256.05ZM315.155 264V256.125H316.22V264H315.155ZM315.695 254.385C315.475 254.385 315.29 254.31 315.14 254.16C314.99 254.01 314.915 253.83 314.915 253.62C314.915 253.41 314.99 253.235 315.14 253.095C315.29 252.945 315.475 252.87 315.695 252.87C315.915 252.87 316.1 252.94 316.25 253.08C316.4 253.22 316.475 253.395 316.475 253.605C316.475 253.825 316.4 254.01 316.25 254.16C316.11 254.31 315.925 254.385 315.695 254.385ZM319.288 264.075C319.068 264.075 318.878 263.995 318.718 263.835C318.568 263.675 318.493 263.48 318.493 263.25C318.493 263.01 318.568 262.815 318.718 262.665C318.878 262.515 319.068 262.44 319.288 262.44C319.508 262.44 319.693 262.515 319.843 262.665C320.003 262.815 320.083 263.01 320.083 263.25C320.083 263.48 320.003 263.675 319.843 263.835C319.693 263.995 319.508 264.075 319.288 264.075ZM322.467 264.075C322.247 264.075 322.057 263.995 321.897 263.835C321.747 263.675 321.672 263.48 321.672 263.25C321.672 263.01 321.747 262.815 321.897 262.665C322.057 262.515 322.247 262.44 322.467 262.44C322.687 262.44 322.872 262.515 323.022 262.665C323.182 262.815 323.262 263.01 323.262 263.25C323.262 263.48 323.182 263.675 323.022 263.835C322.872 263.995 322.687 264.075 322.467 264.075ZM325.646 264.075C325.426 264.075 325.236 263.995 325.076 263.835C324.926 263.675 324.851 263.48 324.851 263.25C324.851 263.01 324.926 262.815 325.076 262.665C325.236 262.515 325.426 262.44 325.646 262.44C325.866 262.44 326.051 262.515 326.201 262.665C326.361 262.815 326.441 263.01 326.441 263.25C326.441 263.48 326.361 263.675 326.201 263.835C326.051 263.995 325.866 264.075 325.646 264.075ZM328.824 264.075C328.604 264.075 328.414 263.995 328.254 263.835C328.104 263.675 328.029 263.48 328.029 263.25C328.029 263.01 328.104 262.815 328.254 262.665C328.414 262.515 328.604 262.44 328.824 262.44C329.044 262.44 329.229 262.515 329.379 262.665C329.539 262.815 329.619 263.01 329.619 263.25C329.619 263.48 329.539 263.675 329.379 263.835C329.229 263.995 329.044 264.075 328.824 264.075Z" fill="white" fill-opacity="0.52"/>
<rect x="219" y="288" width="118" height="33" rx="6" fill="#4169E1"/>
<path d="M247.123 301.6H249.067V310H247.123V301.6ZM243.307 310H241.363V301.6H243.307V310ZM247.267 306.556H243.163V304.912H247.267V306.556ZM253.995 310.096C253.307 310.096 252.695 309.952 252.159 309.664C251.631 309.376 251.211 308.984 250.899 308.488C250.595 307.984 250.443 307.412 250.443 306.772C250.443 306.124 250.595 305.552 250.899 305.056C251.211 304.552 251.631 304.16 252.159 303.88C252.695 303.592 253.307 303.448 253.995 303.448C254.675 303.448 255.283 303.592 255.819 303.88C256.355 304.16 256.775 304.548 257.079 305.044C257.383 305.54 257.535 306.116 257.535 306.772C257.535 307.412 257.383 307.984 257.079 308.488C256.775 308.984 256.355 309.376 255.819 309.664C255.283 309.952 254.675 310.096 253.995 310.096ZM253.995 308.56C254.307 308.56 254.587 308.488 254.835 308.344C255.083 308.2 255.279 307.996 255.423 307.732C255.567 307.46 255.639 307.14 255.639 306.772C255.639 306.396 255.567 306.076 255.423 305.812C255.279 305.548 255.083 305.344 254.835 305.2C254.587 305.056 254.307 304.984 253.995 304.984C253.683 304.984 253.403 305.056 253.155 305.2C252.907 305.344 252.707 305.548 252.555 305.812C252.411 306.076 252.339 306.396 252.339 306.772C252.339 307.14 252.411 307.46 252.555 307.732C252.707 307.996 252.907 308.2 253.155 308.344C253.403 308.488 253.683 308.56 253.995 308.56ZM262.64 310V308.74L262.52 308.464V306.208C262.52 305.808 262.396 305.496 262.148 305.272C261.908 305.048 261.536 304.936 261.032 304.936C260.688 304.936 260.348 304.992 260.012 305.104C259.684 305.208 259.404 305.352 259.172 305.536L258.5 304.228C258.852 303.98 259.276 303.788 259.772 303.652C260.268 303.516 260.772 303.448 261.284 303.448C262.268 303.448 263.032 303.68 263.576 304.144C264.12 304.608 264.392 305.332 264.392 306.316V310H262.64ZM260.672 310.096C260.168 310.096 259.736 310.012 259.376 309.844C259.016 309.668 258.74 309.432 258.548 309.136C258.356 308.84 258.26 308.508 258.26 308.14C258.26 307.756 258.352 307.42 258.536 307.132C258.728 306.844 259.028 306.62 259.436 306.46C259.844 306.292 260.376 306.208 261.032 306.208H262.748V307.3H261.236C260.796 307.3 260.492 307.372 260.324 307.516C260.164 307.66 260.084 307.84 260.084 308.056C260.084 308.296 260.176 308.488 260.36 308.632C260.552 308.768 260.812 308.836 261.14 308.836C261.452 308.836 261.732 308.764 261.98 308.62C262.228 308.468 262.408 308.248 262.52 307.96L262.808 308.824C262.672 309.24 262.424 309.556 262.064 309.772C261.704 309.988 261.24 310.096 260.672 310.096ZM261.104 302.716L258.932 300.988H260.948L262.568 302.716H261.104ZM270.011 303.448C270.523 303.448 270.979 303.552 271.379 303.76C271.787 303.96 272.107 304.272 272.339 304.696C272.571 305.112 272.687 305.648 272.687 306.304V310H270.815V306.592C270.815 306.072 270.699 305.688 270.467 305.44C270.243 305.192 269.923 305.068 269.507 305.068C269.211 305.068 268.943 305.132 268.703 305.26C268.471 305.38 268.287 305.568 268.151 305.824C268.023 306.08 267.959 306.408 267.959 306.808V310H266.087V303.544H267.875V305.332L267.539 304.792C267.771 304.36 268.103 304.028 268.535 303.796C268.967 303.564 269.459 303.448 270.011 303.448ZM279.654 310V303.184H276.966V301.6H284.286V303.184H281.598V310H279.654ZM289.124 303.448C289.636 303.448 290.092 303.552 290.492 303.76C290.9 303.96 291.22 304.272 291.452 304.696C291.684 305.112 291.8 305.648 291.8 306.304V310H289.928V306.592C289.928 306.072 289.812 305.688 289.58 305.44C289.356 305.192 289.036 305.068 288.62 305.068C288.324 305.068 288.056 305.132 287.816 305.26C287.584 305.38 287.4 305.568 287.264 305.824C287.136 306.08 287.072 306.408 287.072 306.808V310H285.2V301.096H287.072V305.332L286.652 304.792C286.884 304.36 287.216 304.028 287.648 303.796C288.08 303.564 288.572 303.448 289.124 303.448ZM297.457 310V308.74L297.337 308.464V306.208C297.337 305.808 297.213 305.496 296.965 305.272C296.725 305.048 296.353 304.936 295.849 304.936C295.505 304.936 295.165 304.992 294.829 305.104C294.501 305.208 294.221 305.352 293.989 305.536L293.317 304.228C293.669 303.98 294.093 303.788 294.589 303.652C295.085 303.516 295.589 303.448 296.101 303.448C297.085 303.448 297.849 303.68 298.393 304.144C298.937 304.608 299.209 305.332 299.209 306.316V310H297.457ZM295.489 310.096C294.985 310.096 294.553 310.012 294.193 309.844C293.833 309.668 293.557 309.432 293.365 309.136C293.173 308.84 293.077 308.508 293.077 308.14C293.077 307.756 293.169 307.42 293.353 307.132C293.545 306.844 293.845 306.62 294.253 306.46C294.661 306.292 295.193 306.208 295.849 306.208H297.565V307.3H296.053C295.613 307.3 295.309 307.372 295.141 307.516C294.981 307.66 294.901 307.84 294.901 308.056C294.901 308.296 294.993 308.488 295.177 308.632C295.369 308.768 295.629 308.836 295.957 308.836C296.269 308.836 296.549 308.764 296.797 308.62C297.045 308.468 297.225 308.248 297.337 307.96L297.625 308.824C297.489 309.24 297.241 309.556 296.881 309.772C296.521 309.988 296.057 310.096 295.489 310.096ZM295.921 302.716L293.749 300.988H295.765L297.385 302.716H295.921ZM304.827 303.448C305.339 303.448 305.795 303.552 306.195 303.76C306.603 303.96 306.923 304.272 307.155 304.696C307.387 305.112 307.503 305.648 307.503 306.304V310H305.631V306.592C305.631 306.072 305.515 305.688 305.283 305.44C305.059 305.192 304.739 305.068 304.323 305.068C304.027 305.068 303.759 305.132 303.519 305.26C303.287 305.38 303.103 305.568 302.967 305.824C302.839 306.08 302.775 306.408 302.775 306.808V310H300.903V303.544H302.691V305.332L302.355 304.792C302.587 304.36 302.919 304.028 303.351 303.796C303.783 303.564 304.275 303.448 304.827 303.448ZM313.124 303.448C313.636 303.448 314.092 303.552 314.492 303.76C314.9 303.96 315.22 304.272 315.452 304.696C315.684 305.112 315.8 305.648 315.8 306.304V310H313.928V306.592C313.928 306.072 313.812 305.688 313.58 305.44C313.356 305.192 313.036 305.068 312.62 305.068C312.324 305.068 312.056 305.132 311.816 305.26C311.584 305.38 311.4 305.568 311.264 305.824C311.136 306.08 311.072 306.408 311.072 306.808V310H309.2V301.096H311.072V305.332L310.652 304.792C310.884 304.36 311.216 304.028 311.648 303.796C312.08 303.564 312.572 303.448 313.124 303.448Z" fill="#F8F8F8"/>
<rect x="55" y="27" width="447" height="121" rx="44" fill="#282B30" fill-opacity="0.57"/>
<rect x="55.5" y="27.5" width="446" height="120" rx="43.5" stroke="#D9D9D9" stroke-opacity="0.08"/>
<path d="M142.396 104C141.81 104 141.316 103.8 140.916 103.4C140.516 103 140.316 102.507 140.316 101.92V72.76H144.476V101.92C144.476 102.507 144.276 103 143.876 103.4C143.476 103.8 142.983 104 142.396 104ZM131.676 76.6C131.116 76.6 130.65 76.4267 130.276 76.08C129.93 75.7067 129.756 75.24 129.756 74.68C129.756 74.12 129.93 73.6667 130.276 73.32C130.65 72.9467 131.116 72.76 131.676 72.76H153.076C153.636 72.76 154.09 72.9467 154.436 73.32C154.81 73.6667 154.996 74.12 154.996 74.68C154.996 75.24 154.81 75.7067 154.436 76.08C154.09 76.4267 153.636 76.6 153.076 76.6H131.676ZM173.682 104C173.095 104 172.602 103.8 172.202 103.4C171.802 103 171.602 102.507 171.602 101.92V74.84C171.602 74.2267 171.802 73.7333 172.202 73.36C172.602 72.96 173.095 72.76 173.682 72.76C174.295 72.76 174.788 72.96 175.162 73.36C175.562 73.7333 175.762 74.2267 175.762 74.84V101.92C175.762 102.507 175.562 103 175.162 103.4C174.788 103.8 174.295 104 173.682 104ZM197.83 104C197.243 104 196.75 103.8 196.35 103.4C195.95 103 195.75 102.507 195.75 101.92V74.84C195.75 74.2267 195.95 73.7333 196.35 73.36C196.75 72.96 197.243 72.76 197.83 72.76C198.63 72.76 199.243 73.1333 199.67 73.88L212.19 98.96H210.91L223.11 73.88C223.537 73.1333 224.15 72.76 224.95 72.76C225.537 72.76 226.03 72.96 226.43 73.36C226.83 73.7333 227.03 74.2267 227.03 74.84V101.92C227.03 102.507 226.817 103 226.39 103.4C225.99 103.8 225.51 104 224.95 104C224.363 104 223.87 103.8 223.47 103.4C223.07 103 222.87 102.507 222.87 101.92V80.6L223.67 80.4L213.19 101.76C212.737 102.453 212.137 102.8 211.39 102.8C210.51 102.8 209.87 102.387 209.47 101.56L199.11 80.8L199.91 80.6V101.92C199.91 102.507 199.71 103 199.31 103.4C198.91 103.8 198.417 104 197.83 104ZM249.127 104C248.54 104 248.047 103.8 247.647 103.4C247.247 103 247.047 102.507 247.047 101.92V74.84C247.047 74.2267 247.247 73.7333 247.647 73.36C248.047 72.96 248.54 72.76 249.127 72.76H267.207C267.82 72.76 268.314 72.9467 268.687 73.32C269.06 73.6667 269.247 74.1333 269.247 74.72C269.247 75.28 269.06 75.7333 268.687 76.08C268.314 76.4267 267.82 76.6 267.207 76.6H251.207V86.32H262.687C263.3 86.32 263.794 86.5067 264.167 86.88C264.54 87.2267 264.727 87.68 264.727 88.24C264.727 88.8 264.54 89.2667 264.167 89.64C263.794 89.9867 263.3 90.16 262.687 90.16H251.207V100.16H267.207C267.82 100.16 268.314 100.333 268.687 100.68C269.06 101.027 269.247 101.48 269.247 102.04C269.247 102.627 269.06 103.107 268.687 103.48C268.314 103.827 267.82 104 267.207 104H249.127ZM325.213 104.4C322.867 104.4 320.72 104.013 318.773 103.24C316.827 102.44 315.147 101.333 313.733 99.92C312.347 98.48 311.267 96.7867 310.493 94.84C309.72 92.8667 309.333 90.7067 309.333 88.36C309.333 86.0133 309.72 83.8667 310.493 81.92C311.267 79.9733 312.347 78.2933 313.733 76.88C315.147 75.44 316.827 74.3333 318.773 73.56C320.72 72.76 322.867 72.36 325.213 72.36C327.56 72.36 329.693 72.76 331.613 73.56C333.56 74.3333 335.24 75.44 336.653 76.88C338.067 78.2933 339.16 79.9733 339.933 81.92C340.707 83.8667 341.093 86.0133 341.093 88.36C341.093 90.7067 340.707 92.8667 339.933 94.84C339.16 96.7867 338.067 98.48 336.653 99.92C335.24 101.333 333.56 102.44 331.613 103.24C329.693 104.013 327.56 104.4 325.213 104.4ZM325.213 100.64C326.947 100.64 328.533 100.333 329.973 99.72C331.44 99.08 332.707 98.2133 333.773 97.12C334.84 96 335.653 94.6933 336.213 93.2C336.8 91.7067 337.093 90.0933 337.093 88.36C337.093 86.6267 336.8 85.0133 336.213 83.52C335.653 82.0267 334.84 80.7333 333.773 79.64C332.707 78.52 331.44 77.6533 329.973 77.04C328.533 76.4267 326.947 76.12 325.213 76.12C323.48 76.12 321.88 76.4267 320.413 77.04C318.973 77.6533 317.72 78.52 316.653 79.64C315.613 80.7333 314.8 82.0267 314.213 83.52C313.627 85.0133 313.333 86.6267 313.333 88.36C313.333 90.0933 313.627 91.7067 314.213 93.2C314.8 94.6933 315.613 96 316.653 97.12C317.72 98.2133 318.973 99.08 320.413 99.72C321.88 100.333 323.48 100.64 325.213 100.64ZM372.689 104.64C370.129 104.64 367.863 104.173 365.889 103.24C363.916 102.28 362.369 100.96 361.249 99.28C360.156 97.6 359.609 95.68 359.609 93.52V74.84C359.609 74.2267 359.809 73.7333 360.209 73.36C360.609 72.96 361.103 72.76 361.689 72.76C362.303 72.76 362.796 72.96 363.169 73.36C363.569 73.7333 363.769 74.2267 363.769 74.84V93.52C363.769 94.96 364.143 96.24 364.889 97.36C365.663 98.4533 366.716 99.32 368.049 99.96C369.409 100.573 370.956 100.88 372.689 100.88C374.369 100.88 375.849 100.573 377.129 99.96C378.436 99.32 379.449 98.4533 380.169 97.36C380.916 96.24 381.289 94.96 381.289 93.52V74.84C381.289 74.2267 381.489 73.7333 381.889 73.36C382.289 72.96 382.783 72.76 383.369 72.76C383.983 72.76 384.476 72.96 384.849 73.36C385.223 73.7333 385.409 74.2267 385.409 74.84V93.52C385.409 95.68 384.863 97.6 383.769 99.28C382.703 100.96 381.209 102.28 379.289 103.24C377.369 104.173 375.169 104.64 372.689 104.64ZM414.638 104C414.052 104 413.558 103.8 413.158 103.4C412.758 103 412.558 102.507 412.558 101.92V72.76H416.718V101.92C416.718 102.507 416.518 103 416.118 103.4C415.718 103.8 415.225 104 414.638 104ZM403.918 76.6C403.358 76.6 402.892 76.4267 402.518 76.08C402.172 75.7067 401.998 75.24 401.998 74.68C401.998 74.12 402.172 73.6667 402.518 73.32C402.892 72.9467 403.358 72.76 403.918 72.76H425.318C425.878 72.76 426.332 72.9467 426.678 73.32C427.052 73.6667 427.238 74.12 427.238 74.68C427.238 75.24 427.052 75.7067 426.678 76.08C426.332 76.4267 425.878 76.6 425.318 76.6H403.918Z" fill="white" fill-opacity="0.35"/>
<path d="M305.5 27C305.5 41.6186 293.205 53.5 278 53.5C262.795 53.5 250.5 41.6186 250.5 27C250.5 12.3814 262.795 0.5 278 0.5C293.205 0.5 305.5 12.3814 305.5 27Z" fill="#1C1E20" stroke="#292B2C"/>
<path d="M278.5 17.7812C278.5 17.5243 278.398 17.2779 278.216 17.0962C278.035 16.9146 277.788 16.8125 277.531 16.8125C277.274 16.8125 277.028 16.9146 276.846 17.0962C276.665 17.2779 276.562 17.5243 276.562 17.7812V28.4375C276.563 28.6083 276.608 28.776 276.693 28.9236C276.779 29.0713 276.902 29.1937 277.051 29.2784L283.832 33.1534C284.055 33.2736 284.315 33.3021 284.559 33.2327C284.802 33.1632 285.008 33.0014 285.134 32.7818C285.259 32.5621 285.294 32.3021 285.23 32.0573C285.166 31.8125 285.01 31.6023 284.793 31.4716L278.5 27.8756V17.7812Z" fill="#868686"/>
<path d="M278.5 42C282.611 42 286.553 40.367 289.46 37.4602C292.367 34.5533 294 30.6109 294 26.5C294 22.3891 292.367 18.4467 289.46 15.5398C286.553 12.633 282.611 11 278.5 11C274.389 11 270.447 12.633 267.54 15.5398C264.633 18.4467 263 22.3891 263 26.5C263 30.6109 264.633 34.5533 267.54 37.4602C270.447 40.367 274.389 42 278.5 42ZM291.182 27.2045C291.182 30.8015 290.203 33.1156 287.659 35.6591C285.116 38.2026 282.097 39.1818 278.5 39.1818C274.903 39.1818 271.884 38.2026 269.341 35.6591C266.797 33.1156 265.818 30.097 265.818 26.5C265.818 22.903 266.797 19.8844 269.341 17.3409C271.884 14.7974 274.903 13.8182 278.5 13.8182C282.097 13.8182 285.116 14.7974 287.659 17.3409C290.203 19.8844 291.182 23.6075 291.182 27.2045Z" fill="#868686"/>
</svg>
