<svg width="23" height="16" viewBox="0 0 23 16" fill="none" xmlns="http://www.w3.org/2000/svg">
<path d="M6.68949 10.7208L4.7498 8.73216C5.65807 7.82263 6.72429 7.1021 7.94845 6.57056C9.172 6.03841 10.4919 5.77234 11.9082 5.77234C13.3245 5.77234 14.6447 6.04211 15.8689 6.58166C17.0924 7.12122 18.1583 7.85346 19.0666 8.77841L17.1269 10.7208C16.4496 10.0425 15.6644 9.51066 14.7716 9.12527C13.8787 8.73987 12.9242 8.54717 11.9082 8.54717C10.8922 8.54717 9.93772 8.73987 9.04484 9.12527C8.15196 9.51066 7.36685 10.0425 6.68949 10.7208ZM2.76392 6.78978L0.824219 4.84739C2.24051 3.39831 3.89541 2.26525 5.78892 1.44821C7.68243 0.631174 9.72219 0.222656 11.9082 0.222656C14.0942 0.222656 16.134 0.631174 18.0275 1.44821C19.921 2.26525 21.5759 3.39831 22.9922 4.84739L21.0525 6.78978C19.8671 5.60276 18.4933 4.67381 16.9311 4.00291C15.3683 3.33263 13.694 2.9975 11.9082 2.9975C10.1224 2.9975 8.44815 3.33263 6.88531 4.00291C5.32308 4.67381 3.94929 5.60276 2.76392 6.78978ZM11.9082 15.9467L15.1641 12.6632C14.7485 12.247 14.2635 11.9192 13.7094 11.68C13.1552 11.4413 12.5548 11.322 11.9082 11.322C11.2616 11.322 10.6613 11.4413 10.1071 11.68C9.55286 11.9192 9.06793 12.247 8.65228 12.6632L11.9082 15.9467Z" fill="#F8F8F8"/>
</svg>
