<svg width="38" height="35" viewBox="0 0 38 35" fill="none" xmlns="http://www.w3.org/2000/svg">
<g clip-path="url(#clip0_477_243)">
<path d="M8.97333 17.5C8.97333 17.7844 8.87556 18.0244 8.68 18.22C8.48444 18.4155 8.24444 18.5133 7.96 18.5133C7.67556 18.5133 7.44444 18.4155 7.26667 18.22C7.08889 18.0244 7 17.7844 7 17.5C7 17.2155 7.08889 16.9755 7.26667 16.78C7.44444 16.5844 7.67556 16.4866 7.96 16.4866C8.24444 16.4866 8.48444 16.5844 8.68 16.78C8.87556 16.9755 8.97333 17.2155 8.97333 17.5ZM13.9867 17.5C13.9867 17.7844 13.8889 18.0244 13.6933 18.22C13.4978 18.4155 13.2578 18.5133 12.9733 18.5133C12.6889 18.5133 12.4489 18.4155 12.2533 18.22C12.0578 18.0244 11.96 17.7844 11.96 17.5C11.96 17.2155 12.0578 16.9755 12.2533 16.78C12.4489 16.5844 12.6889 16.4866 12.9733 16.4866C13.2578 16.4866 13.4978 16.5844 13.6933 16.78C13.8889 16.9755 13.9867 17.2155 13.9867 17.5ZM19 17.5C19 17.7844 18.9022 18.0244 18.7067 18.22C18.5111 18.4155 18.2711 18.5133 17.9867 18.5133C17.7022 18.5133 17.4622 18.4155 17.2667 18.22C17.0711 18.0244 16.9733 17.7844 16.9733 17.5C16.9733 17.2155 17.0711 16.9755 17.2667 16.78C17.4622 16.5844 17.7022 16.4866 17.9867 16.4866C18.2711 16.4866 18.5111 16.5844 18.7067 16.78C18.9022 16.9755 19 17.2155 19 17.5Z" fill="#CCCCCC"/>
</g>
<defs>
<clipPath id="clip0_477_243">
<rect width="16" height="16" fill="white" transform="matrix(1 0 0 -1 7 25.5)"/>
</clipPath>
</defs>
</svg>
