<svg width="29" height="35" viewBox="0 0 29 35" fill="none" xmlns="http://www.w3.org/2000/svg">
<g opacity="0.5">
<g clip-path="url(#clip0_477_232)">
<path d="M10.6399 13.7C10.9954 13.7 11.351 13.7533 11.7066 13.86C12.3821 14.0377 12.9688 14.3755 13.4666 14.8733C13.9643 15.3711 14.3021 15.9577 14.4799 16.6333C14.5866 16.9888 14.6399 17.3444 14.6399 17.7C14.6399 18.0555 14.5866 18.4111 14.4799 18.7666C14.3021 19.4422 13.9643 20.0288 13.4666 20.5266C12.9688 21.0244 12.3821 21.3622 11.7066 21.54C11.351 21.6466 10.9954 21.7 10.6399 21.7C10.2843 21.7 9.92878 21.6466 9.57323 21.54C8.89767 21.3622 8.311 21.0244 7.81323 20.5266C7.31545 20.0288 6.97767 19.4422 6.79989 18.7666C6.69323 18.4111 6.63989 18.0555 6.63989 17.7C6.63989 17.3444 6.68434 16.9977 6.77323 16.66C6.86211 16.3222 6.99545 15.9933 7.17323 15.6733C7.52878 15.0688 8.00878 14.5888 8.61323 14.2333C8.93323 14.0555 9.26211 13.9222 9.59989 13.8333C9.93767 13.7444 10.2843 13.7 10.6399 13.7Z" fill="#CCCCCC"/>
</g>
</g>
<defs>
<clipPath id="clip0_477_232">
<rect width="16" height="16" fill="white" transform="matrix(1 0 0 -1 6.63989 25.7)"/>
</clipPath>
</defs>
</svg>
