<svg width="48" height="96" viewBox="0 0 48 96" fill="none" xmlns="http://www.w3.org/2000/svg">
<g clip-path="url(#clip0_477_129)">
<path d="M36 24C36 21.8133 35.4667 19.8 34.4 17.96C33.3333 16.12 31.88 14.6667 30.04 13.6C28.2 12.5333 26.1867 12 24 12C21.8133 12 19.8 12.5333 17.96 13.6C16.12 14.6667 14.6667 16.12 13.6 17.96C12.5333 19.8 12 21.8133 12 24C12 25.76 12.3733 27.44 13.12 29.04C13.8667 30.64 14.9067 32 16.24 33.12L17.28 33.92C19.3067 35.3067 21.5467 36 24 36C26.4533 36 28.6933 35.3067 30.72 33.92L31.84 33.12C33.12 32 34.1333 30.64 34.88 29.04C35.6267 27.44 36 25.76 36 24ZM24 34.48C21.8133 34.48 19.8133 33.84 18 32.56L18.08 32C18.24 31.4667 18.4533 30.9733 18.72 30.52C18.9867 30.0667 19.3067 29.6533 19.68 29.28C20.0533 28.9067 20.4533 28.5867 20.88 28.32C21.3067 28.0533 21.8 27.8533 22.36 27.72C22.92 27.5867 23.4667 27.52 24 27.52C24.8 27.52 25.5867 27.6667 26.36 27.96C27.1333 28.2533 27.8 28.68 28.36 29.24C28.92 29.8 29.36 30.4533 29.68 31.2C29.84 31.6267 29.9733 32.08 30.08 32.56C28.2667 33.84 26.24 34.48 24 34.48ZM20.32 23.36C20.1067 22.88 20 22.3733 20 21.84C20 21.3067 20.1067 20.8 20.32 20.32C20.5333 19.84 20.8133 19.4267 21.16 19.08C21.5067 18.7333 21.92 18.44 22.4 18.2C22.88 17.96 23.4133 17.84 24 17.84C24.5867 17.84 25.1067 17.9467 25.56 18.16C26.0133 18.3733 26.4267 18.6667 26.8 19.04C27.1733 19.4133 27.4667 19.84 27.68 20.32C27.8933 20.8 28 21.32 28 21.88C28 22.44 27.8933 22.9467 27.68 23.4C27.4667 23.8533 27.1733 24.2667 26.8 24.64C26.4267 25.0133 26 25.3067 25.52 25.52C24.5067 25.9467 23.4667 25.9467 22.4 25.52C21.9733 25.3067 21.5733 25.0133 21.2 24.64C20.8267 24.2667 20.5333 23.84 20.32 23.36ZM31.44 31.36C31.44 31.36 31.44 31.3333 31.44 31.28V31.2C31.2267 30.4533 30.8933 29.76 30.44 29.12C29.9867 28.48 29.44 27.92 28.8 27.44C28.32 27.0667 27.7867 26.7467 27.2 26.48C27.4667 26.32 27.7067 26.1333 27.92 25.92C28.2933 25.5467 28.6133 25.1467 28.88 24.72C29.4133 23.8667 29.6533 22.9067 29.6 21.84C29.6533 21.0933 29.5333 20.3733 29.24 19.68C28.9467 18.9867 28.5333 18.3733 28 17.84C27.4667 17.3067 26.8533 16.9067 26.16 16.64C25.4667 16.3733 24.7333 16.24 23.96 16.24C23.1867 16.24 22.4533 16.3733 21.76 16.64C21.0667 16.9067 20.4667 17.3067 19.96 17.84C19.4533 18.3733 19.0533 18.9867 18.76 19.68C18.4667 20.3733 18.32 21.0933 18.32 21.84C18.32 22.3733 18.4 22.8933 18.56 23.4C18.72 23.9067 18.9067 24.3467 19.12 24.72C19.3333 25.0933 19.6533 25.4933 20.08 25.92C20.2933 26.1333 20.5333 26.3467 20.8 26.56C20.2667 26.7733 19.76 27.0667 19.28 27.44C18.64 27.92 18.0933 28.48 17.64 29.12C17.1867 29.76 16.8267 30.48 16.56 31.28V31.36C15.6 30.4 14.8533 29.28 14.32 28C13.7867 26.72 13.52 25.3867 13.52 24C13.52 22.08 13.9867 20.32 14.92 18.72C15.8533 17.12 17.12 15.8533 18.72 14.92C20.32 13.9867 22.08 13.52 24 13.52C25.92 13.52 27.68 13.9867 29.28 14.92C30.88 15.8533 32.1467 17.12 33.08 18.72C34.0133 20.32 34.48 22.08 34.48 24C34.48 25.3867 34.2267 26.72 33.72 28C33.2133 29.28 32.4533 30.4 31.44 31.36Z" fill="#868686"/>
</g>
<g clip-path="url(#clip1_477_129)">
<path d="M31.84 68.72L36 69.6V74.4L31.84 75.28L34.24 78.8L30.8 82.16L27.28 79.84L26.4 84H21.6L20.72 79.84L17.2 82.24L13.84 78.8L16.16 75.28L12 74.4V69.6L16.16 68.72L13.84 65.2L17.2 61.76L20.72 64.16L21.6 60H26.4L27.28 64.16L30.8 61.76L34.24 65.2L31.84 68.72ZM30.32 73.84L34.32 73.04V71.04L30.32 70.16L29.76 68.88L32 65.44L30.64 64L27.2 66.32L25.84 65.76L25.04 61.76H23.04L22.24 65.76L20.96 66.32L17.52 64L16.08 65.44L18.4 68.88L17.84 70.16L13.84 71.04V73.04L17.84 73.84L18.4 75.12L16.08 78.56L17.52 80L20.96 77.68L22.24 78.24L23.04 82.24H25.04L25.84 78.24L27.2 77.68L30.64 80L32 78.56L29.76 75.12L30.32 73.84ZM22.08 69.12C22.6667 68.7467 23.3067 68.56 24 68.56C24.96 68.56 25.7733 68.8933 26.44 69.56C27.1067 70.2267 27.44 71.04 27.44 72C27.44 72.8 27.1733 73.52 26.64 74.16C26.1067 74.8 25.44 75.2 24.64 75.36C23.84 75.52 23.08 75.4133 22.36 75.04C21.64 74.6667 21.1333 74.0933 20.84 73.32C20.5467 72.5467 20.5067 71.7733 20.72 71C20.9333 70.2267 21.3867 69.6 22.08 69.12ZM23.04 73.44C23.36 73.6 23.68 73.68 24 73.68C24.48 73.68 24.88 73.52 25.2 73.2C25.52 72.88 25.68 72.4933 25.68 72.04C25.68 71.5867 25.56 71.2133 25.32 70.92C25.08 70.6267 24.76 70.44 24.36 70.36C23.96 70.28 23.5733 70.3333 23.2 70.52C22.8267 70.7067 22.56 70.9867 22.4 71.36C22.24 71.7333 22.2267 72.12 22.36 72.52C22.4933 72.92 22.72 73.2267 23.04 73.44Z" fill="#868686"/>
</g>
<defs>
<clipPath id="clip0_477_129">
<rect width="24" height="24" fill="white" transform="matrix(1 0 0 -1 12 36)"/>
</clipPath>
<clipPath id="clip1_477_129">
<rect width="24" height="24" fill="white" transform="matrix(1 0 0 -1 12 84)"/>
</clipPath>
</defs>
</svg>
