<svg width="64" height="35" viewBox="0 0 64 35" fill="none" xmlns="http://www.w3.org/2000/svg">
<g clip-path="url(#clip0_477_188)">
<path d="M19 10.5134H7.96L7 11.4734V22.5134L7.96 23.4734H19L19.96 22.5134V11.4734L19 10.5134ZM12.9733 22.5134H7.96V11.4734H12.9733V22.5134ZM19 22.5134H13.9867V11.4734H19V22.5134Z" fill="#CCCCCC"/>
</g>
<g clip-path="url(#clip1_477_188)">
<path d="M34.9733 17.5C34.9733 17.7844 34.8756 18.0244 34.68 18.22C34.4844 18.4155 34.2444 18.5133 33.96 18.5133C33.6756 18.5133 33.4444 18.4155 33.2667 18.22C33.0889 18.0244 33 17.7844 33 17.5C33 17.2155 33.0889 16.9755 33.2667 16.78C33.4444 16.5844 33.6756 16.4866 33.96 16.4866C34.2444 16.4866 34.4844 16.5844 34.68 16.78C34.8756 16.9755 34.9733 17.2155 34.9733 17.5ZM39.9867 17.5C39.9867 17.7844 39.8889 18.0244 39.6933 18.22C39.4978 18.4155 39.2578 18.5133 38.9733 18.5133C38.6889 18.5133 38.4489 18.4155 38.2533 18.22C38.0578 18.0244 37.96 17.7844 37.96 17.5C37.96 17.2155 38.0578 16.9755 38.2533 16.78C38.4489 16.5844 38.6889 16.4866 38.9733 16.4866C39.2578 16.4866 39.4978 16.5844 39.6933 16.78C39.8889 16.9755 39.9867 17.2155 39.9867 17.5ZM45 17.5C45 17.7844 44.9022 18.0244 44.7067 18.22C44.5111 18.4155 44.2711 18.5133 43.9867 18.5133C43.7022 18.5133 43.4622 18.4155 43.2667 18.22C43.0711 18.0244 42.9733 17.7844 42.9733 17.5C42.9733 17.2155 43.0711 16.9755 43.2667 16.78C43.4622 16.5844 43.7022 16.4866 43.9867 16.4866C44.2711 16.4866 44.5111 16.5844 44.7067 16.78C44.9022 16.9755 45 17.2155 45 17.5Z" fill="#CCCCCC"/>
</g>
<defs>
<clipPath id="clip0_477_188">
<rect width="16" height="16" fill="white" transform="matrix(1 0 0 -1 7 25.5)"/>
</clipPath>
<clipPath id="clip1_477_188">
<rect width="16" height="16" fill="white" transform="matrix(1 0 0 -1 33 25.5)"/>
</clipPath>
</defs>
</svg>
