<svg width="407" height="35" viewBox="0 0 407 35" fill="none" xmlns="http://www.w3.org/2000/svg">
<g clip-path="url(#clip0_477_54)">
<path d="M309.013 10.1133L308 11.1267V23.1267L309.013 24.0867H321.013L321.973 23.1267V11.1267L321.013 10.1133H309.013ZM309.013 23.1267V11.1267H313.013V23.1267H309.013ZM313.973 23.1267V11.1267H321.013V23.1267H313.973Z" fill="#9D9D9D"/>
</g>
<g clip-path="url(#clip1_477_54)">
<path d="M335.013 10.1133L334 11.1267V23.1267L335.013 24.0867H347.013L347.973 23.1267V11.1267L347.013 10.1133H335.013ZM335.013 19.1267V11.1267H347.013V19.1267H335.013ZM335.013 20.0867H347.013V23.1267H335.013V20.0867Z" fill="#9D9D9D"/>
</g>
<g clip-path="url(#clip2_477_54)">
<path d="M361.013 10.1133L360 11.1267V23.1267L361.013 24.0867H373.013L373.973 23.1267V11.1267L373.013 10.1133H361.013ZM361.013 23.1267V11.1267H368V23.1267H361.013ZM369.013 23.1267V11.1267H373.013V23.1267H369.013Z" fill="#9D9D9D"/>
</g>
<g clip-path="url(#clip3_477_54)">
<path d="M386.96 11.0734L386 12.0867V22.1134L386.96 23.0734H390.96L391.973 22.1134V12.0867L390.96 11.0734H386.96ZM386.96 22.1134V12.0867H390.96V22.1134H386.96ZM394 12.0867L394.96 11.0734H398L398.96 12.0867V15.0734L398 16.0867H394.96L394 15.0734V12.0867ZM394.96 12.0867V15.0734H398V12.0867H394.96ZM394 19.0734L394.96 18.1134H398L398.96 19.0734V22.1134L398 23.0734H394.96L394 22.1134V19.0734ZM394.96 19.0734V22.1134H398V19.0734H394.96Z" fill="#9D9D9D"/>
</g>
<defs>
<clipPath id="clip0_477_54">
<rect width="16" height="16" fill="white" transform="matrix(1 0 0 -1 308 25.1)"/>
</clipPath>
<clipPath id="clip1_477_54">
<rect width="16" height="16" fill="white" transform="matrix(1 0 0 -1 334 25.1)"/>
</clipPath>
<clipPath id="clip2_477_54">
<rect width="16" height="16" fill="white" transform="matrix(1 0 0 -1 360 25.1)"/>
</clipPath>
<clipPath id="clip3_477_54">
<rect width="16" height="16" fill="white" transform="matrix(1 0 0 -1 386 25.1)"/>
</clipPath>
</defs>
</svg>
