<svg width="22" height="35" viewBox="0 0 22 35" fill="none" xmlns="http://www.w3.org/2000/svg">
<g clip-path="url(#clip0_477_156)">
<mask id="mask0_477_156" style="mask-type:luminance" maskUnits="userSpaceOnUse" x="0" y="9" width="16" height="17">
<path fill-rule="evenodd" clip-rule="evenodd" d="M11.3459 25.3907C11.4732 25.4404 11.6094 25.4633 11.7459 25.4581C11.8825 25.4528 12.0165 25.4195 12.1396 25.3602L15.4338 23.7752C15.6034 23.6935 15.7466 23.5656 15.8467 23.4061C15.9469 23.2467 16 23.0622 16 22.8739V12.1261C16 11.7417 15.7799 11.3915 15.4338 11.2249L12.1396 9.63987C11.9535 9.55032 11.7441 9.52084 11.5405 9.55552C11.3369 9.5902 11.1491 9.68732 11.0031 9.83343L4.69683 15.5867L1.94995 13.5016C1.82604 13.4075 1.67311 13.3598 1.51768 13.3667C1.36225 13.3736 1.21415 13.4347 1.09908 13.5394L0.218141 14.3408C-0.0723592 14.605 -0.0726717 15.0621 0.217453 15.3267L2.59958 17.5L0.217391 19.6733C-0.0727342 19.938 -0.0724217 20.395 0.218078 20.6592L1.09914 21.4606C1.2142 21.5653 1.36229 21.6264 1.5177 21.6333C1.67311 21.6403 1.82604 21.5926 1.94995 21.4985L4.69683 19.4134L11.0031 25.1667C11.1006 25.2643 11.2173 25.3406 11.3459 25.3907ZM12.0025 13.8678L7.21745 17.5L12.0025 21.1322V13.8678Z" fill="white"/>
</mask>
<g mask="url(#mask0_477_156)">
<path d="M15.4338 11.2274L12.1371 9.64005C11.9509 9.55041 11.7414 9.52085 11.5377 9.55547C11.334 9.59009 11.1461 9.68718 11 9.8333L0.207766 19.6733C-0.0825467 19.938 -0.0822342 20.395 0.208453 20.6592L1.09002 21.4606C1.20519 21.5653 1.35336 21.6264 1.50886 21.6333C1.66436 21.6403 1.81738 21.5926 1.94139 21.4985L14.9377 11.6391C15.3737 11.3084 16 11.6194 16 12.1666V12.1284C16 11.9401 15.9468 11.7557 15.8467 11.5963C15.7465 11.4369 15.6034 11.309 15.4338 11.2274Z" fill="#0065A9"/>
<g filter="url(#filter0_d_477_156)">
<path d="M15.4338 23.7727L12.1371 25.36C11.9509 25.4496 11.7414 25.4792 11.5377 25.4445C11.334 25.4099 11.1461 25.3129 11 25.1668L0.207766 15.3268C-0.0825467 15.0621 -0.0822342 14.6051 0.208453 14.3408L1.09002 13.5394C1.20519 13.4347 1.35337 13.3737 1.50887 13.3667C1.66437 13.3598 1.81738 13.4076 1.94139 13.5016L14.9377 23.3609C15.3737 23.6916 16 23.3807 16 22.8334V22.8717C15.9999 23.0599 15.9468 23.2444 15.8466 23.4038C15.7465 23.5631 15.6034 23.691 15.4338 23.7727Z" fill="#007ACC"/>
</g>
<g filter="url(#filter1_d_477_156)">
<path d="M12.1372 25.3602C11.951 25.4498 11.7415 25.4793 11.5378 25.4446C11.3341 25.4099 11.1461 25.3128 11 25.1667C11.369 25.5357 12 25.2743 12 24.7524V10.2476C12 9.7257 11.369 9.46432 11 9.83332C11.1461 9.68719 11.3341 9.59007 11.5378 9.5554C11.7415 9.52072 11.951 9.5502 12.1372 9.63976L15.4334 11.225C15.6031 11.3066 15.7463 11.4345 15.8465 11.5939C15.9468 11.7533 16 11.9378 16 12.1261V22.8739C16 23.0622 15.9468 23.2467 15.8466 23.4061C15.7463 23.5656 15.6031 23.6935 15.4334 23.7751L12.1372 25.3601V25.3602Z" fill="#1F9CF0"/>
</g>
<path opacity="0.25" fill-rule="evenodd" clip-rule="evenodd" d="M11.3361 25.3908C11.4634 25.4404 11.5996 25.4633 11.7361 25.4581C11.8727 25.4528 12.0067 25.4195 12.1298 25.3603L15.4239 23.7751C15.5936 23.6935 15.7368 23.5656 15.8369 23.4061C15.9371 23.2467 15.9903 23.0622 15.9902 22.874V12.1261C15.9902 11.7418 15.7701 11.3915 15.424 11.2249L12.1298 9.63989C11.9437 9.55033 11.7343 9.52085 11.5307 9.55551C11.3271 9.59018 11.1393 9.68729 10.9932 9.83339L4.687 15.5867L1.94013 13.5016C1.81622 13.4076 1.6633 13.3599 1.50788 13.3668C1.35247 13.3737 1.20438 13.4348 1.08931 13.5395L0.208313 14.3408C-0.0821873 14.605 -0.0824998 15.062 0.207625 15.3267L2.58975 17.5L0.207625 19.6733C-0.0824998 19.938 -0.0821873 20.395 0.208313 20.6593L1.08938 21.4606C1.20444 21.5653 1.35254 21.6265 1.50797 21.6334C1.66339 21.6403 1.81633 21.5926 1.94025 21.4985L4.68713 19.4134L10.9933 25.1667C11.0908 25.2644 11.2075 25.3407 11.3361 25.3908ZM11.9927 13.8678L7.20769 17.5L11.9927 21.1322V13.8678Z" fill="url(#paint0_linear_477_156)"/>
</g>
</g>
<defs>
<filter id="filter0_d_477_156" x="-1.34314" y="12.0327" width="18.6765" height="14.7593" filterUnits="userSpaceOnUse" color-interpolation-filters="sRGB">
<feFlood flood-opacity="0" result="BackgroundImageFix"/>
<feColorMatrix in="SourceAlpha" type="matrix" values="0 0 0 0 0 0 0 0 0 0 0 0 0 0 0 0 0 0 127 0" result="hardAlpha"/>
<feOffset/>
<feGaussianBlur stdDeviation="0.666687"/>
<feColorMatrix type="matrix" values="0 0 0 0 0 0 0 0 0 0 0 0 0 0 0 0 0 0 0.25 0"/>
<feBlend mode="overlay" in2="BackgroundImageFix" result="effect1_dropShadow_477_156"/>
<feBlend mode="normal" in="SourceGraphic" in2="effect1_dropShadow_477_156" result="shape"/>
</filter>
<filter id="filter1_d_477_156" x="9.66663" y="8.20788" width="7.66675" height="18.5842" filterUnits="userSpaceOnUse" color-interpolation-filters="sRGB">
<feFlood flood-opacity="0" result="BackgroundImageFix"/>
<feColorMatrix in="SourceAlpha" type="matrix" values="0 0 0 0 0 0 0 0 0 0 0 0 0 0 0 0 0 0 127 0" result="hardAlpha"/>
<feOffset/>
<feGaussianBlur stdDeviation="0.666687"/>
<feColorMatrix type="matrix" values="0 0 0 0 0 0 0 0 0 0 0 0 0 0 0 0 0 0 0.25 0"/>
<feBlend mode="overlay" in2="BackgroundImageFix" result="effect1_dropShadow_477_156"/>
<feBlend mode="normal" in="SourceGraphic" in2="effect1_dropShadow_477_156" result="shape"/>
</filter>
<linearGradient id="paint0_linear_477_156" x1="7.99025" y1="9.54126" x2="7.99025" y2="25.4588" gradientUnits="userSpaceOnUse">
<stop stop-color="white"/>
<stop offset="1" stop-color="white" stop-opacity="0"/>
</linearGradient>
<clipPath id="clip0_477_156">
<rect width="16" height="16" fill="white" transform="translate(0 9.5)"/>
</clipPath>
</defs>
</svg>
