<svg width="22" height="23" viewBox="0 0 22 23" fill="none" xmlns="http://www.w3.org/2000/svg">
<g opacity="0.8">
<g clip-path="url(#clip0_477_47)">
<path d="M11.3167 4.10005C10.3522 4.10005 9.47334 4.35671 8.68001 4.87005C7.88668 5.38338 7.29557 6.0756 6.90668 6.94671C6.51779 7.81782 6.39334 8.72005 6.53334 9.65338C6.67334 10.5867 7.05445 11.3956 7.67668 12.08L3.01001 17.4467L3.66334 18.0067L8.33001 12.6867C9.17001 13.34 10.1111 13.6823 11.1533 13.7134C12.1956 13.7445 13.1522 13.4645 14.0233 12.8734C14.8945 12.2823 15.5011 11.4889 15.8433 10.4934C16.1856 9.49782 16.2011 8.49449 15.89 7.48338C15.5789 6.47227 14.9956 5.6556 14.14 5.03338C13.2845 4.41116 12.3433 4.10005 11.3167 4.10005ZM11.3167 12.8267C10.6011 12.8267 9.94001 12.6556 9.33334 12.3134C8.72668 11.9712 8.24445 11.4967 7.88668 10.89C7.5289 10.2834 7.35001 9.62227 7.35001 8.90671C7.35001 8.19116 7.5289 7.53005 7.88668 6.92338C8.24445 6.31671 8.72668 5.84227 9.33334 5.50005C9.94001 5.15782 10.6011 4.98671 11.3167 4.98671C12.0322 4.98671 12.6856 5.15782 13.2767 5.50005C13.8678 5.84227 14.3422 6.31671 14.7 6.92338C15.0578 7.53005 15.2367 8.19116 15.2367 8.90671C15.2367 9.62227 15.0578 10.2834 14.7 10.89C14.3422 11.4967 13.8678 11.9789 13.2767 12.3367C12.6856 12.6945 12.0322 12.8734 11.3167 12.8734V12.8267Z" fill="#CCCCCC"/>
</g>
</g>
<defs>
<clipPath id="clip0_477_47">
<rect width="14" height="14" fill="white" transform="matrix(1 0 0 -1 3.01001 18.1001)"/>
</clipPath>
</defs>
</svg>
