<svg width="48" height="48" viewBox="0 0 48 48" fill="none" xmlns="http://www.w3.org/2000/svg">
<g clip-path="url(#clip0_477_109)">
<path d="M30.0544 20.2399C30.0544 19.5466 29.8677 18.8933 29.4944 18.2799C29.1211 17.6666 28.6144 17.1999 27.9744 16.8799C27.3344 16.5599 26.6677 16.4266 25.9744 16.4799C25.2811 16.5333 24.6411 16.7733 24.0544 17.1999C23.4677 17.6266 23.0544 18.1733 22.8144 18.8399C22.5744 19.5066 22.5077 20.1866 22.6144 20.8799C22.7211 21.5733 23.0144 22.1733 23.4944 22.6799C23.9744 23.1866 24.5611 23.5466 25.2544 23.7599C24.9877 24.2933 24.6144 24.7066 24.1344 24.9999C23.6544 25.2933 23.1211 25.4399 22.5344 25.4399H19.5744C18.4011 25.4399 17.3877 25.8399 16.5344 26.6399V19.3599C17.4944 19.1999 18.2544 18.7333 18.8144 17.9599C19.3744 17.1866 19.6144 16.3199 19.5344 15.3599C19.4544 14.3999 19.0544 13.5999 18.3344 12.9599C17.6144 12.3199 16.7744 11.9999 15.8144 11.9999C14.8544 11.9999 14.0144 12.3199 13.2944 12.9599C12.5744 13.5999 12.1744 14.3999 12.0944 15.3599C12.0144 16.3199 12.2544 17.1866 12.8144 17.9599C13.3744 18.7333 14.1344 19.1999 15.0944 19.3599V28.4799C14.1344 28.6933 13.3611 29.1733 12.7744 29.9199C12.1877 30.6666 11.9344 31.5199 12.0144 32.4799C12.0944 33.4399 12.4677 34.2533 13.1344 34.9199C13.8011 35.5866 14.6144 35.9466 15.5744 35.9999C16.5344 36.0533 17.3877 35.7866 18.1344 35.1999C18.8811 34.6133 19.3344 33.8399 19.4944 32.8799C19.6544 31.9199 19.4944 31.0399 19.0144 30.2399C18.5344 29.4399 17.8144 28.9066 16.8544 28.6399C17.1211 28.1066 17.4944 27.6933 17.9744 27.3999C18.4544 27.1066 18.9877 26.9599 19.5744 26.9599H22.5344C23.4944 26.9599 24.3611 26.6799 25.1344 26.1199C25.9077 25.5599 26.4544 24.8266 26.7744 23.9199C27.6811 23.8133 28.4544 23.3999 29.0944 22.6799C29.7344 21.9599 30.0544 21.1466 30.0544 20.2399ZM13.5744 15.7599C13.5744 15.1199 13.7877 14.5866 14.2144 14.1599C14.6411 13.7333 15.1744 13.5199 15.8144 13.5199C16.4544 13.5199 16.9877 13.7333 17.4144 14.1599C17.8411 14.5866 18.0544 15.1066 18.0544 15.7199C18.0544 16.3333 17.8411 16.8666 17.4144 17.3199C16.9877 17.7733 16.4544 17.9999 15.8144 17.9999C15.1744 17.9999 14.6411 17.7733 14.2144 17.3199C13.7877 16.8666 13.5744 16.3466 13.5744 15.7599ZM18.0544 32.1599C18.0544 32.7999 17.8411 33.3333 17.4144 33.7599C16.9877 34.1866 16.4544 34.3999 15.8144 34.3999C15.1744 34.3999 14.6411 34.1866 14.2144 33.7599C13.7877 33.3333 13.5744 32.8133 13.5744 32.1999C13.5744 31.5866 13.7877 31.0533 14.2144 30.5999C14.6411 30.1466 15.1744 29.9199 15.8144 29.9199C16.4544 29.9199 16.9877 30.1466 17.4144 30.5999C17.8411 31.0533 18.0544 31.5733 18.0544 32.1599ZM26.2944 22.4799C25.6544 22.4799 25.1211 22.2533 24.6944 21.7999C24.2677 21.3466 24.0544 20.8133 24.0544 20.1999C24.0544 19.5866 24.2677 19.0666 24.6944 18.6399C25.1211 18.2133 25.6411 17.9999 26.2544 17.9999C26.8677 17.9999 27.4011 18.2133 27.8544 18.6399C28.3077 19.0666 28.5344 19.5866 28.5344 20.1999C28.5344 20.8133 28.3077 21.3466 27.8544 21.7999C27.4011 22.2533 26.8811 22.4799 26.2944 22.4799Z" fill="#868686"/>
</g>
<defs>
<clipPath id="clip0_477_109">
<rect width="24" height="24" fill="white" transform="matrix(1 0 0 -1 12 36)"/>
</clipPath>
</defs>
</svg>
