<svg width="48" height="48" viewBox="0 0 48 48" fill="none" xmlns="http://www.w3.org/2000/svg">
<g clip-path="url(#clip0_477_104)">
<path d="M26.24 12.0001C24.5867 12.0001 23.08 12.4401 21.72 13.3201C20.36 14.2001 19.3467 15.3868 18.68 16.8801C18.0133 18.3734 17.8 19.9201 18.04 21.5201C18.28 23.1201 18.9333 24.5068 20 25.6801L12 34.8801L13.12 35.8401L21.12 26.7201C22.56 27.8401 24.1733 28.4268 25.96 28.4801C27.7467 28.5334 29.3867 28.0534 30.88 27.0401C32.3733 26.0268 33.4133 24.6668 34 22.9601C34.5867 21.2534 34.6133 19.5334 34.08 17.8001C33.5467 16.0668 32.5467 14.6668 31.08 13.6001C29.6133 12.5334 28 12.0001 26.24 12.0001ZM26.24 26.9601C25.0133 26.9601 23.88 26.6668 22.84 26.0801C21.8 25.4934 20.9733 24.6801 20.36 23.6401C19.7467 22.6001 19.44 21.4668 19.44 20.2401C19.44 19.0134 19.7467 17.8801 20.36 16.8401C20.9733 15.8001 21.8 14.9868 22.84 14.4001C23.88 13.8134 25.0133 13.5201 26.24 13.5201C27.4667 13.5201 28.5867 13.8134 29.6 14.4001C30.6133 14.9868 31.4267 15.8001 32.04 16.8401C32.6533 17.8801 32.96 19.0134 32.96 20.2401C32.96 21.4668 32.6533 22.6001 32.04 23.6401C31.4267 24.6801 30.6133 25.5068 29.6 26.1201C28.5867 26.7334 27.4667 27.0401 26.24 27.0401V26.9601Z" fill="#868686"/>
</g>
<defs>
<clipPath id="clip0_477_104">
<rect width="24" height="24" fill="white" transform="matrix(1 0 0 -1 12 36)"/>
</clipPath>
</defs>
</svg>
