<svg width="48" height="48" viewBox="0 0 48 48" fill="none" xmlns="http://www.w3.org/2000/svg">
<path d="M12.8 14.16H33.12L33.84 14.88V23.52C33.36 23.1467 32.8533 22.8267 32.32 22.56V15.68H13.6V29.76H21.36C21.36 31.4667 21.8933 33.0133 22.96 34.4H16.72V32.88H21.36V31.28H12.8L12 30.56V14.88L12.8 14.16ZM29.2 23.52C28.08 23.52 27.04 23.8 26.08 24.36C25.12 24.92 24.36 25.68 23.8 26.64C23.24 27.6 22.96 28.64 22.96 29.76C22.96 30.88 23.24 31.92 23.8 32.88C24.36 33.84 25.12 34.6 26.08 35.16C27.04 35.72 28.08 36 29.2 36C30.32 36 31.36 35.72 32.32 35.16C33.28 34.6 34.04 33.84 34.6 32.88C35.16 31.92 35.44 30.88 35.44 29.76C35.44 28.64 35.16 27.6 34.6 26.64C34.04 25.68 33.28 24.92 32.32 24.36C31.36 23.8 30.32 23.52 29.2 23.52ZM29.2 34.4C28.3467 34.4 27.56 34.2 26.84 33.8C26.12 33.4 25.5467 32.84 25.12 32.12C24.6933 31.4 24.48 30.6133 24.48 29.76C24.48 28.9067 24.6933 28.12 25.12 27.4C25.5467 26.68 26.12 26.1067 26.84 25.68C27.56 25.2533 28.3467 25.04 29.2 25.04C30.0533 25.04 30.84 25.2533 31.56 25.68C32.28 26.1067 32.84 26.68 33.24 27.4C33.64 28.12 33.84 28.9067 33.84 29.76C33.84 30.6133 33.64 31.4 33.24 32.12C32.84 32.84 32.28 33.4 31.56 33.8C30.84 34.2 30.0533 34.4 29.2 34.4ZM31.76 31.28L29.68 29.12L31.76 26.96L32.48 27.68L30.96 29.12L32.48 30.64L31.76 31.28ZM26.48 29.28L27.92 30.72L26.48 32.24L27.12 32.88L29.28 30.72L27.12 28.56L26.48 29.28Z" fill="#868686"/>
</svg>
